<?xml version="1.0" encoding="utf-8" standalone="no"?>
<!DOCTYPE svg PUBLIC "-//W3C//DTD SVG 1.1//EN"
  "http://www.w3.org/Graphics/SVG/1.1/DTD/svg11.dtd">
<!-- Created with matplotlib (http://matplotlib.org/) -->
<svg height="360pt" version="1.1" viewBox="0 0 844 360" width="844pt" xmlns="http://www.w3.org/2000/svg" xmlns:xlink="http://www.w3.org/1999/xlink">
 <defs>
  <style type="text/css">
*{stroke-linecap:butt;stroke-linejoin:round;}
  </style>
 </defs>
 <g id="figure_1">
  <g id="patch_1">
   <path d="M 0 360 
L 844.35 360 
L 844.35 0 
L 0 0 
z
" style="fill:none;"/>
  </g>
  <g id="axes_1">
   <g id="patch_2">
    <path d="M 40.811 288.064 
L 421.8445 288.064 
L 421.8445 39.736 
L 40.811 39.736 
z
" style="fill:none;"/>
   </g>
   <g id="matplotlib.axis_1">
    <g id="xtick_1">
     <g id="line2d_1">
      <path clip-path="url(#p6416d55fb7)" d="M 77.145968 288.064 
L 77.145968 39.736 
" style="fill:none;stroke:#cccccc;stroke-linecap:round;stroke-width:1.6;"/>
     </g>
     <g id="line2d_2"/>
     <g id="text_1">
      <!-- −0.4 -->
      <defs>
       <path d="M 4.9375 29.6875 
L 4.9375 36.8125 
L 53.515625 36.8125 
L 53.515625 29.6875 
z
" id="LiberationSans-2212"/>
       <path d="M 51.703125 34.421875 
Q 51.703125 24.515625 49.828125 17.75 
Q 47.953125 10.984375 44.703125 6.8125 
Q 41.453125 2.640625 37.0625 0.828125 
Q 32.671875 -0.984375 27.6875 -0.984375 
Q 22.65625 -0.984375 18.3125 0.828125 
Q 13.96875 2.640625 10.765625 6.78125 
Q 7.5625 10.9375 5.734375 17.703125 
Q 3.90625 24.46875 3.90625 34.421875 
Q 3.90625 44.828125 5.734375 51.640625 
Q 7.5625 58.453125 10.78125 62.5 
Q 14.015625 66.546875 18.40625 68.1875 
Q 22.796875 69.828125 27.984375 69.828125 
Q 32.90625 69.828125 37.21875 68.1875 
Q 41.546875 66.546875 44.765625 62.5 
Q 48 58.453125 49.84375 51.640625 
Q 51.703125 44.828125 51.703125 34.421875 
z
M 42.78125 34.421875 
Q 42.78125 42.625 41.796875 48.0625 
Q 40.828125 53.515625 38.921875 56.765625 
Q 37.015625 60.015625 34.25 61.359375 
Q 31.5 62.703125 27.984375 62.703125 
Q 24.265625 62.703125 21.4375 61.328125 
Q 18.609375 59.96875 16.671875 56.71875 
Q 14.75 53.46875 13.765625 48.015625 
Q 12.796875 42.578125 12.796875 34.421875 
Q 12.796875 26.515625 13.796875 21.09375 
Q 14.796875 15.671875 16.71875 12.375 
Q 18.65625 9.078125 21.4375 7.640625 
Q 24.21875 6.203125 27.78125 6.203125 
Q 31.25 6.203125 34.03125 7.640625 
Q 36.8125 9.078125 38.734375 12.375 
Q 40.671875 15.671875 41.71875 21.09375 
Q 42.78125 26.515625 42.78125 34.421875 
z
" id="LiberationSans-30"/>
       <path d="M 9.125 0 
L 9.125 10.6875 
L 18.65625 10.6875 
L 18.65625 0 
z
" id="LiberationSans-2e"/>
       <path d="M 43.015625 15.578125 
L 43.015625 0 
L 34.71875 0 
L 34.71875 15.578125 
L 2.296875 15.578125 
L 2.296875 22.40625 
L 33.796875 68.796875 
L 43.015625 68.796875 
L 43.015625 22.515625 
L 52.6875 22.515625 
L 52.6875 15.578125 
z
M 34.71875 58.890625 
Q 34.625 58.640625 34.234375 57.9375 
Q 33.84375 57.234375 33.34375 56.34375 
Q 32.859375 55.46875 32.34375 54.5625 
Q 31.84375 53.65625 31.453125 53.078125 
L 13.8125 27.09375 
Q 13.578125 26.703125 13.109375 26.0625 
Q 12.640625 25.4375 12.15625 24.78125 
Q 11.671875 24.125 11.171875 23.484375 
Q 10.6875 22.859375 10.40625 22.515625 
L 34.71875 22.515625 
z
" id="LiberationSans-34"/>
      </defs>
      <g style="fill:#262626;" transform="translate(61.353468 310.859)scale(0.16 -0.16)">
       <use xlink:href="#LiberationSans-2212"/>
       <use x="58.398438" xlink:href="#LiberationSans-30"/>
       <use x="114.013672" xlink:href="#LiberationSans-2e"/>
       <use x="141.796875" xlink:href="#LiberationSans-34"/>
      </g>
     </g>
    </g>
    <g id="xtick_2">
     <g id="line2d_3">
      <path clip-path="url(#p6416d55fb7)" d="M 154.369914 288.064 
L 154.369914 39.736 
" style="fill:none;stroke:#cccccc;stroke-linecap:round;stroke-width:1.6;"/>
     </g>
     <g id="line2d_4"/>
     <g id="text_2">
      <!-- −0.2 -->
      <defs>
       <path d="M 5.03125 0 
L 5.03125 6.203125 
Q 7.515625 11.921875 11.109375 16.28125 
Q 14.703125 20.65625 18.65625 24.1875 
Q 22.609375 27.734375 26.484375 30.765625 
Q 30.375 33.796875 33.5 36.8125 
Q 36.625 39.84375 38.546875 43.15625 
Q 40.484375 46.484375 40.484375 50.6875 
Q 40.484375 53.609375 39.59375 55.828125 
Q 38.71875 58.0625 37.0625 59.5625 
Q 35.40625 61.078125 33.078125 61.828125 
Q 30.765625 62.59375 27.9375 62.59375 
Q 25.296875 62.59375 22.96875 61.859375 
Q 20.65625 61.140625 18.84375 59.671875 
Q 17.046875 58.203125 15.890625 56.03125 
Q 14.75 53.859375 14.40625 50.984375 
L 5.421875 51.8125 
Q 5.859375 55.515625 7.46875 58.78125 
Q 9.078125 62.0625 11.90625 64.53125 
Q 14.75 67 18.71875 68.40625 
Q 22.703125 69.828125 27.9375 69.828125 
Q 33.0625 69.828125 37.0625 68.609375 
Q 41.0625 67.390625 43.8125 64.984375 
Q 46.578125 62.59375 48.046875 59.078125 
Q 49.515625 55.5625 49.515625 50.984375 
Q 49.515625 47.515625 48.265625 44.390625 
Q 47.015625 41.265625 44.9375 38.421875 
Q 42.875 35.59375 40.140625 32.953125 
Q 37.40625 30.328125 34.421875 27.8125 
Q 31.453125 25.296875 28.421875 22.828125 
Q 25.390625 20.359375 22.71875 17.859375 
Q 20.0625 15.375 17.96875 12.8125 
Q 15.875 10.25 14.703125 7.46875 
L 50.59375 7.46875 
L 50.59375 0 
z
" id="LiberationSans-32"/>
      </defs>
      <g style="fill:#262626;" transform="translate(138.577414 310.859)scale(0.16 -0.16)">
       <use xlink:href="#LiberationSans-2212"/>
       <use x="58.398438" xlink:href="#LiberationSans-30"/>
       <use x="114.013672" xlink:href="#LiberationSans-2e"/>
       <use x="141.796875" xlink:href="#LiberationSans-32"/>
      </g>
     </g>
    </g>
    <g id="xtick_3">
     <g id="line2d_5">
      <path clip-path="url(#p6416d55fb7)" d="M 231.593859 288.064 
L 231.593859 39.736 
" style="fill:none;stroke:#cccccc;stroke-linecap:round;stroke-width:1.6;"/>
     </g>
     <g id="line2d_6"/>
     <g id="text_3">
      <!-- 0.0 -->
      <g style="fill:#262626;" transform="translate(220.473859 310.859)scale(0.16 -0.16)">
       <use xlink:href="#LiberationSans-30"/>
       <use x="55.615234" xlink:href="#LiberationSans-2e"/>
       <use x="83.398438" xlink:href="#LiberationSans-30"/>
      </g>
     </g>
    </g>
    <g id="xtick_4">
     <g id="line2d_7">
      <path clip-path="url(#p6416d55fb7)" d="M 308.817805 288.064 
L 308.817805 39.736 
" style="fill:none;stroke:#cccccc;stroke-linecap:round;stroke-width:1.6;"/>
     </g>
     <g id="line2d_8"/>
     <g id="text_4">
      <!-- 0.2 -->
      <g style="fill:#262626;" transform="translate(297.697805 310.859)scale(0.16 -0.16)">
       <use xlink:href="#LiberationSans-30"/>
       <use x="55.615234" xlink:href="#LiberationSans-2e"/>
       <use x="83.398438" xlink:href="#LiberationSans-32"/>
      </g>
     </g>
    </g>
    <g id="xtick_5">
     <g id="line2d_9">
      <path clip-path="url(#p6416d55fb7)" d="M 386.041751 288.064 
L 386.041751 39.736 
" style="fill:none;stroke:#cccccc;stroke-linecap:round;stroke-width:1.6;"/>
     </g>
     <g id="line2d_10"/>
     <g id="text_5">
      <!-- 0.4 -->
      <g style="fill:#262626;" transform="translate(374.921751 310.859)scale(0.16 -0.16)">
       <use xlink:href="#LiberationSans-30"/>
       <use x="55.615234" xlink:href="#LiberationSans-2e"/>
       <use x="83.398438" xlink:href="#LiberationSans-34"/>
      </g>
     </g>
    </g>
    <g id="text_6">
     <!-- $\rho$(X, y) -->
     <defs>
      <path d="M 18.796875 44.921875 
Q 22.703125 49.90625 30.953125 54.296875 
Q 34.1875 56 43.0625 56 
Q 53.03125 56 57.71875 48.09375 
Q 62.40625 40.1875 59.90625 27.296875 
Q 57.375 14.40625 49.609375 6.484375 
Q 41.84375 -1.421875 31.890625 -1.421875 
Q 25.875 -1.421875 22.015625 0.984375 
Q 18.171875 3.328125 16.3125 8.203125 
L 10.640625 -20.796875 
L 1.609375 -20.796875 
L 10.890625 26.8125 
Q 13.09375 38.09375 18.796875 44.921875 
z
M 50.59375 27.296875 
Q 52.484375 37.203125 49.515625 42.875 
Q 46.53125 48.484375 39.40625 48.484375 
Q 32.28125 48.484375 27.09375 42.875 
Q 21.921875 37.203125 20.015625 27.296875 
Q 18.0625 17.390625 21.046875 11.71875 
Q 24.03125 6.109375 31.15625 6.109375 
Q 38.28125 6.109375 43.453125 11.71875 
Q 48.640625 17.390625 50.59375 27.296875 
z
" id="DejaVuSans-Oblique-3c1"/>
      <path d="M 6.203125 25.984375 
Q 6.203125 32.765625 7.21875 38.96875 
Q 8.25 45.171875 10.4375 50.875 
Q 12.640625 56.59375 16.0625 61.953125 
Q 19.484375 67.328125 24.21875 72.46875 
L 32.71875 72.46875 
Q 28.125 67.328125 24.78125 61.9375 
Q 21.4375 56.546875 19.28125 50.796875 
Q 17.140625 45.0625 16.09375 38.859375 
Q 15.046875 32.671875 15.046875 25.875 
Q 15.046875 19.09375 16.09375 12.890625 
Q 17.140625 6.6875 19.28125 0.921875 
Q 21.4375 -4.828125 24.78125 -10.203125 
Q 28.125 -15.578125 32.71875 -20.703125 
L 24.21875 -20.703125 
Q 19.484375 -15.578125 16.0625 -10.203125 
Q 12.640625 -4.828125 10.4375 0.875 
Q 8.25 6.59375 7.21875 12.765625 
Q 6.203125 18.953125 6.203125 25.78125 
z
" id="LiberationSans-28"/>
      <path d="M 54.296875 0 
L 33.640625 30.078125 
L 12.546875 0 
L 2.25 0 
L 28.421875 35.75 
L 4.25 68.796875 
L 14.546875 68.796875 
L 33.6875 41.796875 
L 52.296875 68.796875 
L 62.59375 68.796875 
L 39.0625 36.078125 
L 64.59375 0 
z
" id="LiberationSans-58"/>
      <path d="M 18.796875 10.6875 
L 18.796875 2.484375 
Q 18.796875 -0.09375 18.578125 -2.21875 
Q 18.359375 -4.34375 17.875 -6.171875 
Q 17.390625 -8.015625 16.671875 -9.625 
Q 15.96875 -11.234375 14.984375 -12.796875 
L 8.984375 -12.796875 
Q 11.1875 -9.625 12.375 -6.390625 
Q 13.578125 -3.171875 13.578125 0 
L 9.28125 0 
L 9.28125 10.6875 
z
" id="LiberationSans-2c"/>
      <path id="LiberationSans-20"/>
      <path d="M 29.5 0 
Q 27.640625 -4.78125 25.703125 -8.609375 
Q 23.78125 -12.453125 21.390625 -15.15625 
Q 19 -17.875 16.0625 -19.3125 
Q 13.140625 -20.75 9.328125 -20.75 
Q 7.671875 -20.75 6.25 -20.65625 
Q 4.828125 -20.5625 3.265625 -20.21875 
L 3.265625 -13.625 
Q 4.203125 -13.765625 5.375 -13.84375 
Q 6.546875 -13.921875 7.375 -13.921875 
Q 11.234375 -13.921875 14.546875 -11.03125 
Q 17.875 -8.15625 20.359375 -1.859375 
L 21.1875 0.25 
L 0.25 52.828125 
L 9.625 52.828125 
L 20.75 23.640625 
Q 21.234375 22.3125 21.984375 20.109375 
Q 22.75 17.921875 23.5 15.71875 
Q 24.265625 13.53125 24.84375 11.765625 
Q 25.4375 10.015625 25.53125 9.578125 
Q 25.6875 10.109375 26.25 11.6875 
Q 26.8125 13.28125 27.515625 15.234375 
Q 28.21875 17.1875 28.953125 19.1875 
Q 29.6875 21.1875 30.171875 22.65625 
L 40.53125 52.828125 
L 49.8125 52.828125 
z
" id="LiberationSans-79"/>
      <path d="M 27.09375 25.78125 
Q 27.09375 18.953125 26.0625 12.765625 
Q 25.046875 6.59375 22.84375 0.875 
Q 20.65625 -4.828125 17.234375 -10.203125 
Q 13.8125 -15.578125 9.078125 -20.703125 
L 0.59375 -20.703125 
Q 5.171875 -15.578125 8.515625 -10.203125 
Q 11.859375 -4.828125 14 0.921875 
Q 16.15625 6.6875 17.203125 12.890625 
Q 18.265625 19.09375 18.265625 25.875 
Q 18.265625 32.671875 17.203125 38.859375 
Q 16.15625 45.0625 14 50.796875 
Q 11.859375 56.546875 8.515625 61.9375 
Q 5.171875 67.328125 0.59375 72.46875 
L 9.078125 72.46875 
Q 13.8125 67.328125 17.234375 61.953125 
Q 20.65625 56.59375 22.84375 50.875 
Q 25.046875 45.171875 26.0625 38.96875 
Q 27.09375 32.765625 27.09375 25.984375 
z
" id="LiberationSans-29"/>
     </defs>
     <g style="fill:#262626;" transform="translate(204.66375 331.027)scale(0.176 -0.176)">
      <use transform="translate(0 0.53125)" xlink:href="#DejaVuSans-Oblique-3c1"/>
      <use transform="translate(63.476562 0.53125)" xlink:href="#LiberationSans-28"/>
      <use transform="translate(96.777344 0.53125)" xlink:href="#LiberationSans-58"/>
      <use transform="translate(163.476562 0.53125)" xlink:href="#LiberationSans-2c"/>
      <use transform="translate(191.259766 0.53125)" xlink:href="#LiberationSans-20"/>
      <use transform="translate(219.042969 0.53125)" xlink:href="#LiberationSans-79"/>
      <use transform="translate(269.042969 0.53125)" xlink:href="#LiberationSans-29"/>
     </g>
    </g>
   </g>
   <g id="matplotlib.axis_2">
    <g id="ytick_1">
     <g id="line2d_11">
      <path clip-path="url(#p6416d55fb7)" d="M 40.811 288.064 
L 421.8445 288.064 
" style="fill:none;stroke:#cccccc;stroke-linecap:round;stroke-width:1.6;"/>
     </g>
     <g id="line2d_12"/>
     <g id="text_7">
      <!-- 0 -->
      <g style="fill:#262626;" transform="translate(20.7135 293.8615)scale(0.16 -0.16)">
       <use xlink:href="#LiberationSans-30"/>
      </g>
     </g>
    </g>
    <g id="ytick_2">
     <g id="line2d_13">
      <path clip-path="url(#p6416d55fb7)" d="M 40.811 252.282086 
L 421.8445 252.282086 
" style="fill:none;stroke:#cccccc;stroke-linecap:round;stroke-width:1.6;"/>
     </g>
     <g id="line2d_14"/>
     <g id="text_8">
      <!-- 1 -->
      <defs>
       <path d="M 7.625 0 
L 7.625 7.46875 
L 25.140625 7.46875 
L 25.140625 60.40625 
L 9.625 49.3125 
L 9.625 57.625 
L 25.875 68.796875 
L 33.984375 68.796875 
L 33.984375 7.46875 
L 50.734375 7.46875 
L 50.734375 0 
z
" id="LiberationSans-31"/>
      </defs>
      <g style="fill:#262626;" transform="translate(20.7135 258.079586)scale(0.16 -0.16)">
       <use xlink:href="#LiberationSans-31"/>
      </g>
     </g>
    </g>
    <g id="ytick_3">
     <g id="line2d_15">
      <path clip-path="url(#p6416d55fb7)" d="M 40.811 216.500172 
L 421.8445 216.500172 
" style="fill:none;stroke:#cccccc;stroke-linecap:round;stroke-width:1.6;"/>
     </g>
     <g id="line2d_16"/>
     <g id="text_9">
      <!-- 2 -->
      <g style="fill:#262626;" transform="translate(20.7135 222.297672)scale(0.16 -0.16)">
       <use xlink:href="#LiberationSans-32"/>
      </g>
     </g>
    </g>
    <g id="ytick_4">
     <g id="line2d_17">
      <path clip-path="url(#p6416d55fb7)" d="M 40.811 180.718258 
L 421.8445 180.718258 
" style="fill:none;stroke:#cccccc;stroke-linecap:round;stroke-width:1.6;"/>
     </g>
     <g id="line2d_18"/>
     <g id="text_10">
      <!-- 3 -->
      <defs>
       <path d="M 51.21875 19 
Q 51.21875 14.265625 49.671875 10.546875 
Q 48.140625 6.84375 45.1875 4.265625 
Q 42.234375 1.703125 37.859375 0.359375 
Q 33.5 -0.984375 27.875 -0.984375 
Q 21.484375 -0.984375 17.109375 0.609375 
Q 12.75 2.203125 9.90625 4.8125 
Q 7.078125 7.421875 5.65625 10.765625 
Q 4.25 14.109375 3.8125 17.671875 
L 12.890625 18.5 
Q 13.28125 15.765625 14.328125 13.515625 
Q 15.375 11.28125 17.1875 9.671875 
Q 19 8.0625 21.625 7.171875 
Q 24.265625 6.296875 27.875 6.296875 
Q 34.515625 6.296875 38.296875 9.5625 
Q 42.09375 12.84375 42.09375 19.28125 
Q 42.09375 23.09375 40.40625 25.40625 
Q 38.71875 27.734375 36.203125 29.03125 
Q 33.6875 30.328125 30.734375 30.765625 
Q 27.78125 31.203125 25.296875 31.203125 
L 20.3125 31.203125 
L 20.3125 38.8125 
L 25.09375 38.8125 
Q 27.59375 38.8125 30.265625 39.328125 
Q 32.953125 39.84375 35.171875 41.1875 
Q 37.40625 42.53125 38.84375 44.828125 
Q 40.28125 47.125 40.28125 50.6875 
Q 40.28125 56.203125 37.03125 59.390625 
Q 33.796875 62.59375 27.390625 62.59375 
Q 21.578125 62.59375 17.984375 59.609375 
Q 14.40625 56.640625 13.8125 51.21875 
L 4.984375 51.90625 
Q 5.515625 56.453125 7.46875 59.8125 
Q 9.421875 63.1875 12.421875 65.40625 
Q 15.4375 67.625 19.28125 68.71875 
Q 23.140625 69.828125 27.484375 69.828125 
Q 33.25 69.828125 37.390625 68.375 
Q 41.546875 66.9375 44.1875 64.46875 
Q 46.828125 62.015625 48.0625 58.6875 
Q 49.3125 55.375 49.3125 51.609375 
Q 49.3125 48.578125 48.484375 45.9375 
Q 47.65625 43.3125 45.890625 41.203125 
Q 44.140625 39.109375 41.421875 37.59375 
Q 38.71875 36.078125 34.90625 35.296875 
L 34.90625 35.109375 
Q 39.0625 34.671875 42.140625 33.21875 
Q 45.21875 31.78125 47.21875 29.625 
Q 49.21875 27.484375 50.21875 24.75 
Q 51.21875 22.015625 51.21875 19 
z
" id="LiberationSans-33"/>
      </defs>
      <g style="fill:#262626;" transform="translate(20.7135 186.515758)scale(0.16 -0.16)">
       <use xlink:href="#LiberationSans-33"/>
      </g>
     </g>
    </g>
    <g id="ytick_5">
     <g id="line2d_19">
      <path clip-path="url(#p6416d55fb7)" d="M 40.811 144.936343 
L 421.8445 144.936343 
" style="fill:none;stroke:#cccccc;stroke-linecap:round;stroke-width:1.6;"/>
     </g>
     <g id="line2d_20"/>
     <g id="text_11">
      <!-- 4 -->
      <g style="fill:#262626;" transform="translate(20.7135 150.733843)scale(0.16 -0.16)">
       <use xlink:href="#LiberationSans-34"/>
      </g>
     </g>
    </g>
    <g id="ytick_6">
     <g id="line2d_21">
      <path clip-path="url(#p6416d55fb7)" d="M 40.811 109.154429 
L 421.8445 109.154429 
" style="fill:none;stroke:#cccccc;stroke-linecap:round;stroke-width:1.6;"/>
     </g>
     <g id="line2d_22"/>
     <g id="text_12">
      <!-- 5 -->
      <defs>
       <path d="M 51.421875 22.40625 
Q 51.421875 17.234375 49.859375 12.9375 
Q 48.296875 8.640625 45.21875 5.53125 
Q 42.140625 2.4375 37.578125 0.71875 
Q 33.015625 -0.984375 27 -0.984375 
Q 21.578125 -0.984375 17.546875 0.28125 
Q 13.53125 1.5625 10.734375 3.78125 
Q 7.953125 6 6.3125 8.984375 
Q 4.6875 11.96875 4 15.375 
L 12.890625 16.40625 
Q 13.421875 14.453125 14.390625 12.625 
Q 15.375 10.796875 17.0625 9.34375 
Q 18.75 7.90625 21.21875 7.046875 
Q 23.6875 6.203125 27.203125 6.203125 
Q 30.609375 6.203125 33.390625 7.25 
Q 36.1875 8.296875 38.15625 10.34375 
Q 40.140625 12.40625 41.203125 15.375 
Q 42.28125 18.359375 42.28125 22.21875 
Q 42.28125 25.390625 41.25 28.046875 
Q 40.234375 30.71875 38.328125 32.640625 
Q 36.421875 34.578125 33.65625 35.640625 
Q 30.90625 36.71875 27.390625 36.71875 
Q 25.203125 36.71875 23.34375 36.328125 
Q 21.484375 35.9375 19.890625 35.25 
Q 18.3125 34.578125 17.015625 33.671875 
Q 15.71875 32.765625 14.59375 31.78125 
L 6 31.78125 
L 8.296875 68.796875 
L 47.40625 68.796875 
L 47.40625 61.328125 
L 16.3125 61.328125 
L 14.984375 39.5 
Q 17.328125 41.3125 20.84375 42.59375 
Q 24.359375 43.890625 29.203125 43.890625 
Q 34.328125 43.890625 38.421875 42.328125 
Q 42.53125 40.765625 45.40625 37.90625 
Q 48.296875 35.0625 49.859375 31.109375 
Q 51.421875 27.15625 51.421875 22.40625 
z
" id="LiberationSans-35"/>
      </defs>
      <g style="fill:#262626;" transform="translate(20.7135 114.951929)scale(0.16 -0.16)">
       <use xlink:href="#LiberationSans-35"/>
      </g>
     </g>
    </g>
    <g id="ytick_7">
     <g id="line2d_23">
      <path clip-path="url(#p6416d55fb7)" d="M 40.811 73.372515 
L 421.8445 73.372515 
" style="fill:none;stroke:#cccccc;stroke-linecap:round;stroke-width:1.6;"/>
     </g>
     <g id="line2d_24"/>
     <g id="text_13">
      <!-- 6 -->
      <defs>
       <path d="M 51.21875 22.515625 
Q 51.21875 17.328125 49.78125 13 
Q 48.34375 8.6875 45.53125 5.578125 
Q 42.71875 2.484375 38.5625 0.75 
Q 34.421875 -0.984375 29 -0.984375 
Q 23 -0.984375 18.5 1.3125 
Q 14.015625 3.609375 11.03125 7.921875 
Q 8.0625 12.25 6.5625 18.53125 
Q 5.078125 24.8125 5.078125 32.8125 
Q 5.078125 42 6.765625 48.921875 
Q 8.453125 55.859375 11.625 60.5 
Q 14.796875 65.140625 19.359375 67.484375 
Q 23.921875 69.828125 29.6875 69.828125 
Q 33.203125 69.828125 36.28125 69.09375 
Q 39.359375 68.359375 41.875 66.71875 
Q 44.390625 65.09375 46.28125 62.40625 
Q 48.1875 59.71875 49.3125 55.8125 
L 40.921875 54.296875 
Q 39.546875 58.734375 36.546875 60.71875 
Q 33.546875 62.703125 29.59375 62.703125 
Q 25.984375 62.703125 23.046875 60.984375 
Q 20.125 59.28125 18.0625 55.875 
Q 16.015625 52.484375 14.90625 47.359375 
Q 13.8125 42.234375 13.8125 35.40625 
Q 16.21875 39.84375 20.5625 42.15625 
Q 24.90625 44.484375 30.515625 44.484375 
Q 35.203125 44.484375 39.015625 42.96875 
Q 42.828125 41.453125 45.53125 38.59375 
Q 48.25 35.75 49.734375 31.671875 
Q 51.21875 27.59375 51.21875 22.515625 
z
M 42.28125 22.125 
Q 42.28125 25.6875 41.40625 28.5625 
Q 40.53125 31.453125 38.765625 33.46875 
Q 37.015625 35.5 34.421875 36.59375 
Q 31.84375 37.703125 28.421875 37.703125 
Q 26.03125 37.703125 23.578125 36.984375 
Q 21.140625 36.28125 19.15625 34.6875 
Q 17.1875 33.109375 15.9375 30.515625 
Q 14.703125 27.9375 14.703125 24.21875 
Q 14.703125 20.40625 15.671875 17.109375 
Q 16.65625 13.8125 18.484375 11.375 
Q 20.3125 8.9375 22.890625 7.515625 
Q 25.484375 6.109375 28.71875 6.109375 
Q 31.890625 6.109375 34.40625 7.203125 
Q 36.921875 8.296875 38.671875 10.375 
Q 40.4375 12.453125 41.359375 15.421875 
Q 42.28125 18.40625 42.28125 22.125 
z
" id="LiberationSans-36"/>
      </defs>
      <g style="fill:#262626;" transform="translate(20.7135 79.170015)scale(0.16 -0.16)">
       <use xlink:href="#LiberationSans-36"/>
      </g>
     </g>
    </g>
   </g>
   <g id="patch_3">
    <path clip-path="url(#p6416d55fb7)" d="M 78.552797 288.064 
L 84.891841 288.064 
L 84.891841 288.016444 
L 78.552797 288.016444 
z
" style="fill:#ff8c00;opacity:0.4;"/>
   </g>
   <g id="patch_4">
    <path clip-path="url(#p6416d55fb7)" d="M 84.891841 288.064 
L 91.230885 288.064 
L 91.230885 287.921331 
L 84.891841 287.921331 
z
" style="fill:#ff8c00;opacity:0.4;"/>
   </g>
   <g id="patch_5">
    <path clip-path="url(#p6416d55fb7)" d="M 91.230885 288.064 
L 97.569929 288.064 
L 97.569929 287.403495 
L 91.230885 287.403495 
z
" style="fill:#ff8c00;opacity:0.4;"/>
   </g>
   <g id="patch_6">
    <path clip-path="url(#p6416d55fb7)" d="M 97.569929 288.064 
L 103.908973 288.064 
L 103.908973 287.054748 
L 97.569929 287.054748 
z
" style="fill:#ff8c00;opacity:0.4;"/>
   </g>
   <g id="patch_7">
    <path clip-path="url(#p6416d55fb7)" d="M 103.908973 288.064 
L 110.248017 288.064 
L 110.248017 286.663729 
L 103.908973 286.663729 
z
" style="fill:#ff8c00;opacity:0.4;"/>
   </g>
   <g id="patch_8">
    <path clip-path="url(#p6416d55fb7)" d="M 110.248017 288.064 
L 116.587061 288.064 
L 116.587061 285.770726 
L 110.248017 285.770726 
z
" style="fill:#ff8c00;opacity:0.4;"/>
   </g>
   <g id="patch_9">
    <path clip-path="url(#p6416d55fb7)" d="M 116.587061 288.064 
L 122.926105 288.064 
L 122.926105 285.141925 
L 116.587061 285.141925 
z
" style="fill:#ff8c00;opacity:0.4;"/>
   </g>
   <g id="patch_10">
    <path clip-path="url(#p6416d55fb7)" d="M 122.926105 288.064 
L 129.265149 288.064 
L 129.265149 283.577848 
L 122.926105 283.577848 
z
" style="fill:#ff8c00;opacity:0.4;"/>
   </g>
   <g id="patch_11">
    <path clip-path="url(#p6416d55fb7)" d="M 129.265149 288.064 
L 135.604193 288.064 
L 135.604193 281.289858 
L 129.265149 281.289858 
z
" style="fill:#ff8c00;opacity:0.4;"/>
   </g>
   <g id="patch_12">
    <path clip-path="url(#p6416d55fb7)" d="M 135.604193 288.064 
L 141.943237 288.064 
L 141.943237 279.398171 
L 135.604193 279.398171 
z
" style="fill:#ff8c00;opacity:0.4;"/>
   </g>
   <g id="patch_13">
    <path clip-path="url(#p6416d55fb7)" d="M 141.943237 288.064 
L 148.282281 288.064 
L 148.282281 277.115465 
L 141.943237 277.115465 
z
" style="fill:#ff8c00;opacity:0.4;"/>
   </g>
   <g id="patch_14">
    <path clip-path="url(#p6416d55fb7)" d="M 148.282281 288.064 
L 154.621325 288.064 
L 154.621325 272.661017 
L 148.282281 272.661017 
z
" style="fill:#ff8c00;opacity:0.4;"/>
   </g>
   <g id="patch_15">
    <path clip-path="url(#p6416d55fb7)" d="M 154.621325 288.064 
L 160.96037 288.064 
L 160.96037 267.894812 
L 154.621325 267.894812 
z
" style="fill:#ff8c00;opacity:0.4;"/>
   </g>
   <g id="patch_16">
    <path clip-path="url(#p6416d55fb7)" d="M 160.96037 288.064 
L 167.299414 288.064 
L 167.299414 260.840615 
L 160.96037 260.840615 
z
" style="fill:#ff8c00;opacity:0.4;"/>
   </g>
   <g id="patch_17">
    <path clip-path="url(#p6416d55fb7)" d="M 167.299414 288.064 
L 173.638458 288.064 
L 173.638458 253.300287 
L 167.299414 253.300287 
z
" style="fill:#ff8c00;opacity:0.4;"/>
   </g>
   <g id="patch_18">
    <path clip-path="url(#p6416d55fb7)" d="M 173.638458 288.064 
L 179.977502 288.064 
L 179.977502 242.864304 
L 173.638458 242.864304 
z
" style="fill:#ff8c00;opacity:0.4;"/>
   </g>
   <g id="patch_19">
    <path clip-path="url(#p6416d55fb7)" d="M 179.977502 288.064 
L 186.316546 288.064 
L 186.316546 228.290916 
L 179.977502 228.290916 
z
" style="fill:#ff8c00;opacity:0.4;"/>
   </g>
   <g id="patch_20">
    <path clip-path="url(#p6416d55fb7)" d="M 186.316546 288.064 
L 192.65559 288.064 
L 192.65559 212.755833 
L 186.316546 212.755833 
z
" style="fill:#ff8c00;opacity:0.4;"/>
   </g>
   <g id="patch_21">
    <path clip-path="url(#p6416d55fb7)" d="M 192.65559 288.064 
L 198.994634 288.064 
L 198.994634 193.759702 
L 192.65559 193.759702 
z
" style="fill:#ff8c00;opacity:0.4;"/>
   </g>
   <g id="patch_22">
    <path clip-path="url(#p6416d55fb7)" d="M 198.994634 288.064 
L 205.333678 288.064 
L 205.333678 178.076665 
L 198.994634 178.076665 
z
" style="fill:#ff8c00;opacity:0.4;"/>
   </g>
   <g id="patch_23">
    <path clip-path="url(#p6416d55fb7)" d="M 205.333678 288.064 
L 211.672722 288.064 
L 211.672722 165.183602 
L 205.333678 165.183602 
z
" style="fill:#ff8c00;opacity:0.4;"/>
   </g>
   <g id="patch_24">
    <path clip-path="url(#p6416d55fb7)" d="M 211.672722 288.064 
L 218.011766 288.064 
L 218.011766 154.150523 
L 211.672722 154.150523 
z
" style="fill:#ff8c00;opacity:0.4;"/>
   </g>
   <g id="patch_25">
    <path clip-path="url(#p6416d55fb7)" d="M 218.011766 288.064 
L 224.35081 288.064 
L 224.35081 148.596994 
L 218.011766 148.596994 
z
" style="fill:#ff8c00;opacity:0.4;"/>
   </g>
   <g id="patch_26">
    <path clip-path="url(#p6416d55fb7)" d="M 224.35081 288.064 
L 230.689854 288.064 
L 230.689854 143.238976 
L 224.35081 143.238976 
z
" style="fill:#ff8c00;opacity:0.4;"/>
   </g>
   <g id="patch_27">
    <path clip-path="url(#p6416d55fb7)" d="M 230.689854 288.064 
L 237.028898 288.064 
L 237.028898 143.862493 
L 230.689854 143.862493 
z
" style="fill:#ff8c00;opacity:0.4;"/>
   </g>
   <g id="patch_28">
    <path clip-path="url(#p6416d55fb7)" d="M 237.028898 288.064 
L 243.367942 288.064 
L 243.367942 145.326172 
L 237.028898 145.326172 
z
" style="fill:#ff8c00;opacity:0.4;"/>
   </g>
   <g id="patch_29">
    <path clip-path="url(#p6416d55fb7)" d="M 243.367942 288.064 
L 249.706987 288.064 
L 249.706987 152.147871 
L 243.367942 152.147871 
z
" style="fill:#ff8c00;opacity:0.4;"/>
   </g>
   <g id="patch_30">
    <path clip-path="url(#p6416d55fb7)" d="M 249.706987 288.064 
L 256.046031 288.064 
L 256.046031 164.903548 
L 249.706987 164.903548 
z
" style="fill:#ff8c00;opacity:0.4;"/>
   </g>
   <g id="patch_31">
    <path clip-path="url(#p6416d55fb7)" d="M 256.046031 288.064 
L 262.385075 288.064 
L 262.385075 176.570713 
L 256.046031 176.570713 
z
" style="fill:#ff8c00;opacity:0.4;"/>
   </g>
   <g id="patch_32">
    <path clip-path="url(#p6416d55fb7)" d="M 262.385075 288.064 
L 268.724119 288.064 
L 268.724119 191.133533 
L 262.385075 191.133533 
z
" style="fill:#ff8c00;opacity:0.4;"/>
   </g>
   <g id="patch_33">
    <path clip-path="url(#p6416d55fb7)" d="M 268.724119 288.064 
L 275.063163 288.064 
L 275.063163 205.421583 
L 268.724119 205.421583 
z
" style="fill:#ff8c00;opacity:0.4;"/>
   </g>
   <g id="patch_34">
    <path clip-path="url(#p6416d55fb7)" d="M 275.063163 288.064 
L 281.402207 288.064 
L 281.402207 219.746621 
L 275.063163 219.746621 
z
" style="fill:#ff8c00;opacity:0.4;"/>
   </g>
   <g id="patch_35">
    <path clip-path="url(#p6416d55fb7)" d="M 281.402207 288.064 
L 287.741251 288.064 
L 287.741251 233.035986 
L 281.402207 233.035986 
z
" style="fill:#ff8c00;opacity:0.4;"/>
   </g>
   <g id="patch_36">
    <path clip-path="url(#p6416d55fb7)" d="M 287.741251 288.064 
L 294.080295 288.064 
L 294.080295 244.090202 
L 287.741251 244.090202 
z
" style="fill:#ff8c00;opacity:0.4;"/>
   </g>
   <g id="patch_37">
    <path clip-path="url(#p6416d55fb7)" d="M 294.080295 288.064 
L 300.419339 288.064 
L 300.419339 253.759999 
L 294.080295 253.759999 
z
" style="fill:#ff8c00;opacity:0.4;"/>
   </g>
   <g id="patch_38">
    <path clip-path="url(#p6416d55fb7)" d="M 300.419339 288.064 
L 306.758383 288.064 
L 306.758383 263.836667 
L 300.419339 263.836667 
z
" style="fill:#ff8c00;opacity:0.4;"/>
   </g>
   <g id="patch_39">
    <path clip-path="url(#p6416d55fb7)" d="M 306.758383 288.064 
L 313.097427 288.064 
L 313.097427 270.351891 
L 306.758383 270.351891 
z
" style="fill:#ff8c00;opacity:0.4;"/>
   </g>
   <g id="patch_40">
    <path clip-path="url(#p6416d55fb7)" d="M 313.097427 288.064 
L 319.436471 288.064 
L 319.436471 275.646501 
L 313.097427 275.646501 
z
" style="fill:#ff8c00;opacity:0.4;"/>
   </g>
   <g id="patch_41">
    <path clip-path="url(#p6416d55fb7)" d="M 319.436471 288.064 
L 325.775515 288.064 
L 325.775515 280.069244 
L 319.436471 280.069244 
z
" style="fill:#ff8c00;opacity:0.4;"/>
   </g>
   <g id="patch_42">
    <path clip-path="url(#p6416d55fb7)" d="M 325.775515 288.064 
L 332.11456 288.064 
L 332.11456 282.357235 
L 325.775515 282.357235 
z
" style="fill:#ff8c00;opacity:0.4;"/>
   </g>
   <g id="patch_43">
    <path clip-path="url(#p6416d55fb7)" d="M 332.11456 288.064 
L 338.453604 288.064 
L 338.453604 284.349318 
L 332.11456 284.349318 
z
" style="fill:#ff8c00;opacity:0.4;"/>
   </g>
   <g id="patch_44">
    <path clip-path="url(#p6416d55fb7)" d="M 338.453604 288.064 
L 344.792648 288.064 
L 344.792648 285.622773 
L 338.453604 285.622773 
z
" style="fill:#ff8c00;opacity:0.4;"/>
   </g>
   <g id="patch_45">
    <path clip-path="url(#p6416d55fb7)" d="M 344.792648 288.064 
L 351.131692 288.064 
L 351.131692 286.49464 
L 344.792648 286.49464 
z
" style="fill:#ff8c00;opacity:0.4;"/>
   </g>
   <g id="patch_46">
    <path clip-path="url(#p6416d55fb7)" d="M 351.131692 288.064 
L 357.470736 288.064 
L 357.470736 287.054748 
L 351.131692 287.054748 
z
" style="fill:#ff8c00;opacity:0.4;"/>
   </g>
   <g id="patch_47">
    <path clip-path="url(#p6416d55fb7)" d="M 357.470736 288.064 
L 363.80978 288.064 
L 363.80978 287.408779 
L 357.470736 287.408779 
z
" style="fill:#ff8c00;opacity:0.4;"/>
   </g>
   <g id="patch_48">
    <path clip-path="url(#p6416d55fb7)" d="M 363.80978 288.064 
L 370.148824 288.064 
L 370.148824 287.641277 
L 363.80978 287.641277 
z
" style="fill:#ff8c00;opacity:0.4;"/>
   </g>
   <g id="patch_49">
    <path clip-path="url(#p6416d55fb7)" d="M 370.148824 288.064 
L 376.487868 288.064 
L 376.487868 287.879059 
L 370.148824 287.879059 
z
" style="fill:#ff8c00;opacity:0.4;"/>
   </g>
   <g id="patch_50">
    <path clip-path="url(#p6416d55fb7)" d="M 376.487868 288.064 
L 382.826912 288.064 
L 382.826912 287.937183 
L 376.487868 287.937183 
z
" style="fill:#ff8c00;opacity:0.4;"/>
   </g>
   <g id="patch_51">
    <path clip-path="url(#p6416d55fb7)" d="M 382.826912 288.064 
L 389.165956 288.064 
L 389.165956 288.01116 
L 382.826912 288.01116 
z
" style="fill:#ff8c00;opacity:0.4;"/>
   </g>
   <g id="patch_52">
    <path clip-path="url(#p6416d55fb7)" d="M 389.165956 288.064 
L 395.505 288.064 
L 395.505 288.048148 
L 389.165956 288.048148 
z
" style="fill:#ff8c00;opacity:0.4;"/>
   </g>
   <g id="patch_53">
    <path clip-path="url(#p6416d55fb7)" d="M 122.996616 288.064 
L 128.170713 288.064 
L 128.170713 287.979841 
L 122.996616 287.979841 
z
" style="fill:#9400d3;opacity:0.4;"/>
   </g>
   <g id="patch_54">
    <path clip-path="url(#p6416d55fb7)" d="M 128.170713 288.064 
L 133.34481 288.064 
L 133.34481 287.921578 
L 128.170713 287.921578 
z
" style="fill:#9400d3;opacity:0.4;"/>
   </g>
   <g id="patch_55">
    <path clip-path="url(#p6416d55fb7)" d="M 133.34481 288.064 
L 138.518906 288.064 
L 138.518906 287.817998 
L 133.34481 287.817998 
z
" style="fill:#9400d3;opacity:0.4;"/>
   </g>
   <g id="patch_56">
    <path clip-path="url(#p6416d55fb7)" d="M 138.518906 288.064 
L 143.693003 288.064 
L 143.693003 287.617312 
L 138.518906 287.617312 
z
" style="fill:#9400d3;opacity:0.4;"/>
   </g>
   <g id="patch_57">
    <path clip-path="url(#p6416d55fb7)" d="M 143.693003 288.064 
L 148.8671 288.064 
L 148.8671 287.002306 
L 143.693003 287.002306 
z
" style="fill:#9400d3;opacity:0.4;"/>
   </g>
   <g id="patch_58">
    <path clip-path="url(#p6416d55fb7)" d="M 148.8671 288.064 
L 154.041197 288.064 
L 154.041197 285.662241 
L 148.8671 285.662241 
z
" style="fill:#9400d3;opacity:0.4;"/>
   </g>
   <g id="patch_59">
    <path clip-path="url(#p6416d55fb7)" d="M 154.041197 288.064 
L 159.215294 288.064 
L 159.215294 283.020954 
L 154.041197 283.020954 
z
" style="fill:#9400d3;opacity:0.4;"/>
   </g>
   <g id="patch_60">
    <path clip-path="url(#p6416d55fb7)" d="M 159.215294 288.064 
L 164.38939 288.064 
L 164.38939 279.53808 
L 159.215294 279.53808 
z
" style="fill:#9400d3;opacity:0.4;"/>
   </g>
   <g id="patch_61">
    <path clip-path="url(#p6416d55fb7)" d="M 164.38939 288.064 
L 169.563487 288.064 
L 169.563487 275.200672 
L 164.38939 275.200672 
z
" style="fill:#9400d3;opacity:0.4;"/>
   </g>
   <g id="patch_62">
    <path clip-path="url(#p6416d55fb7)" d="M 169.563487 288.064 
L 174.737584 288.064 
L 174.737584 269.756253 
L 169.563487 269.756253 
z
" style="fill:#9400d3;opacity:0.4;"/>
   </g>
   <g id="patch_63">
    <path clip-path="url(#p6416d55fb7)" d="M 174.737584 288.064 
L 179.911681 288.064 
L 179.911681 261.644653 
L 174.737584 261.644653 
z
" style="fill:#9400d3;opacity:0.4;"/>
   </g>
   <g id="patch_64">
    <path clip-path="url(#p6416d55fb7)" d="M 179.911681 288.064 
L 185.085777 288.064 
L 185.085777 249.18917 
L 179.911681 249.18917 
z
" style="fill:#9400d3;opacity:0.4;"/>
   </g>
   <g id="patch_65">
    <path clip-path="url(#p6416d55fb7)" d="M 185.085777 288.064 
L 190.259874 288.064 
L 190.259874 231.606483 
L 185.085777 231.606483 
z
" style="fill:#9400d3;opacity:0.4;"/>
   </g>
   <g id="patch_66">
    <path clip-path="url(#p6416d55fb7)" d="M 190.259874 288.064 
L 195.433971 288.064 
L 195.433971 209.149067 
L 190.259874 209.149067 
z
" style="fill:#9400d3;opacity:0.4;"/>
   </g>
   <g id="patch_67">
    <path clip-path="url(#p6416d55fb7)" d="M 195.433971 288.064 
L 200.608068 288.064 
L 200.608068 186.808178 
L 195.433971 186.808178 
z
" style="fill:#9400d3;opacity:0.4;"/>
   </g>
   <g id="patch_68">
    <path clip-path="url(#p6416d55fb7)" d="M 200.608068 288.064 
L 205.782165 288.064 
L 205.782165 159.443664 
L 200.608068 159.443664 
z
" style="fill:#9400d3;opacity:0.4;"/>
   </g>
   <g id="patch_69">
    <path clip-path="url(#p6416d55fb7)" d="M 205.782165 288.064 
L 210.956261 288.064 
L 210.956261 133.069634 
L 205.782165 133.069634 
z
" style="fill:#9400d3;opacity:0.4;"/>
   </g>
   <g id="patch_70">
    <path clip-path="url(#p6416d55fb7)" d="M 210.956261 288.064 
L 216.130358 288.064 
L 216.130358 111.130117 
L 210.956261 111.130117 
z
" style="fill:#9400d3;opacity:0.4;"/>
   </g>
   <g id="patch_71">
    <path clip-path="url(#p6416d55fb7)" d="M 216.130358 288.064 
L 221.304455 288.064 
L 221.304455 94.382542 
L 216.130358 94.382542 
z
" style="fill:#9400d3;opacity:0.4;"/>
   </g>
   <g id="patch_72">
    <path clip-path="url(#p6416d55fb7)" d="M 221.304455 288.064 
L 226.478552 288.064 
L 226.478552 89.60492 
L 221.304455 89.60492 
z
" style="fill:#9400d3;opacity:0.4;"/>
   </g>
   <g id="patch_73">
    <path clip-path="url(#p6416d55fb7)" d="M 226.478552 288.064 
L 231.652649 288.064 
L 231.652649 88.090064 
L 226.478552 88.090064 
z
" style="fill:#9400d3;opacity:0.4;"/>
   </g>
   <g id="patch_74">
    <path clip-path="url(#p6416d55fb7)" d="M 231.652649 288.064 
L 236.826745 288.064 
L 236.826745 93.02953 
L 231.652649 93.02953 
z
" style="fill:#9400d3;opacity:0.4;"/>
   </g>
   <g id="patch_75">
    <path clip-path="url(#p6416d55fb7)" d="M 236.826745 288.064 
L 242.000842 288.064 
L 242.000842 102.863146 
L 236.826745 102.863146 
z
" style="fill:#9400d3;opacity:0.4;"/>
   </g>
   <g id="patch_76">
    <path clip-path="url(#p6416d55fb7)" d="M 242.000842 288.064 
L 247.174939 288.064 
L 247.174939 117.778651 
L 242.000842 117.778651 
z
" style="fill:#9400d3;opacity:0.4;"/>
   </g>
   <g id="patch_77">
    <path clip-path="url(#p6416d55fb7)" d="M 247.174939 288.064 
L 252.349036 288.064 
L 252.349036 134.047169 
L 247.174939 134.047169 
z
" style="fill:#9400d3;opacity:0.4;"/>
   </g>
   <g id="patch_78">
    <path clip-path="url(#p6416d55fb7)" d="M 252.349036 288.064 
L 257.523133 288.064 
L 257.523133 155.805421 
L 252.349036 155.805421 
z
" style="fill:#9400d3;opacity:0.4;"/>
   </g>
   <g id="patch_79">
    <path clip-path="url(#p6416d55fb7)" d="M 257.523133 288.064 
L 262.697229 288.064 
L 262.697229 182.910985 
L 257.523133 182.910985 
z
" style="fill:#9400d3;opacity:0.4;"/>
   </g>
   <g id="patch_80">
    <path clip-path="url(#p6416d55fb7)" d="M 262.697229 288.064 
L 267.871326 288.064 
L 267.871326 205.944564 
L 262.697229 205.944564 
z
" style="fill:#9400d3;opacity:0.4;"/>
   </g>
   <g id="patch_81">
    <path clip-path="url(#p6416d55fb7)" d="M 267.871326 288.064 
L 273.045423 288.064 
L 273.045423 225.378742 
L 267.871326 225.378742 
z
" style="fill:#9400d3;opacity:0.4;"/>
   </g>
   <g id="patch_82">
    <path clip-path="url(#p6416d55fb7)" d="M 273.045423 288.064 
L 278.21952 288.064 
L 278.21952 239.122499 
L 273.045423 239.122499 
z
" style="fill:#9400d3;opacity:0.4;"/>
   </g>
   <g id="patch_83">
    <path clip-path="url(#p6416d55fb7)" d="M 278.21952 288.064 
L 283.393616 288.064 
L 283.393616 250.956502 
L 278.21952 250.956502 
z
" style="fill:#9400d3;opacity:0.4;"/>
   </g>
   <g id="patch_84">
    <path clip-path="url(#p6416d55fb7)" d="M 283.393616 288.064 
L 288.567713 288.064 
L 288.567713 260.693013 
L 283.393616 260.693013 
z
" style="fill:#9400d3;opacity:0.4;"/>
   </g>
   <g id="patch_85">
    <path clip-path="url(#p6416d55fb7)" d="M 288.567713 288.064 
L 293.74181 288.064 
L 293.74181 267.283283 
L 288.567713 267.283283 
z
" style="fill:#9400d3;opacity:0.4;"/>
   </g>
   <g id="patch_86">
    <path clip-path="url(#p6416d55fb7)" d="M 293.74181 288.064 
L 298.915907 288.064 
L 298.915907 273.990082 
L 293.74181 273.990082 
z
" style="fill:#9400d3;opacity:0.4;"/>
   </g>
   <g id="patch_87">
    <path clip-path="url(#p6416d55fb7)" d="M 298.915907 288.064 
L 304.090004 288.064 
L 304.090004 277.803117 
L 298.915907 277.803117 
z
" style="fill:#9400d3;opacity:0.4;"/>
   </g>
   <g id="patch_88">
    <path clip-path="url(#p6416d55fb7)" d="M 304.090004 288.064 
L 309.2641 288.064 
L 309.2641 281.59673 
L 304.090004 281.59673 
z
" style="fill:#9400d3;opacity:0.4;"/>
   </g>
   <g id="patch_89">
    <path clip-path="url(#p6416d55fb7)" d="M 309.2641 288.064 
L 314.438197 288.064 
L 314.438197 283.396431 
L 309.2641 283.396431 
z
" style="fill:#9400d3;opacity:0.4;"/>
   </g>
   <g id="patch_90">
    <path clip-path="url(#p6416d55fb7)" d="M 314.438197 288.064 
L 319.612294 288.064 
L 319.612294 284.878918 
L 314.438197 284.878918 
z
" style="fill:#9400d3;opacity:0.4;"/>
   </g>
   <g id="patch_91">
    <path clip-path="url(#p6416d55fb7)" d="M 319.612294 288.064 
L 324.786391 288.064 
L 324.786391 285.804664 
L 319.612294 285.804664 
z
" style="fill:#9400d3;opacity:0.4;"/>
   </g>
   <g id="patch_92">
    <path clip-path="url(#p6416d55fb7)" d="M 324.786391 288.064 
L 329.960488 288.064 
L 329.960488 286.626829 
L 324.786391 286.626829 
z
" style="fill:#9400d3;opacity:0.4;"/>
   </g>
   <g id="patch_93">
    <path clip-path="url(#p6416d55fb7)" d="M 329.960488 288.064 
L 335.134584 288.064 
L 335.134584 287.21594 
L 329.960488 287.21594 
z
" style="fill:#9400d3;opacity:0.4;"/>
   </g>
   <g id="patch_94">
    <path clip-path="url(#p6416d55fb7)" d="M 335.134584 288.064 
L 340.308681 288.064 
L 340.308681 287.448994 
L 335.134584 287.448994 
z
" style="fill:#9400d3;opacity:0.4;"/>
   </g>
   <g id="patch_95">
    <path clip-path="url(#p6416d55fb7)" d="M 340.308681 288.064 
L 345.482778 288.064 
L 345.482778 287.591417 
L 340.308681 287.591417 
z
" style="fill:#9400d3;opacity:0.4;"/>
   </g>
   <g id="patch_96">
    <path clip-path="url(#p6416d55fb7)" d="M 345.482778 288.064 
L 350.656875 288.064 
L 350.656875 287.64968 
L 345.482778 287.64968 
z
" style="fill:#9400d3;opacity:0.4;"/>
   </g>
   <g id="patch_97">
    <path clip-path="url(#p6416d55fb7)" d="M 350.656875 288.064 
L 355.830972 288.064 
L 355.830972 287.759734 
L 350.656875 287.759734 
z
" style="fill:#9400d3;opacity:0.4;"/>
   </g>
   <g id="patch_98">
    <path clip-path="url(#p6416d55fb7)" d="M 355.830972 288.064 
L 361.005068 288.064 
L 361.005068 287.895683 
L 355.830972 287.895683 
z
" style="fill:#9400d3;opacity:0.4;"/>
   </g>
   <g id="patch_99">
    <path clip-path="url(#p6416d55fb7)" d="M 361.005068 288.064 
L 366.179165 288.064 
L 366.179165 287.869788 
L 361.005068 287.869788 
z
" style="fill:#9400d3;opacity:0.4;"/>
   </g>
   <g id="patch_100">
    <path clip-path="url(#p6416d55fb7)" d="M 366.179165 288.064 
L 371.353262 288.064 
L 371.353262 287.940999 
L 366.179165 287.940999 
z
" style="fill:#9400d3;opacity:0.4;"/>
   </g>
   <g id="patch_101">
    <path clip-path="url(#p6416d55fb7)" d="M 371.353262 288.064 
L 376.527359 288.064 
L 376.527359 288.01221 
L 371.353262 288.01221 
z
" style="fill:#9400d3;opacity:0.4;"/>
   </g>
   <g id="patch_102">
    <path clip-path="url(#p6416d55fb7)" d="M 376.527359 288.064 
L 381.701455 288.064 
L 381.701455 288.025158 
L 376.527359 288.025158 
z
" style="fill:#9400d3;opacity:0.4;"/>
   </g>
   <g id="line2d_25">
    <path clip-path="url(#p6416d55fb7)" d="M 69.533001 288.063919 
L 85.359385 287.956702 
L 90.634847 287.707792 
L 101.185769 287.027468 
L 106.461231 286.664711 
L 111.736692 286.056412 
L 119.649884 285.030926 
L 124.925345 283.815765 
L 127.563076 283.120604 
L 140.751729 278.780595 
L 143.38946 277.704977 
L 146.027191 276.313333 
L 148.664921 274.658337 
L 153.940383 270.740424 
L 156.578113 268.694289 
L 159.215844 266.293576 
L 164.491305 260.628104 
L 167.129036 257.493283 
L 169.766767 254.047253 
L 172.404497 250.10038 
L 175.042228 245.666389 
L 177.679959 240.76411 
L 180.317689 235.197194 
L 185.59315 222.450183 
L 188.230881 215.684239 
L 193.506342 200.67364 
L 196.144073 193.236602 
L 198.781804 186.558664 
L 201.419534 180.299154 
L 204.057265 174.339391 
L 209.332726 163.549369 
L 211.970457 158.57167 
L 214.608188 154.622321 
L 217.245918 151.553814 
L 219.883649 149.159164 
L 225.15911 144.867892 
L 227.796841 143.78657 
L 230.434572 143.752589 
L 238.347764 144.902579 
L 240.985494 145.923832 
L 243.623225 148.310463 
L 246.260956 152.208962 
L 248.898686 157.001206 
L 254.174148 167.179347 
L 256.811878 172.087196 
L 259.449609 177.232779 
L 262.08734 182.803125 
L 264.72507 188.999145 
L 267.362801 195.546617 
L 270.000532 201.608761 
L 275.275993 213.05673 
L 280.551454 225.022825 
L 283.189185 230.382442 
L 291.102377 244.199222 
L 293.740108 248.531058 
L 299.015569 256.682373 
L 301.6533 260.837986 
L 304.29103 264.418661 
L 306.928761 267.347087 
L 309.566492 269.934067 
L 312.204222 272.302339 
L 314.841953 274.494361 
L 317.479684 276.530699 
L 320.117414 278.397057 
L 322.755145 279.923317 
L 325.392876 281.093618 
L 330.668337 282.963487 
L 333.306068 283.765189 
L 338.581529 285.022955 
L 341.21926 285.544345 
L 346.494721 286.269116 
L 357.045644 287.250605 
L 367.596566 287.668921 
L 372.872028 287.859495 
L 391.336142 288.04379 
L 404.524795 288.063946 
L 404.524795 288.063946 
" style="fill:none;stroke:#ff8c00;stroke-linecap:round;stroke-width:2.8;"/>
   </g>
   <g id="line2d_26">
    <path clip-path="url(#p6416d55fb7)" d="M 116.474196 288.06385 
L 129.312764 287.952783 
L 140.01157 287.687021 
L 144.291092 287.262447 
L 146.430854 286.956661 
L 148.570615 286.498762 
L 150.710376 285.839717 
L 152.850138 284.944045 
L 154.989899 283.886848 
L 157.12966 282.700283 
L 159.269421 281.316123 
L 163.548944 278.158532 
L 167.828466 274.324317 
L 169.968228 272.218534 
L 172.107989 269.738894 
L 174.24775 266.792244 
L 176.387511 263.265997 
L 178.527273 258.853388 
L 180.667034 253.816442 
L 182.806795 248.377789 
L 184.946556 241.732555 
L 187.086318 233.644335 
L 191.36584 215.558147 
L 197.785124 187.382201 
L 199.924885 176.776118 
L 204.204408 154.463111 
L 208.48393 132.97196 
L 210.623691 123.339435 
L 212.763453 114.252551 
L 214.903214 105.926357 
L 217.042975 99.074466 
L 219.182736 94.065398 
L 221.322498 91.127467 
L 223.462259 89.832273 
L 225.60202 89.551116 
L 227.741781 89.011935 
L 229.881543 88.889187 
L 232.021304 90.360562 
L 234.161065 92.769518 
L 236.300826 96.255355 
L 238.440588 100.825674 
L 240.580349 106.155668 
L 242.72011 111.914132 
L 244.859871 118.441257 
L 246.999633 125.654878 
L 251.279155 139.166007 
L 253.418916 148.079121 
L 257.698439 171.032482 
L 261.977961 191.602699 
L 266.257484 209.699634 
L 268.397245 218.059616 
L 270.537006 225.379751 
L 272.676768 231.41724 
L 276.95629 242.357456 
L 281.235813 251.714844 
L 283.375574 256.149178 
L 285.515335 259.900107 
L 287.655096 262.990602 
L 296.214141 273.61565 
L 298.353903 275.629567 
L 304.773186 280.241035 
L 306.912948 281.514544 
L 311.19247 283.285333 
L 313.332231 284.006143 
L 315.471993 284.552588 
L 324.031038 286.075193 
L 330.450321 287.004934 
L 334.729844 287.309201 
L 343.288889 287.601019 
L 351.847934 287.706566 
L 358.267218 287.881314 
L 375.385308 288.003797 
L 388.223875 288.063913 
L 388.223875 288.063913 
" style="fill:none;stroke:#9400d3;stroke-linecap:round;stroke-width:2.8;"/>
   </g>
   <g id="patch_103">
    <path d="M 40.811 288.064 
L 40.811 39.736 
" style="fill:none;stroke:#cccccc;stroke-linecap:square;stroke-linejoin:miter;"/>
   </g>
   <g id="patch_104">
    <path d="M 40.811 288.064 
L 421.8445 288.064 
" style="fill:none;stroke:#cccccc;stroke-linecap:square;stroke-linejoin:miter;"/>
   </g>
   <g id="text_14">
    <!-- modality = VBM -->
    <defs>
     <path d="M 37.5 0 
L 37.5 33.5 
Q 37.5 37.359375 37.015625 39.9375 
Q 36.53125 42.53125 35.375 44.109375 
Q 34.234375 45.703125 32.375 46.359375 
Q 30.515625 47.015625 27.828125 47.015625 
Q 25.046875 47.015625 22.796875 45.921875 
Q 20.5625 44.828125 18.96875 42.75 
Q 17.390625 40.671875 16.53125 37.625 
Q 15.671875 34.578125 15.671875 30.609375 
L 15.671875 0 
L 6.9375 0 
L 6.9375 41.546875 
Q 6.9375 43.21875 6.90625 45.046875 
Q 6.890625 46.875 6.828125 48.5 
Q 6.78125 50.140625 6.734375 51.3125 
Q 6.6875 52.484375 6.640625 52.828125 
L 14.9375 52.828125 
Q 14.984375 52.59375 15.03125 51.515625 
Q 15.09375 50.4375 15.15625 49.046875 
Q 15.234375 47.65625 15.28125 46.21875 
Q 15.328125 44.78125 15.328125 43.796875 
L 15.484375 43.796875 
Q 16.65625 46.09375 18.015625 47.953125 
Q 19.390625 49.8125 21.21875 51.09375 
Q 23.046875 52.390625 25.40625 53.09375 
Q 27.78125 53.8125 30.90625 53.8125 
Q 36.921875 53.8125 40.40625 51.421875 
Q 43.890625 49.03125 45.265625 43.796875 
L 45.40625 43.796875 
Q 46.578125 46.09375 48.046875 47.953125 
Q 49.515625 49.8125 51.46875 51.09375 
Q 53.421875 52.390625 55.859375 53.09375 
Q 58.296875 53.8125 61.421875 53.8125 
Q 65.4375 53.8125 68.328125 52.734375 
Q 71.234375 51.65625 73.09375 49.40625 
Q 74.953125 47.171875 75.828125 43.625 
Q 76.703125 40.09375 76.703125 35.203125 
L 76.703125 0 
L 68.015625 0 
L 68.015625 33.5 
Q 68.015625 37.359375 67.53125 39.9375 
Q 67.046875 42.53125 65.890625 44.109375 
Q 64.75 45.703125 62.890625 46.359375 
Q 61.03125 47.015625 58.34375 47.015625 
Q 55.5625 47.015625 53.3125 45.96875 
Q 51.078125 44.921875 49.484375 42.875 
Q 47.90625 40.828125 47.046875 37.75 
Q 46.1875 34.671875 46.1875 30.609375 
L 46.1875 0 
z
" id="LiberationSans-6d"/>
     <path d="M 51.421875 26.46875 
Q 51.421875 12.59375 45.3125 5.796875 
Q 39.203125 -0.984375 27.59375 -0.984375 
Q 22.078125 -0.984375 17.71875 0.671875 
Q 13.375 2.34375 10.375 5.765625 
Q 7.375 9.1875 5.78125 14.328125 
Q 4.203125 19.484375 4.203125 26.46875 
Q 4.203125 53.8125 27.875 53.8125 
Q 34.03125 53.8125 38.5 52.09375 
Q 42.96875 50.390625 45.828125 46.96875 
Q 48.6875 43.5625 50.046875 38.421875 
Q 51.421875 33.296875 51.421875 26.46875 
z
M 42.1875 26.46875 
Q 42.1875 32.625 41.234375 36.625 
Q 40.28125 40.625 38.453125 43.015625 
Q 36.625 45.40625 33.984375 46.359375 
Q 31.34375 47.3125 28.03125 47.3125 
Q 24.65625 47.3125 21.9375 46.3125 
Q 19.234375 45.3125 17.328125 42.890625 
Q 15.4375 40.484375 14.421875 36.46875 
Q 13.421875 32.46875 13.421875 26.46875 
Q 13.421875 20.3125 14.5 16.28125 
Q 15.578125 12.25 17.453125 9.859375 
Q 19.34375 7.46875 21.90625 6.484375 
Q 24.46875 5.515625 27.484375 5.515625 
Q 30.859375 5.515625 33.59375 6.46875 
Q 36.328125 7.421875 38.234375 9.8125 
Q 40.140625 12.203125 41.15625 16.25 
Q 42.1875 20.3125 42.1875 26.46875 
z
" id="LiberationSans-6f"/>
     <path d="M 40.09375 8.5 
Q 37.640625 3.421875 33.609375 1.21875 
Q 29.59375 -0.984375 23.640625 -0.984375 
Q 13.625 -0.984375 8.90625 5.75 
Q 4.203125 12.5 4.203125 26.171875 
Q 4.203125 53.8125 23.640625 53.8125 
Q 29.640625 53.8125 33.640625 51.609375 
Q 37.640625 49.421875 40.09375 44.625 
L 40.1875 44.625 
Q 40.1875 45.125 40.15625 46.171875 
Q 40.140625 47.21875 40.109375 48.359375 
Q 40.09375 49.515625 40.09375 50.53125 
Q 40.09375 51.5625 40.09375 52 
L 40.09375 72.46875 
L 48.875 72.46875 
L 48.875 10.890625 
Q 48.875 8.984375 48.890625 7.21875 
Q 48.921875 5.46875 48.96875 4 
Q 49.03125 2.546875 49.078125 1.484375 
Q 49.125 0.4375 49.171875 0 
L 40.765625 0 
Q 40.671875 0.484375 40.59375 1.390625 
Q 40.53125 2.296875 40.453125 3.46875 
Q 40.375 4.640625 40.328125 5.9375 
Q 40.28125 7.234375 40.28125 8.5 
z
M 13.421875 26.46875 
Q 13.421875 21 14.109375 17.09375 
Q 14.796875 13.1875 16.3125 10.671875 
Q 17.828125 8.15625 20.171875 6.984375 
Q 22.515625 5.8125 25.875 5.8125 
Q 29.34375 5.8125 32 6.9375 
Q 34.671875 8.0625 36.453125 10.578125 
Q 38.234375 13.09375 39.15625 17.140625 
Q 40.09375 21.1875 40.09375 27.046875 
Q 40.09375 32.671875 39.15625 36.546875 
Q 38.234375 40.4375 36.421875 42.828125 
Q 34.625 45.21875 32 46.265625 
Q 29.390625 47.3125 25.984375 47.3125 
Q 22.75 47.3125 20.40625 46.1875 
Q 18.0625 45.0625 16.5 42.578125 
Q 14.9375 40.09375 14.171875 36.109375 
Q 13.421875 32.125 13.421875 26.46875 
z
" id="LiberationSans-64"/>
     <path d="M 20.21875 -0.984375 
Q 12.25 -0.984375 8.25 3.21875 
Q 4.25 7.421875 4.25 14.75 
Q 4.25 19.96875 6.21875 23.3125 
Q 8.203125 26.65625 11.390625 28.5625 
Q 14.59375 30.46875 18.6875 31.203125 
Q 22.796875 31.9375 27.046875 32.03125 
L 38.921875 32.234375 
L 38.921875 35.109375 
Q 38.921875 38.375 38.234375 40.671875 
Q 37.546875 42.96875 36.125 44.375 
Q 34.71875 45.796875 32.59375 46.453125 
Q 30.46875 47.125 27.59375 47.125 
Q 25.046875 47.125 23 46.75 
Q 20.953125 46.390625 19.4375 45.4375 
Q 17.921875 44.484375 16.984375 42.84375 
Q 16.0625 41.21875 15.765625 38.71875 
L 6.59375 39.546875 
Q 7.078125 42.671875 8.4375 45.28125 
Q 9.8125 47.90625 12.328125 49.796875 
Q 14.84375 51.703125 18.625 52.75 
Q 22.40625 53.8125 27.78125 53.8125 
Q 37.75 53.8125 42.765625 49.234375 
Q 47.796875 44.671875 47.796875 36.03125 
L 47.796875 13.28125 
Q 47.796875 9.375 48.828125 7.390625 
Q 49.859375 5.421875 52.734375 5.421875 
Q 53.46875 5.421875 54.203125 5.515625 
Q 54.9375 5.609375 55.609375 5.765625 
L 55.609375 0.296875 
Q 53.953125 -0.09375 52.3125 -0.28125 
Q 50.6875 -0.484375 48.828125 -0.484375 
Q 46.34375 -0.484375 44.5625 0.171875 
Q 42.78125 0.828125 41.65625 2.171875 
Q 40.53125 3.515625 39.9375 5.484375 
Q 39.359375 7.46875 39.203125 10.109375 
L 38.921875 10.109375 
Q 37.5 7.5625 35.8125 5.515625 
Q 34.125 3.46875 31.875 2.03125 
Q 29.640625 0.59375 26.78125 -0.1875 
Q 23.921875 -0.984375 20.21875 -0.984375 
z
M 22.21875 5.609375 
Q 26.421875 5.609375 29.5625 7.140625 
Q 32.71875 8.6875 34.78125 11.078125 
Q 36.859375 13.484375 37.890625 16.3125 
Q 38.921875 19.140625 38.921875 21.734375 
L 38.921875 26.078125 
L 29.296875 25.875 
Q 26.078125 25.828125 23.171875 25.40625 
Q 20.265625 25 18.0625 23.78125 
Q 15.875 22.5625 14.578125 20.359375 
Q 13.28125 18.171875 13.28125 14.59375 
Q 13.28125 10.296875 15.59375 7.953125 
Q 17.921875 5.609375 22.21875 5.609375 
z
" id="LiberationSans-61"/>
     <path d="M 6.734375 0 
L 6.734375 72.46875 
L 15.53125 72.46875 
L 15.53125 0 
z
" id="LiberationSans-6c"/>
     <path d="M 6.6875 64.0625 
L 6.6875 72.46875 
L 15.484375 72.46875 
L 15.484375 64.0625 
z
M 6.6875 0 
L 6.6875 52.828125 
L 15.484375 52.828125 
L 15.484375 0 
z
" id="LiberationSans-69"/>
     <path d="M 27.046875 0.390625 
Q 25.046875 -0.140625 22.96875 -0.453125 
Q 20.90625 -0.78125 18.171875 -0.78125 
Q 7.625 -0.78125 7.625 11.1875 
L 7.625 46.4375 
L 1.515625 46.4375 
L 1.515625 52.828125 
L 7.953125 52.828125 
L 10.546875 64.65625 
L 16.40625 64.65625 
L 16.40625 52.828125 
L 26.171875 52.828125 
L 26.171875 46.4375 
L 16.40625 46.4375 
L 16.40625 13.09375 
Q 16.40625 9.28125 17.640625 7.734375 
Q 18.890625 6.203125 21.96875 6.203125 
Q 23.25 6.203125 24.4375 6.390625 
Q 25.640625 6.59375 27.046875 6.890625 
z
" id="LiberationSans-74"/>
     <path d="M 4.890625 41.796875 
L 4.890625 49.03125 
L 53.46875 49.03125 
L 53.46875 41.796875 
z
M 4.890625 16.796875 
L 4.890625 24.03125 
L 53.46875 24.03125 
L 53.46875 16.796875 
z
" id="LiberationSans-3d"/>
     <path d="M 38.1875 0 
L 28.515625 0 
L 0.4375 68.796875 
L 10.25 68.796875 
L 29.296875 20.359375 
Q 30.03125 18.171875 30.765625 15.984375 
Q 31.5 13.8125 32.078125 12.109375 
Q 32.765625 10.109375 33.40625 8.203125 
Q 33.984375 10.015625 34.671875 12.015625 
Q 35.25 13.71875 35.953125 15.859375 
Q 36.671875 18.015625 37.5 20.359375 
L 56.453125 68.796875 
L 66.265625 68.796875 
z
" id="LiberationSans-56"/>
     <path d="M 61.421875 19.390625 
Q 61.421875 14.15625 59.375 10.46875 
Q 57.328125 6.78125 53.859375 4.46875 
Q 50.390625 2.15625 45.796875 1.078125 
Q 41.21875 0 36.140625 0 
L 8.203125 0 
L 8.203125 68.796875 
L 33.203125 68.796875 
Q 38.921875 68.796875 43.40625 67.84375 
Q 47.90625 66.890625 51.03125 64.84375 
Q 54.15625 62.796875 55.78125 59.640625 
Q 57.421875 56.5 57.421875 52.09375 
Q 57.421875 49.21875 56.609375 46.671875 
Q 55.8125 44.140625 54.171875 42.0625 
Q 52.546875 39.984375 50.078125 38.5 
Q 47.609375 37.015625 44.34375 36.28125 
Q 48.484375 35.796875 51.6875 34.375 
Q 54.890625 32.953125 57.03125 30.75 
Q 59.1875 28.5625 60.296875 25.65625 
Q 61.421875 22.75 61.421875 19.390625 
z
M 48.046875 50.984375 
Q 48.046875 56.546875 44.234375 58.9375 
Q 40.4375 61.328125 33.203125 61.328125 
L 17.53125 61.328125 
L 17.53125 39.546875 
L 33.203125 39.546875 
Q 37.3125 39.546875 40.140625 40.34375 
Q 42.96875 41.15625 44.71875 42.640625 
Q 46.484375 44.140625 47.265625 46.234375 
Q 48.046875 48.34375 48.046875 50.984375 
z
M 52 20.125 
Q 52 23.390625 50.796875 25.6875 
Q 49.609375 27.984375 47.359375 29.4375 
Q 45.125 30.90625 41.96875 31.59375 
Q 38.8125 32.28125 34.90625 32.28125 
L 17.53125 32.28125 
L 17.53125 7.46875 
L 35.640625 7.46875 
Q 39.203125 7.46875 42.203125 8.046875 
Q 45.21875 8.640625 47.390625 10.109375 
Q 49.5625 11.578125 50.78125 14.015625 
Q 52 16.453125 52 20.125 
z
" id="LiberationSans-42"/>
     <path d="M 66.703125 0 
L 66.703125 45.90625 
Q 66.703125 48.390625 66.75 50.96875 
Q 66.796875 53.5625 66.890625 55.71875 
Q 67 58.203125 67.140625 60.546875 
Q 66.453125 58.0625 65.71875 55.609375 
Q 65.09375 53.515625 64.328125 51.140625 
Q 63.578125 48.78125 62.84375 46.875 
L 45.0625 0 
L 38.53125 0 
L 20.515625 46.875 
Q 20.21875 47.609375 19.890625 48.578125 
Q 19.578125 49.5625 19.203125 50.65625 
Q 18.84375 51.765625 18.46875 52.90625 
Q 18.109375 54.046875 17.78125 55.171875 
Q 16.9375 57.765625 16.15625 60.546875 
Q 16.21875 57.8125 16.3125 55.125 
Q 16.40625 52.828125 16.453125 50.3125 
Q 16.5 47.796875 16.5 45.90625 
L 16.5 0 
L 8.203125 0 
L 8.203125 68.796875 
L 20.453125 68.796875 
L 38.765625 21.09375 
Q 39.109375 20.125 39.59375 18.578125 
Q 40.09375 17.046875 40.53125 15.421875 
Q 40.96875 13.8125 41.328125 12.375 
Q 41.703125 10.9375 41.84375 10.15625 
Q 42 10.9375 42.390625 12.40625 
Q 42.78125 13.875 43.28125 15.484375 
Q 43.796875 17.09375 44.28125 18.609375 
Q 44.78125 20.125 45.171875 21.09375 
L 63.140625 68.796875 
L 75.09375 68.796875 
L 75.09375 0 
z
" id="LiberationSans-4d"/>
    </defs>
    <g style="fill:#262626;" transform="translate(169.462375 33.736)scale(0.176 -0.176)">
     <use xlink:href="#LiberationSans-6d"/>
     <use x="83.300781" xlink:href="#LiberationSans-6f"/>
     <use x="138.916016" xlink:href="#LiberationSans-64"/>
     <use x="194.53125" xlink:href="#LiberationSans-61"/>
     <use x="250.146484" xlink:href="#LiberationSans-6c"/>
     <use x="272.363281" xlink:href="#LiberationSans-69"/>
     <use x="294.580078" xlink:href="#LiberationSans-74"/>
     <use x="322.363281" xlink:href="#LiberationSans-79"/>
     <use x="372.363281" xlink:href="#LiberationSans-20"/>
     <use x="400.146484" xlink:href="#LiberationSans-3d"/>
     <use x="458.544922" xlink:href="#LiberationSans-20"/>
     <use x="486.328125" xlink:href="#LiberationSans-56"/>
     <use x="553.027344" xlink:href="#LiberationSans-42"/>
     <use x="619.726562" xlink:href="#LiberationSans-4d"/>
    </g>
   </g>
  </g>
  <g id="axes_2">
   <g id="patch_105">
    <path d="M 442.5805 288.064 
L 823.614 288.064 
L 823.614 39.736 
L 442.5805 39.736 
z
" style="fill:none;"/>
   </g>
   <g id="matplotlib.axis_3">
    <g id="xtick_6">
     <g id="line2d_27">
      <path clip-path="url(#p8a96dbba31)" d="M 478.915468 288.064 
L 478.915468 39.736 
" style="fill:none;stroke:#cccccc;stroke-linecap:round;stroke-width:1.6;"/>
     </g>
     <g id="line2d_28"/>
     <g id="text_15">
      <!-- −0.4 -->
      <g style="fill:#262626;" transform="translate(463.122968 310.859)scale(0.16 -0.16)">
       <use xlink:href="#LiberationSans-2212"/>
       <use x="58.398438" xlink:href="#LiberationSans-30"/>
       <use x="114.013672" xlink:href="#LiberationSans-2e"/>
       <use x="141.796875" xlink:href="#LiberationSans-34"/>
      </g>
     </g>
    </g>
    <g id="xtick_7">
     <g id="line2d_29">
      <path clip-path="url(#p8a96dbba31)" d="M 556.139414 288.064 
L 556.139414 39.736 
" style="fill:none;stroke:#cccccc;stroke-linecap:round;stroke-width:1.6;"/>
     </g>
     <g id="line2d_30"/>
     <g id="text_16">
      <!-- −0.2 -->
      <g style="fill:#262626;" transform="translate(540.346914 310.859)scale(0.16 -0.16)">
       <use xlink:href="#LiberationSans-2212"/>
       <use x="58.398438" xlink:href="#LiberationSans-30"/>
       <use x="114.013672" xlink:href="#LiberationSans-2e"/>
       <use x="141.796875" xlink:href="#LiberationSans-32"/>
      </g>
     </g>
    </g>
    <g id="xtick_8">
     <g id="line2d_31">
      <path clip-path="url(#p8a96dbba31)" d="M 633.363359 288.064 
L 633.363359 39.736 
" style="fill:none;stroke:#cccccc;stroke-linecap:round;stroke-width:1.6;"/>
     </g>
     <g id="line2d_32"/>
     <g id="text_17">
      <!-- 0.0 -->
      <g style="fill:#262626;" transform="translate(622.243359 310.859)scale(0.16 -0.16)">
       <use xlink:href="#LiberationSans-30"/>
       <use x="55.615234" xlink:href="#LiberationSans-2e"/>
       <use x="83.398438" xlink:href="#LiberationSans-30"/>
      </g>
     </g>
    </g>
    <g id="xtick_9">
     <g id="line2d_33">
      <path clip-path="url(#p8a96dbba31)" d="M 710.587305 288.064 
L 710.587305 39.736 
" style="fill:none;stroke:#cccccc;stroke-linecap:round;stroke-width:1.6;"/>
     </g>
     <g id="line2d_34"/>
     <g id="text_18">
      <!-- 0.2 -->
      <g style="fill:#262626;" transform="translate(699.467305 310.859)scale(0.16 -0.16)">
       <use xlink:href="#LiberationSans-30"/>
       <use x="55.615234" xlink:href="#LiberationSans-2e"/>
       <use x="83.398438" xlink:href="#LiberationSans-32"/>
      </g>
     </g>
    </g>
    <g id="xtick_10">
     <g id="line2d_35">
      <path clip-path="url(#p8a96dbba31)" d="M 787.811251 288.064 
L 787.811251 39.736 
" style="fill:none;stroke:#cccccc;stroke-linecap:round;stroke-width:1.6;"/>
     </g>
     <g id="line2d_36"/>
     <g id="text_19">
      <!-- 0.4 -->
      <g style="fill:#262626;" transform="translate(776.691251 310.859)scale(0.16 -0.16)">
       <use xlink:href="#LiberationSans-30"/>
       <use x="55.615234" xlink:href="#LiberationSans-2e"/>
       <use x="83.398438" xlink:href="#LiberationSans-34"/>
      </g>
     </g>
    </g>
    <g id="text_20">
     <!-- $\rho$(X, y) -->
     <g style="fill:#262626;" transform="translate(606.43325 331.027)scale(0.176 -0.176)">
      <use transform="translate(0 0.53125)" xlink:href="#DejaVuSans-Oblique-3c1"/>
      <use transform="translate(63.476562 0.53125)" xlink:href="#LiberationSans-28"/>
      <use transform="translate(96.777344 0.53125)" xlink:href="#LiberationSans-58"/>
      <use transform="translate(163.476562 0.53125)" xlink:href="#LiberationSans-2c"/>
      <use transform="translate(191.259766 0.53125)" xlink:href="#LiberationSans-20"/>
      <use transform="translate(219.042969 0.53125)" xlink:href="#LiberationSans-79"/>
      <use transform="translate(269.042969 0.53125)" xlink:href="#LiberationSans-29"/>
     </g>
    </g>
   </g>
   <g id="matplotlib.axis_4">
    <g id="ytick_8">
     <g id="line2d_37">
      <path clip-path="url(#p8a96dbba31)" d="M 442.5805 288.064 
L 823.614 288.064 
" style="fill:none;stroke:#cccccc;stroke-linecap:round;stroke-width:1.6;"/>
     </g>
     <g id="line2d_38"/>
    </g>
    <g id="ytick_9">
     <g id="line2d_39">
      <path clip-path="url(#p8a96dbba31)" d="M 442.5805 252.282086 
L 823.614 252.282086 
" style="fill:none;stroke:#cccccc;stroke-linecap:round;stroke-width:1.6;"/>
     </g>
     <g id="line2d_40"/>
    </g>
    <g id="ytick_10">
     <g id="line2d_41">
      <path clip-path="url(#p8a96dbba31)" d="M 442.5805 216.500172 
L 823.614 216.500172 
" style="fill:none;stroke:#cccccc;stroke-linecap:round;stroke-width:1.6;"/>
     </g>
     <g id="line2d_42"/>
    </g>
    <g id="ytick_11">
     <g id="line2d_43">
      <path clip-path="url(#p8a96dbba31)" d="M 442.5805 180.718258 
L 823.614 180.718258 
" style="fill:none;stroke:#cccccc;stroke-linecap:round;stroke-width:1.6;"/>
     </g>
     <g id="line2d_44"/>
    </g>
    <g id="ytick_12">
     <g id="line2d_45">
      <path clip-path="url(#p8a96dbba31)" d="M 442.5805 144.936343 
L 823.614 144.936343 
" style="fill:none;stroke:#cccccc;stroke-linecap:round;stroke-width:1.6;"/>
     </g>
     <g id="line2d_46"/>
    </g>
    <g id="ytick_13">
     <g id="line2d_47">
      <path clip-path="url(#p8a96dbba31)" d="M 442.5805 109.154429 
L 823.614 109.154429 
" style="fill:none;stroke:#cccccc;stroke-linecap:round;stroke-width:1.6;"/>
     </g>
     <g id="line2d_48"/>
    </g>
    <g id="ytick_14">
     <g id="line2d_49">
      <path clip-path="url(#p8a96dbba31)" d="M 442.5805 73.372515 
L 823.614 73.372515 
" style="fill:none;stroke:#cccccc;stroke-linecap:round;stroke-width:1.6;"/>
     </g>
     <g id="line2d_50"/>
    </g>
   </g>
   <g id="patch_106">
    <path clip-path="url(#p8a96dbba31)" d="M 470.335022 288.064 
L 476.616366 288.064 
L 476.616366 288.046862 
L 470.335022 288.046862 
z
" style="fill:#ff8c00;opacity:0.4;"/>
   </g>
   <g id="patch_107">
    <path clip-path="url(#p8a96dbba31)" d="M 476.616366 288.064 
L 482.89771 288.064 
L 482.89771 288.029723 
L 476.616366 288.029723 
z
" style="fill:#ff8c00;opacity:0.4;"/>
   </g>
   <g id="patch_108">
    <path clip-path="url(#p8a96dbba31)" d="M 482.89771 288.064 
L 489.179054 288.064 
L 489.179054 287.875477 
L 482.89771 287.875477 
z
" style="fill:#ff8c00;opacity:0.4;"/>
   </g>
   <g id="patch_109">
    <path clip-path="url(#p8a96dbba31)" d="M 489.179054 288.064 
L 495.460398 288.064 
L 495.460398 287.858339 
L 489.179054 287.858339 
z
" style="fill:#ff8c00;opacity:0.4;"/>
   </g>
   <g id="patch_110">
    <path clip-path="url(#p8a96dbba31)" d="M 495.460398 288.064 
L 501.741742 288.064 
L 501.741742 287.669816 
L 495.460398 287.669816 
z
" style="fill:#ff8c00;opacity:0.4;"/>
   </g>
   <g id="patch_111">
    <path clip-path="url(#p8a96dbba31)" d="M 501.741742 288.064 
L 508.023086 288.064 
L 508.023086 287.292771 
L 501.741742 287.292771 
z
" style="fill:#ff8c00;opacity:0.4;"/>
   </g>
   <g id="patch_112">
    <path clip-path="url(#p8a96dbba31)" d="M 508.023086 288.064 
L 514.30443 288.064 
L 514.30443 287.207079 
L 508.023086 287.207079 
z
" style="fill:#ff8c00;opacity:0.4;"/>
   </g>
   <g id="patch_113">
    <path clip-path="url(#p8a96dbba31)" d="M 514.30443 288.064 
L 520.585774 288.064 
L 520.585774 286.435849 
L 514.30443 286.435849 
z
" style="fill:#ff8c00;opacity:0.4;"/>
   </g>
   <g id="patch_114">
    <path clip-path="url(#p8a96dbba31)" d="M 520.585774 288.064 
L 526.867118 288.064 
L 526.867118 285.510374 
L 520.585774 285.510374 
z
" style="fill:#ff8c00;opacity:0.4;"/>
   </g>
   <g id="patch_115">
    <path clip-path="url(#p8a96dbba31)" d="M 526.867118 288.064 
L 533.148461 288.064 
L 533.148461 283.779393 
L 526.867118 283.779393 
z
" style="fill:#ff8c00;opacity:0.4;"/>
   </g>
   <g id="patch_116">
    <path clip-path="url(#p8a96dbba31)" d="M 533.148461 288.064 
L 539.429805 288.064 
L 539.429805 281.705644 
L 533.148461 281.705644 
z
" style="fill:#ff8c00;opacity:0.4;"/>
   </g>
   <g id="patch_117">
    <path clip-path="url(#p8a96dbba31)" d="M 539.429805 288.064 
L 545.711149 288.064 
L 545.711149 278.415066 
L 539.429805 278.415066 
z
" style="fill:#ff8c00;opacity:0.4;"/>
   </g>
   <g id="patch_118">
    <path clip-path="url(#p8a96dbba31)" d="M 545.711149 288.064 
L 551.992493 288.064 
L 551.992493 272.947908 
L 545.711149 272.947908 
z
" style="fill:#ff8c00;opacity:0.4;"/>
   </g>
   <g id="patch_119">
    <path clip-path="url(#p8a96dbba31)" d="M 551.992493 288.064 
L 558.273837 288.064 
L 558.273837 268.680439 
L 551.992493 268.680439 
z
" style="fill:#ff8c00;opacity:0.4;"/>
   </g>
   <g id="patch_120">
    <path clip-path="url(#p8a96dbba31)" d="M 558.273837 288.064 
L 564.555181 288.064 
L 564.555181 261.088116 
L 558.273837 261.088116 
z
" style="fill:#ff8c00;opacity:0.4;"/>
   </g>
   <g id="patch_121">
    <path clip-path="url(#p8a96dbba31)" d="M 564.555181 288.064 
L 570.836525 288.064 
L 570.836525 251.67912 
L 564.555181 251.67912 
z
" style="fill:#ff8c00;opacity:0.4;"/>
   </g>
   <g id="patch_122">
    <path clip-path="url(#p8a96dbba31)" d="M 570.836525 288.064 
L 577.117869 288.064 
L 577.117869 239.562252 
L 570.836525 239.562252 
z
" style="fill:#ff8c00;opacity:0.4;"/>
   </g>
   <g id="patch_123">
    <path clip-path="url(#p8a96dbba31)" d="M 577.117869 288.064 
L 583.399213 288.064 
L 583.399213 225.508742 
L 577.117869 225.508742 
z
" style="fill:#ff8c00;opacity:0.4;"/>
   </g>
   <g id="patch_124">
    <path clip-path="url(#p8a96dbba31)" d="M 583.399213 288.064 
L 589.680557 288.064 
L 589.680557 207.324872 
L 583.399213 207.324872 
z
" style="fill:#ff8c00;opacity:0.4;"/>
   </g>
   <g id="patch_125">
    <path clip-path="url(#p8a96dbba31)" d="M 589.680557 288.064 
L 595.961901 288.064 
L 595.961901 187.392881 
L 589.680557 187.392881 
z
" style="fill:#ff8c00;opacity:0.4;"/>
   </g>
   <g id="patch_126">
    <path clip-path="url(#p8a96dbba31)" d="M 595.961901 288.064 
L 602.243245 288.064 
L 602.243245 167.049569 
L 595.961901 167.049569 
z
" style="fill:#ff8c00;opacity:0.4;"/>
   </g>
   <g id="patch_127">
    <path clip-path="url(#p8a96dbba31)" d="M 602.243245 288.064 
L 608.524589 288.064 
L 608.524589 150.065388 
L 602.243245 150.065388 
z
" style="fill:#ff8c00;opacity:0.4;"/>
   </g>
   <g id="patch_128">
    <path clip-path="url(#p8a96dbba31)" d="M 608.524589 288.064 
L 614.805932 288.064 
L 614.805932 138.736888 
L 608.524589 138.736888 
z
" style="fill:#ff8c00;opacity:0.4;"/>
   </g>
   <g id="patch_129">
    <path clip-path="url(#p8a96dbba31)" d="M 614.805932 288.064 
L 621.087276 288.064 
L 621.087276 133.475391 
L 614.805932 133.475391 
z
" style="fill:#ff8c00;opacity:0.4;"/>
   </g>
   <g id="patch_130">
    <path clip-path="url(#p8a96dbba31)" d="M 621.087276 288.064 
L 627.36862 288.064 
L 627.36862 129.379307 
L 621.087276 129.379307 
z
" style="fill:#ff8c00;opacity:0.4;"/>
   </g>
   <g id="patch_131">
    <path clip-path="url(#p8a96dbba31)" d="M 627.36862 288.064 
L 633.649964 288.064 
L 633.649964 130.527581 
L 627.36862 130.527581 
z
" style="fill:#ff8c00;opacity:0.4;"/>
   </g>
   <g id="patch_132">
    <path clip-path="url(#p8a96dbba31)" d="M 633.649964 288.064 
L 639.931308 288.064 
L 639.931308 137.640028 
L 633.649964 137.640028 
z
" style="fill:#ff8c00;opacity:0.4;"/>
   </g>
   <g id="patch_133">
    <path clip-path="url(#p8a96dbba31)" d="M 639.931308 288.064 
L 646.212652 288.064 
L 646.212652 150.545264 
L 639.931308 150.545264 
z
" style="fill:#ff8c00;opacity:0.4;"/>
   </g>
   <g id="patch_134">
    <path clip-path="url(#p8a96dbba31)" d="M 646.212652 288.064 
L 652.493996 288.064 
L 652.493996 164.136036 
L 646.212652 164.136036 
z
" style="fill:#ff8c00;opacity:0.4;"/>
   </g>
   <g id="patch_135">
    <path clip-path="url(#p8a96dbba31)" d="M 652.493996 288.064 
L 658.77534 288.064 
L 658.77534 182.594122 
L 652.493996 182.594122 
z
" style="fill:#ff8c00;opacity:0.4;"/>
   </g>
   <g id="patch_136">
    <path clip-path="url(#p8a96dbba31)" d="M 658.77534 288.064 
L 665.056684 288.064 
L 665.056684 198.669966 
L 658.77534 198.669966 
z
" style="fill:#ff8c00;opacity:0.4;"/>
   </g>
   <g id="patch_137">
    <path clip-path="url(#p8a96dbba31)" d="M 665.056684 288.064 
L 671.338028 288.064 
L 671.338028 216.545345 
L 665.056684 216.545345 
z
" style="fill:#ff8c00;opacity:0.4;"/>
   </g>
   <g id="patch_138">
    <path clip-path="url(#p8a96dbba31)" d="M 671.338028 288.064 
L 677.619372 288.064 
L 677.619372 229.827626 
L 671.338028 229.827626 
z
" style="fill:#ff8c00;opacity:0.4;"/>
   </g>
   <g id="patch_139">
    <path clip-path="url(#p8a96dbba31)" d="M 677.619372 288.064 
L 683.900716 288.064 
L 683.900716 241.858801 
L 677.619372 241.858801 
z
" style="fill:#ff8c00;opacity:0.4;"/>
   </g>
   <g id="patch_140">
    <path clip-path="url(#p8a96dbba31)" d="M 683.900716 288.064 
L 690.18206 288.064 
L 690.18206 253.461516 
L 683.900716 253.461516 
z
" style="fill:#ff8c00;opacity:0.4;"/>
   </g>
   <g id="patch_141">
    <path clip-path="url(#p8a96dbba31)" d="M 690.18206 288.064 
L 696.463404 288.064 
L 696.463404 260.813901 
L 690.18206 260.813901 
z
" style="fill:#ff8c00;opacity:0.4;"/>
   </g>
   <g id="patch_142">
    <path clip-path="url(#p8a96dbba31)" d="M 696.463404 288.064 
L 702.744747 288.064 
L 702.744747 268.851824 
L 696.463404 268.851824 
z
" style="fill:#ff8c00;opacity:0.4;"/>
   </g>
   <g id="patch_143">
    <path clip-path="url(#p8a96dbba31)" d="M 702.744747 288.064 
L 709.026091 288.064 
L 709.026091 274.815996 
L 702.744747 274.815996 
z
" style="fill:#ff8c00;opacity:0.4;"/>
   </g>
   <g id="patch_144">
    <path clip-path="url(#p8a96dbba31)" d="M 709.026091 288.064 
L 715.307435 288.064 
L 715.307435 279.169157 
L 709.026091 279.169157 
z
" style="fill:#ff8c00;opacity:0.4;"/>
   </g>
   <g id="patch_145">
    <path clip-path="url(#p8a96dbba31)" d="M 715.307435 288.064 
L 721.588779 288.064 
L 721.588779 281.619952 
L 715.307435 281.619952 
z
" style="fill:#ff8c00;opacity:0.4;"/>
   </g>
   <g id="patch_146">
    <path clip-path="url(#p8a96dbba31)" d="M 721.588779 288.064 
L 727.870123 288.064 
L 727.870123 283.676563 
L 721.588779 283.676563 
z
" style="fill:#ff8c00;opacity:0.4;"/>
   </g>
   <g id="patch_147">
    <path clip-path="url(#p8a96dbba31)" d="M 727.870123 288.064 
L 734.151467 288.064 
L 734.151467 285.56179 
L 727.870123 285.56179 
z
" style="fill:#ff8c00;opacity:0.4;"/>
   </g>
   <g id="patch_148">
    <path clip-path="url(#p8a96dbba31)" d="M 734.151467 288.064 
L 740.432811 288.064 
L 740.432811 286.607234 
L 734.151467 286.607234 
z
" style="fill:#ff8c00;opacity:0.4;"/>
   </g>
   <g id="patch_149">
    <path clip-path="url(#p8a96dbba31)" d="M 740.432811 288.064 
L 746.714155 288.064 
L 746.714155 287.052833 
L 740.432811 287.052833 
z
" style="fill:#ff8c00;opacity:0.4;"/>
   </g>
   <g id="patch_150">
    <path clip-path="url(#p8a96dbba31)" d="M 746.714155 288.064 
L 752.995499 288.064 
L 752.995499 287.584124 
L 746.714155 287.584124 
z
" style="fill:#ff8c00;opacity:0.4;"/>
   </g>
   <g id="patch_151">
    <path clip-path="url(#p8a96dbba31)" d="M 752.995499 288.064 
L 759.276843 288.064 
L 759.276843 287.51557 
L 752.995499 287.51557 
z
" style="fill:#ff8c00;opacity:0.4;"/>
   </g>
   <g id="patch_152">
    <path clip-path="url(#p8a96dbba31)" d="M 759.276843 288.064 
L 765.558187 288.064 
L 765.558187 287.961169 
L 759.276843 287.961169 
z
" style="fill:#ff8c00;opacity:0.4;"/>
   </g>
   <g id="patch_153">
    <path clip-path="url(#p8a96dbba31)" d="M 765.558187 288.064 
L 771.839531 288.064 
L 771.839531 287.944031 
L 765.558187 287.944031 
z
" style="fill:#ff8c00;opacity:0.4;"/>
   </g>
   <g id="patch_154">
    <path clip-path="url(#p8a96dbba31)" d="M 771.839531 288.064 
L 778.120875 288.064 
L 778.120875 287.995446 
L 771.839531 287.995446 
z
" style="fill:#ff8c00;opacity:0.4;"/>
   </g>
   <g id="patch_155">
    <path clip-path="url(#p8a96dbba31)" d="M 778.120875 288.064 
L 784.402218 288.064 
L 784.402218 287.961169 
L 778.120875 287.961169 
z
" style="fill:#ff8c00;opacity:0.4;"/>
   </g>
   <g id="patch_156">
    <path clip-path="url(#p8a96dbba31)" d="M 541.300694 288.064 
L 545.275363 288.064 
L 545.275363 288.009831 
L 541.300694 288.009831 
z
" style="fill:#9400d3;opacity:0.4;"/>
   </g>
   <g id="patch_157">
    <path clip-path="url(#p8a96dbba31)" d="M 545.275363 288.064 
L 549.250031 288.064 
L 549.250031 288.009831 
L 545.275363 288.009831 
z
" style="fill:#9400d3;opacity:0.4;"/>
   </g>
   <g id="patch_158">
    <path clip-path="url(#p8a96dbba31)" d="M 549.250031 288.064 
L 553.224699 288.064 
L 553.224699 287.874408 
L 549.250031 287.874408 
z
" style="fill:#9400d3;opacity:0.4;"/>
   </g>
   <g id="patch_159">
    <path clip-path="url(#p8a96dbba31)" d="M 553.224699 288.064 
L 557.199367 288.064 
L 557.199367 287.684815 
L 553.224699 287.684815 
z
" style="fill:#9400d3;opacity:0.4;"/>
   </g>
   <g id="patch_160">
    <path clip-path="url(#p8a96dbba31)" d="M 557.199367 288.064 
L 561.174035 288.064 
L 561.174035 287.088954 
L 557.199367 287.088954 
z
" style="fill:#9400d3;opacity:0.4;"/>
   </g>
   <g id="patch_161">
    <path clip-path="url(#p8a96dbba31)" d="M 561.174035 288.064 
L 565.148703 288.064 
L 565.148703 286.980615 
L 561.174035 286.980615 
z
" style="fill:#9400d3;opacity:0.4;"/>
   </g>
   <g id="patch_162">
    <path clip-path="url(#p8a96dbba31)" d="M 565.148703 288.064 
L 569.123371 288.064 
L 569.123371 285.707639 
L 565.148703 285.707639 
z
" style="fill:#9400d3;opacity:0.4;"/>
   </g>
   <g id="patch_163">
    <path clip-path="url(#p8a96dbba31)" d="M 569.123371 288.064 
L 573.098039 288.064 
L 573.098039 284.570085 
L 569.123371 284.570085 
z
" style="fill:#9400d3;opacity:0.4;"/>
   </g>
   <g id="patch_164">
    <path clip-path="url(#p8a96dbba31)" d="M 573.098039 288.064 
L 577.072707 288.064 
L 577.072707 281.428269 
L 573.098039 281.428269 
z
" style="fill:#9400d3;opacity:0.4;"/>
   </g>
   <g id="patch_165">
    <path clip-path="url(#p8a96dbba31)" d="M 577.072707 288.064 
L 581.047375 288.064 
L 581.047375 276.688462 
L 577.072707 276.688462 
z
" style="fill:#9400d3;opacity:0.4;"/>
   </g>
   <g id="patch_166">
    <path clip-path="url(#p8a96dbba31)" d="M 581.047375 288.064 
L 585.022043 288.064 
L 585.022043 271.542385 
L 581.047375 271.542385 
z
" style="fill:#9400d3;opacity:0.4;"/>
   </g>
   <g id="patch_167">
    <path clip-path="url(#p8a96dbba31)" d="M 585.022043 288.064 
L 588.996711 288.064 
L 588.996711 265.340008 
L 585.022043 265.340008 
z
" style="fill:#9400d3;opacity:0.4;"/>
   </g>
   <g id="patch_168">
    <path clip-path="url(#p8a96dbba31)" d="M 588.996711 288.064 
L 592.971379 288.064 
L 592.971379 252.664408 
L 588.996711 252.664408 
z
" style="fill:#9400d3;opacity:0.4;"/>
   </g>
   <g id="patch_169">
    <path clip-path="url(#p8a96dbba31)" d="M 592.971379 288.064 
L 596.946047 288.064 
L 596.946047 241.343039 
L 592.971379 241.343039 
z
" style="fill:#9400d3;opacity:0.4;"/>
   </g>
   <g id="patch_170">
    <path clip-path="url(#p8a96dbba31)" d="M 596.946047 288.064 
L 600.920715 288.064 
L 600.920715 222.952586 
L 596.946047 222.952586 
z
" style="fill:#9400d3;opacity:0.4;"/>
   </g>
   <g id="patch_171">
    <path clip-path="url(#p8a96dbba31)" d="M 600.920715 288.064 
L 604.895383 288.064 
L 604.895383 202.774548 
L 600.920715 202.774548 
z
" style="fill:#9400d3;opacity:0.4;"/>
   </g>
   <g id="patch_172">
    <path clip-path="url(#p8a96dbba31)" d="M 604.895383 288.064 
L 608.870051 288.064 
L 608.870051 178.208802 
L 604.895383 178.208802 
z
" style="fill:#9400d3;opacity:0.4;"/>
   </g>
   <g id="patch_173">
    <path clip-path="url(#p8a96dbba31)" d="M 608.870051 288.064 
L 612.844719 288.064 
L 612.844719 155.511895 
L 608.870051 155.511895 
z
" style="fill:#9400d3;opacity:0.4;"/>
   </g>
   <g id="patch_174">
    <path clip-path="url(#p8a96dbba31)" d="M 612.844719 288.064 
L 616.819387 288.064 
L 616.819387 128.42728 
L 612.844719 128.42728 
z
" style="fill:#9400d3;opacity:0.4;"/>
   </g>
   <g id="patch_175">
    <path clip-path="url(#p8a96dbba31)" d="M 616.819387 288.064 
L 620.794055 288.064 
L 620.794055 103.048996 
L 616.819387 103.048996 
z
" style="fill:#9400d3;opacity:0.4;"/>
   </g>
   <g id="patch_176">
    <path clip-path="url(#p8a96dbba31)" d="M 620.794055 288.064 
L 624.768723 288.064 
L 624.768723 83.873088 
L 620.794055 83.873088 
z
" style="fill:#9400d3;opacity:0.4;"/>
   </g>
   <g id="patch_177">
    <path clip-path="url(#p8a96dbba31)" d="M 624.768723 288.064 
L 628.743391 288.064 
L 628.743391 66.86395 
L 624.768723 66.86395 
z
" style="fill:#9400d3;opacity:0.4;"/>
   </g>
   <g id="patch_178">
    <path clip-path="url(#p8a96dbba31)" d="M 628.743391 288.064 
L 632.718059 288.064 
L 632.718059 59.442766 
L 628.743391 59.442766 
z
" style="fill:#9400d3;opacity:0.4;"/>
   </g>
   <g id="patch_179">
    <path clip-path="url(#p8a96dbba31)" d="M 632.718059 288.064 
L 636.692727 288.064 
L 636.692727 51.561143 
L 632.718059 51.561143 
z
" style="fill:#9400d3;opacity:0.4;"/>
   </g>
   <g id="patch_180">
    <path clip-path="url(#p8a96dbba31)" d="M 636.692727 288.064 
L 640.667395 288.064 
L 640.667395 58.11562 
L 636.692727 58.11562 
z
" style="fill:#9400d3;opacity:0.4;"/>
   </g>
   <g id="patch_181">
    <path clip-path="url(#p8a96dbba31)" d="M 640.667395 288.064 
L 644.642063 288.064 
L 644.642063 71.901689 
L 640.667395 71.901689 
z
" style="fill:#9400d3;opacity:0.4;"/>
   </g>
   <g id="patch_182">
    <path clip-path="url(#p8a96dbba31)" d="M 644.642063 288.064 
L 648.616731 288.064 
L 648.616731 81.65215 
L 644.642063 81.65215 
z
" style="fill:#9400d3;opacity:0.4;"/>
   </g>
   <g id="patch_183">
    <path clip-path="url(#p8a96dbba31)" d="M 648.616731 288.064 
L 652.591399 288.064 
L 652.591399 102.507303 
L 648.616731 102.507303 
z
" style="fill:#9400d3;opacity:0.4;"/>
   </g>
   <g id="patch_184">
    <path clip-path="url(#p8a96dbba31)" d="M 652.591399 288.064 
L 656.566067 288.064 
L 656.566067 121.060265 
L 652.591399 121.060265 
z
" style="fill:#9400d3;opacity:0.4;"/>
   </g>
   <g id="patch_185">
    <path clip-path="url(#p8a96dbba31)" d="M 656.566067 288.064 
L 660.540735 288.064 
L 660.540735 145.192657 
L 656.566067 145.192657 
z
" style="fill:#9400d3;opacity:0.4;"/>
   </g>
   <g id="patch_186">
    <path clip-path="url(#p8a96dbba31)" d="M 660.540735 288.064 
L 664.515403 288.064 
L 664.515403 167.293702 
L 660.540735 167.293702 
z
" style="fill:#9400d3;opacity:0.4;"/>
   </g>
   <g id="patch_187">
    <path clip-path="url(#p8a96dbba31)" d="M 664.515403 288.064 
L 668.490071 288.064 
L 668.490071 184.275756 
L 664.515403 184.275756 
z
" style="fill:#9400d3;opacity:0.4;"/>
   </g>
   <g id="patch_188">
    <path clip-path="url(#p8a96dbba31)" d="M 668.490071 288.064 
L 672.464739 288.064 
L 672.464739 210.114478 
L 668.490071 210.114478 
z
" style="fill:#9400d3;opacity:0.4;"/>
   </g>
   <g id="patch_189">
    <path clip-path="url(#p8a96dbba31)" d="M 672.464739 288.064 
L 676.439407 288.064 
L 676.439407 223.088009 
L 672.464739 223.088009 
z
" style="fill:#9400d3;opacity:0.4;"/>
   </g>
   <g id="patch_190">
    <path clip-path="url(#p8a96dbba31)" d="M 676.439407 288.064 
L 680.414075 288.064 
L 680.414075 239.122101 
L 676.439407 239.122101 
z
" style="fill:#9400d3;opacity:0.4;"/>
   </g>
   <g id="patch_191">
    <path clip-path="url(#p8a96dbba31)" d="M 680.414075 288.064 
L 684.388743 288.064 
L 684.388743 250.335131 
L 680.414075 250.335131 
z
" style="fill:#9400d3;opacity:0.4;"/>
   </g>
   <g id="patch_192">
    <path clip-path="url(#p8a96dbba31)" d="M 684.388743 288.064 
L 688.363411 288.064 
L 688.363411 259.029293 
L 684.388743 259.029293 
z
" style="fill:#9400d3;opacity:0.4;"/>
   </g>
   <g id="patch_193">
    <path clip-path="url(#p8a96dbba31)" d="M 688.363411 288.064 
L 692.338079 288.064 
L 692.338079 266.965085 
L 688.363411 266.965085 
z
" style="fill:#9400d3;opacity:0.4;"/>
   </g>
   <g id="patch_194">
    <path clip-path="url(#p8a96dbba31)" d="M 692.338079 288.064 
L 696.312747 288.064 
L 696.312747 273.573731 
L 692.338079 273.573731 
z
" style="fill:#9400d3;opacity:0.4;"/>
   </g>
   <g id="patch_195">
    <path clip-path="url(#p8a96dbba31)" d="M 696.312747 288.064 
L 700.287416 288.064 
L 700.287416 277.8531 
L 696.312747 277.8531 
z
" style="fill:#9400d3;opacity:0.4;"/>
   </g>
   <g id="patch_196">
    <path clip-path="url(#p8a96dbba31)" d="M 700.287416 288.064 
L 704.262084 288.064 
L 704.262084 280.751154 
L 700.287416 280.751154 
z
" style="fill:#9400d3;opacity:0.4;"/>
   </g>
   <g id="patch_197">
    <path clip-path="url(#p8a96dbba31)" d="M 704.262084 288.064 
L 708.236752 288.064 
L 708.236752 282.322062 
L 704.262084 282.322062 
z
" style="fill:#9400d3;opacity:0.4;"/>
   </g>
   <g id="patch_198">
    <path clip-path="url(#p8a96dbba31)" d="M 708.236752 288.064 
L 712.21142 288.064 
L 712.21142 284.976354 
L 708.236752 284.976354 
z
" style="fill:#9400d3;opacity:0.4;"/>
   </g>
   <g id="patch_199">
    <path clip-path="url(#p8a96dbba31)" d="M 712.21142 288.064 
L 716.186088 288.064 
L 716.186088 285.9514 
L 712.21142 285.9514 
z
" style="fill:#9400d3;opacity:0.4;"/>
   </g>
   <g id="patch_200">
    <path clip-path="url(#p8a96dbba31)" d="M 716.186088 288.064 
L 720.160756 288.064 
L 720.160756 286.466008 
L 716.186088 286.466008 
z
" style="fill:#9400d3;opacity:0.4;"/>
   </g>
   <g id="patch_201">
    <path clip-path="url(#p8a96dbba31)" d="M 720.160756 288.064 
L 724.135424 288.064 
L 724.135424 286.520177 
L 720.160756 286.520177 
z
" style="fill:#9400d3;opacity:0.4;"/>
   </g>
   <g id="patch_202">
    <path clip-path="url(#p8a96dbba31)" d="M 724.135424 288.064 
L 728.110092 288.064 
L 728.110092 286.980615 
L 724.135424 286.980615 
z
" style="fill:#9400d3;opacity:0.4;"/>
   </g>
   <g id="patch_203">
    <path clip-path="url(#p8a96dbba31)" d="M 728.110092 288.064 
L 732.08476 288.064 
L 732.08476 287.603562 
L 728.110092 287.603562 
z
" style="fill:#9400d3;opacity:0.4;"/>
   </g>
   <g id="patch_204">
    <path clip-path="url(#p8a96dbba31)" d="M 732.08476 288.064 
L 736.059428 288.064 
L 736.059428 287.928577 
L 732.08476 287.928577 
z
" style="fill:#9400d3;opacity:0.4;"/>
   </g>
   <g id="patch_205">
    <path clip-path="url(#p8a96dbba31)" d="M 736.059428 288.064 
L 740.034096 288.064 
L 740.034096 287.982746 
L 736.059428 287.982746 
z
" style="fill:#9400d3;opacity:0.4;"/>
   </g>
   <g id="line2d_51">
    <path clip-path="url(#p8a96dbba31)" d="M 459.900205 288.06387 
L 483.635886 287.955707 
L 499.459673 287.610825 
L 507.371567 287.217731 
L 512.646162 287.008766 
L 517.920758 286.405357 
L 523.195354 285.544722 
L 528.46995 284.202329 
L 533.744545 282.502165 
L 536.381843 281.477386 
L 539.019141 280.263249 
L 541.656439 278.7681 
L 544.293737 276.915503 
L 554.842928 268.387802 
L 557.480226 265.761158 
L 560.117524 262.636673 
L 562.754822 259.097622 
L 565.39212 255.261214 
L 568.029418 251.070955 
L 570.666716 246.241313 
L 573.304014 240.727581 
L 578.578609 228.84327 
L 581.215907 222.358004 
L 583.853205 215.202307 
L 586.490503 207.422908 
L 591.765099 190.780958 
L 599.676993 165.962714 
L 602.31429 158.020057 
L 604.951588 151.041657 
L 607.588886 145.227453 
L 610.226184 140.913131 
L 612.863482 138.242843 
L 615.50078 136.25311 
L 620.775376 131.544471 
L 623.412674 130.334242 
L 626.049971 130.103452 
L 628.687269 130.504237 
L 631.324567 131.699197 
L 633.961865 134.135538 
L 636.599163 137.804206 
L 639.236461 142.282774 
L 641.873759 147.534186 
L 644.511057 153.362161 
L 647.148354 159.569 
L 649.785652 166.464351 
L 655.060248 180.927374 
L 660.334844 194.856544 
L 665.60944 209.106969 
L 668.246738 215.591474 
L 673.521333 227.595593 
L 676.158631 233.067895 
L 681.433227 243.046008 
L 684.070525 247.875247 
L 686.707823 252.301247 
L 689.345121 256.090375 
L 694.619716 262.764095 
L 697.257014 265.985594 
L 699.894312 268.898754 
L 702.53161 271.501688 
L 705.168908 273.887712 
L 707.806206 276.043849 
L 710.443504 277.924809 
L 713.080802 279.459656 
L 715.7181 280.615496 
L 720.992695 282.5082 
L 726.267291 284.180074 
L 728.904589 284.930728 
L 731.541887 285.562048 
L 736.816483 286.448577 
L 744.728376 287.216857 
L 750.002972 287.525783 
L 757.914866 287.655524 
L 763.189461 287.901426 
L 773.738653 287.975391 
L 794.837036 288.063831 
L 794.837036 288.063831 
" style="fill:none;stroke:#ff8c00;stroke-linecap:round;stroke-width:2.8;"/>
   </g>
   <g id="line2d_52">
    <path clip-path="url(#p8a96dbba31)" d="M 534.13143 288.063711 
L 549.231015 287.959584 
L 554.264211 287.701234 
L 560.975138 287.014577 
L 562.652869 286.845257 
L 564.330601 286.540446 
L 567.686064 285.546482 
L 569.363796 284.986452 
L 571.041528 284.282987 
L 572.71926 283.275264 
L 574.396991 281.9032 
L 576.074723 280.20465 
L 579.430187 276.14691 
L 582.78565 271.673452 
L 584.463382 269.096706 
L 586.141114 266.055773 
L 587.818845 262.382479 
L 589.496577 257.913886 
L 591.174309 252.753636 
L 594.529772 241.429333 
L 596.207504 235.015592 
L 597.885236 227.767554 
L 599.562968 219.822915 
L 602.918431 202.181191 
L 606.273894 182.647169 
L 609.629358 162.040814 
L 616.340285 118.482992 
L 618.018017 108.962798 
L 624.728944 75.279996 
L 626.406675 69.576674 
L 628.084407 65.229948 
L 629.762139 61.460984 
L 631.439871 58.001722 
L 633.117602 55.111254 
L 634.795334 53.536337 
L 636.473066 54.164429 
L 638.150798 57.269769 
L 639.828529 62.12166 
L 643.183993 73.027425 
L 644.861724 78.177841 
L 646.539456 83.68702 
L 648.217188 90.512846 
L 651.572651 106.624563 
L 653.250383 115.129942 
L 664.994505 178.87624 
L 668.349969 196.531081 
L 670.027701 205.377831 
L 671.705432 213.034462 
L 675.060896 225.838699 
L 678.416359 238.081196 
L 680.094091 243.504837 
L 681.771823 248.290328 
L 683.449554 252.483605 
L 686.805018 259.97245 
L 688.48275 263.524815 
L 690.160481 266.684384 
L 693.515945 271.955324 
L 695.193677 274.322656 
L 696.871408 276.330916 
L 698.54914 277.90802 
L 700.226872 279.179796 
L 701.904604 280.265952 
L 708.615531 283.882803 
L 710.293262 284.70603 
L 711.970994 285.322827 
L 713.648726 285.76531 
L 717.004189 286.310044 
L 725.392848 286.906543 
L 728.748311 287.428501 
L 733.781507 287.878843 
L 737.13697 287.996804 
L 747.203361 288.063736 
L 747.203361 288.063736 
" style="fill:none;stroke:#9400d3;stroke-linecap:round;stroke-width:2.8;"/>
   </g>
   <g id="patch_206">
    <path d="M 442.5805 288.064 
L 442.5805 39.736 
" style="fill:none;stroke:#cccccc;stroke-linecap:square;stroke-linejoin:miter;"/>
   </g>
   <g id="patch_207">
    <path d="M 442.5805 288.064 
L 823.614 288.064 
" style="fill:none;stroke:#cccccc;stroke-linecap:square;stroke-linejoin:miter;"/>
   </g>
   <g id="text_21">
    <!-- modality = TBSS -->
    <defs>
     <path d="M 35.15625 61.1875 
L 35.15625 0 
L 25.875 0 
L 25.875 61.1875 
L 2.25 61.1875 
L 2.25 68.796875 
L 58.796875 68.796875 
L 58.796875 61.1875 
z
" id="LiberationSans-54"/>
     <path d="M 62.109375 19 
Q 62.109375 14.65625 60.421875 10.984375 
Q 58.734375 7.328125 55.21875 4.65625 
Q 51.703125 2 46.359375 0.5 
Q 41.015625 -0.984375 33.6875 -0.984375 
Q 20.84375 -0.984375 13.671875 3.515625 
Q 6.5 8.015625 4.546875 16.5 
L 13.578125 18.3125 
Q 14.265625 15.625 15.671875 13.421875 
Q 17.09375 11.234375 19.5 9.640625 
Q 21.921875 8.0625 25.484375 7.171875 
Q 29.046875 6.296875 34.03125 6.296875 
Q 38.1875 6.296875 41.65625 7 
Q 45.125 7.71875 47.609375 9.171875 
Q 50.09375 10.640625 51.484375 12.953125 
Q 52.875 15.28125 52.875 18.5 
Q 52.875 21.875 51.34375 23.96875 
Q 49.8125 26.078125 47.015625 27.4375 
Q 44.234375 28.8125 40.375 29.734375 
Q 36.53125 30.671875 31.84375 31.734375 
Q 28.953125 32.375 26.046875 33.125 
Q 23.140625 33.890625 20.484375 34.9375 
Q 17.828125 35.984375 15.484375 37.390625 
Q 13.140625 38.8125 11.421875 40.796875 
Q 9.71875 42.78125 8.734375 45.390625 
Q 7.765625 48 7.765625 51.421875 
Q 7.765625 56.296875 9.734375 59.78125 
Q 11.71875 63.28125 15.234375 65.53125 
Q 18.75 67.78125 23.53125 68.796875 
Q 28.328125 69.828125 33.890625 69.828125 
Q 40.28125 69.828125 44.8125 68.828125 
Q 49.359375 67.828125 52.484375 65.8125 
Q 55.609375 63.8125 57.484375 60.859375 
Q 59.375 57.90625 60.5 54 
L 51.3125 52.390625 
Q 50.640625 54.890625 49.34375 56.84375 
Q 48.046875 58.796875 45.9375 60.109375 
Q 43.84375 61.421875 40.84375 62.109375 
Q 37.84375 62.796875 33.796875 62.796875 
Q 29 62.796875 25.75 61.9375 
Q 22.515625 61.078125 20.53125 59.609375 
Q 18.5625 58.15625 17.703125 56.171875 
Q 16.84375 54.203125 16.84375 51.90625 
Q 16.84375 48.828125 18.375 46.84375 
Q 19.921875 44.875 22.5625 43.546875 
Q 25.203125 42.234375 28.65625 41.359375 
Q 32.125 40.484375 36.03125 39.59375 
Q 39.203125 38.875 42.359375 38.109375 
Q 45.515625 37.359375 48.390625 36.296875 
Q 51.265625 35.25 53.78125 33.828125 
Q 56.296875 32.421875 58.15625 30.375 
Q 60.015625 28.328125 61.0625 25.53125 
Q 62.109375 22.75 62.109375 19 
z
" id="LiberationSans-53"/>
    </defs>
    <g style="fill:#262626;" transform="translate(567.318625 33.736)scale(0.176 -0.176)">
     <use xlink:href="#LiberationSans-6d"/>
     <use x="83.300781" xlink:href="#LiberationSans-6f"/>
     <use x="138.916016" xlink:href="#LiberationSans-64"/>
     <use x="194.53125" xlink:href="#LiberationSans-61"/>
     <use x="250.146484" xlink:href="#LiberationSans-6c"/>
     <use x="272.363281" xlink:href="#LiberationSans-69"/>
     <use x="294.580078" xlink:href="#LiberationSans-74"/>
     <use x="322.363281" xlink:href="#LiberationSans-79"/>
     <use x="372.363281" xlink:href="#LiberationSans-20"/>
     <use x="400.146484" xlink:href="#LiberationSans-3d"/>
     <use x="458.544922" xlink:href="#LiberationSans-20"/>
     <use x="486.3125" xlink:href="#LiberationSans-54"/>
     <use x="547.396484" xlink:href="#LiberationSans-42"/>
     <use x="614.095703" xlink:href="#LiberationSans-53"/>
     <use x="680.794922" xlink:href="#LiberationSans-53"/>
    </g>
   </g>
  </g>
  <g id="legend_1">
   <g id="patch_208">
    <path d="M 718.46 172.68 
L 750.46 172.68 
L 750.46 161.48 
L 718.46 161.48 
z
" style="fill:#ff8c00;opacity:0.4;"/>
   </g>
   <g id="text_22">
    <!-- original -->
    <defs>
     <path d="M 6.9375 0 
L 6.9375 40.53125 
Q 6.9375 42.1875 6.90625 43.921875 
Q 6.890625 45.65625 6.828125 47.265625 
Q 6.78125 48.875 6.734375 50.28125 
Q 6.6875 51.703125 6.640625 52.828125 
L 14.9375 52.828125 
Q 14.984375 51.703125 15.0625 50.265625 
Q 15.140625 48.828125 15.203125 47.3125 
Q 15.28125 45.796875 15.296875 44.40625 
Q 15.328125 43.015625 15.328125 42.046875 
L 15.53125 42.046875 
Q 16.453125 45.0625 17.5 47.28125 
Q 18.5625 49.515625 19.96875 50.953125 
Q 21.390625 52.390625 23.34375 53.09375 
Q 25.296875 53.8125 28.078125 53.8125 
Q 29.15625 53.8125 30.125 53.640625 
Q 31.109375 53.46875 31.640625 53.328125 
L 31.640625 45.265625 
Q 30.765625 45.515625 29.59375 45.625 
Q 28.421875 45.75 26.953125 45.75 
Q 23.921875 45.75 21.796875 44.375 
Q 19.671875 43.015625 18.328125 40.59375 
Q 17 38.1875 16.359375 34.84375 
Q 15.71875 31.5 15.71875 27.546875 
L 15.71875 0 
z
" id="LiberationSans-72"/>
     <path d="M 26.765625 -20.75 
Q 22.21875 -20.75 18.703125 -19.8125 
Q 15.1875 -18.890625 12.6875 -17.15625 
Q 10.203125 -15.4375 8.640625 -13.03125 
Q 7.078125 -10.640625 6.390625 -7.71875 
L 15.234375 -6.453125 
Q 16.109375 -10.109375 19.109375 -12.078125 
Q 22.125 -14.0625 27 -14.0625 
Q 29.984375 -14.0625 32.421875 -13.234375 
Q 34.859375 -12.40625 36.5625 -10.5625 
Q 38.28125 -8.734375 39.203125 -5.796875 
Q 40.140625 -2.875 40.140625 1.3125 
L 40.140625 9.8125 
L 40.046875 9.8125 
Q 39.0625 7.8125 37.625 5.984375 
Q 36.1875 4.15625 34.109375 2.734375 
Q 32.03125 1.3125 29.296875 0.453125 
Q 26.5625 -0.390625 23.046875 -0.390625 
Q 18.015625 -0.390625 14.421875 1.296875 
Q 10.84375 2.984375 8.5625 6.34375 
Q 6.296875 9.71875 5.25 14.71875 
Q 4.203125 19.734375 4.203125 26.3125 
Q 4.203125 32.671875 5.25 37.75 
Q 6.296875 42.828125 8.65625 46.359375 
Q 11.03125 49.90625 14.8125 51.78125 
Q 18.609375 53.65625 24.03125 53.65625 
Q 29.640625 53.65625 33.765625 51.09375 
Q 37.890625 48.53125 40.140625 43.796875 
L 40.234375 43.796875 
Q 40.234375 45.015625 40.296875 46.53125 
Q 40.375 48.046875 40.453125 49.390625 
Q 40.53125 50.734375 40.625 51.703125 
Q 40.71875 52.6875 40.828125 52.828125 
L 49.171875 52.828125 
Q 49.125 52.390625 49.078125 51.34375 
Q 49.03125 50.296875 48.96875 48.828125 
Q 48.921875 47.359375 48.890625 45.578125 
Q 48.875 43.796875 48.875 41.890625 
L 48.875 1.515625 
Q 48.875 -9.578125 43.421875 -15.15625 
Q 37.984375 -20.75 26.765625 -20.75 
z
M 40.140625 26.421875 
Q 40.140625 31.9375 38.9375 35.859375 
Q 37.75 39.796875 35.796875 42.28125 
Q 33.84375 44.78125 31.328125 45.953125 
Q 28.8125 47.125 26.171875 47.125 
Q 22.796875 47.125 20.375 45.953125 
Q 17.96875 44.78125 16.375 42.265625 
Q 14.796875 39.75 14.03125 35.8125 
Q 13.28125 31.890625 13.28125 26.421875 
Q 13.28125 20.703125 14.03125 16.8125 
Q 14.796875 12.9375 16.359375 10.546875 
Q 17.921875 8.15625 20.3125 7.125 
Q 22.703125 6.109375 26.03125 6.109375 
Q 28.65625 6.109375 31.171875 7.21875 
Q 33.6875 8.34375 35.6875 10.78125 
Q 37.703125 13.234375 38.921875 17.09375 
Q 40.140625 20.953125 40.140625 26.421875 
z
" id="LiberationSans-67"/>
     <path d="M 40.28125 0 
L 40.28125 33.5 
Q 40.28125 37.359375 39.71875 39.9375 
Q 39.15625 42.53125 37.890625 44.109375 
Q 36.625 45.703125 34.546875 46.359375 
Q 32.46875 47.015625 29.390625 47.015625 
Q 26.265625 47.015625 23.75 45.921875 
Q 21.234375 44.828125 19.453125 42.75 
Q 17.671875 40.671875 16.6875 37.625 
Q 15.71875 34.578125 15.71875 30.609375 
L 15.71875 0 
L 6.9375 0 
L 6.9375 41.546875 
Q 6.9375 43.21875 6.90625 45.046875 
Q 6.890625 46.875 6.828125 48.5 
Q 6.78125 50.140625 6.734375 51.3125 
Q 6.6875 52.484375 6.640625 52.828125 
L 14.9375 52.828125 
Q 14.984375 52.59375 15.03125 51.515625 
Q 15.09375 50.4375 15.15625 49.046875 
Q 15.234375 47.65625 15.28125 46.21875 
Q 15.328125 44.78125 15.328125 43.796875 
L 15.484375 43.796875 
Q 16.75 46.09375 18.265625 47.953125 
Q 19.78125 49.8125 21.78125 51.09375 
Q 23.78125 52.390625 26.359375 53.09375 
Q 28.953125 53.8125 32.375 53.8125 
Q 36.765625 53.8125 39.9375 52.734375 
Q 43.109375 51.65625 45.15625 49.40625 
Q 47.21875 47.171875 48.171875 43.625 
Q 49.125 40.09375 49.125 35.203125 
L 49.125 0 
z
" id="LiberationSans-6e"/>
    </defs>
    <g style="fill:#262626;" transform="translate(763.26 172.68)scale(0.16 -0.16)">
     <use xlink:href="#LiberationSans-6f"/>
     <use x="55.615234" xlink:href="#LiberationSans-72"/>
     <use x="88.916016" xlink:href="#LiberationSans-69"/>
     <use x="111.132812" xlink:href="#LiberationSans-67"/>
     <use x="166.748047" xlink:href="#LiberationSans-69"/>
     <use x="188.964844" xlink:href="#LiberationSans-6e"/>
     <use x="244.580078" xlink:href="#LiberationSans-61"/>
     <use x="300.195312" xlink:href="#LiberationSans-6c"/>
    </g>
   </g>
   <g id="patch_209">
    <path d="M 718.46 195.595 
L 750.46 195.595 
L 750.46 184.395 
L 718.46 184.395 
z
" style="fill:#9400d3;opacity:0.4;"/>
   </g>
   <g id="text_23">
    <!-- corrected -->
    <defs>
     <path d="M 13.421875 26.65625 
Q 13.421875 22.125 14.078125 18.3125 
Q 14.75 14.5 16.3125 11.734375 
Q 17.875 8.984375 20.4375 7.46875 
Q 23 5.953125 26.765625 5.953125 
Q 31.453125 5.953125 34.59375 8.484375 
Q 37.75 11.03125 38.484375 16.3125 
L 47.359375 15.71875 
Q 46.921875 12.453125 45.453125 9.421875 
Q 44 6.390625 41.484375 4.09375 
Q 38.96875 1.8125 35.34375 0.40625 
Q 31.734375 -0.984375 27 -0.984375 
Q 20.796875 -0.984375 16.453125 1.109375 
Q 12.109375 3.21875 9.390625 6.90625 
Q 6.6875 10.59375 5.46875 15.59375 
Q 4.25 20.609375 4.25 26.46875 
Q 4.25 31.78125 5.125 35.859375 
Q 6 39.9375 7.59375 42.984375 
Q 9.1875 46.046875 11.328125 48.125 
Q 13.484375 50.203125 15.984375 51.4375 
Q 18.5 52.6875 21.28125 53.25 
Q 24.078125 53.8125 26.90625 53.8125 
Q 31.34375 53.8125 34.8125 52.59375 
Q 38.28125 51.375 40.796875 49.25 
Q 43.3125 47.125 44.875 44.234375 
Q 46.4375 41.359375 47.078125 38.03125 
L 38.03125 37.359375 
Q 37.359375 41.75 34.5625 44.328125 
Q 31.78125 46.921875 26.65625 46.921875 
Q 22.90625 46.921875 20.390625 45.671875 
Q 17.875 44.4375 16.3125 41.921875 
Q 14.75 39.40625 14.078125 35.59375 
Q 13.421875 31.78125 13.421875 26.65625 
z
" id="LiberationSans-63"/>
     <path d="M 13.484375 24.5625 
Q 13.484375 20.40625 14.328125 16.90625 
Q 15.1875 13.421875 16.96875 10.90625 
Q 18.75 8.40625 21.53125 7 
Q 24.3125 5.609375 28.21875 5.609375 
Q 33.9375 5.609375 37.375 7.90625 
Q 40.828125 10.203125 42.046875 13.71875 
L 49.75 11.53125 
Q 48.921875 9.328125 47.4375 7.109375 
Q 45.953125 4.890625 43.453125 3.09375 
Q 40.96875 1.3125 37.234375 0.15625 
Q 33.5 -0.984375 28.21875 -0.984375 
Q 16.5 -0.984375 10.375 6 
Q 4.25 12.984375 4.25 26.765625 
Q 4.25 34.1875 6.09375 39.328125 
Q 7.953125 44.484375 11.171875 47.703125 
Q 14.40625 50.921875 18.703125 52.359375 
Q 23 53.8125 27.875 53.8125 
Q 34.515625 53.8125 38.984375 51.65625 
Q 43.453125 49.515625 46.15625 45.71875 
Q 48.875 41.9375 50.015625 36.8125 
Q 51.171875 31.6875 51.171875 25.734375 
L 51.171875 24.5625 
z
M 42.09375 31.296875 
Q 41.359375 39.65625 37.84375 43.484375 
Q 34.328125 47.3125 27.734375 47.3125 
Q 25.53125 47.3125 23.109375 46.609375 
Q 20.703125 45.90625 18.65625 44.09375 
Q 16.609375 42.28125 15.1875 39.171875 
Q 13.765625 36.078125 13.578125 31.296875 
z
" id="LiberationSans-65"/>
    </defs>
    <g style="fill:#262626;" transform="translate(763.26 195.595)scale(0.16 -0.16)">
     <use xlink:href="#LiberationSans-63"/>
     <use x="50" xlink:href="#LiberationSans-6f"/>
     <use x="105.615234" xlink:href="#LiberationSans-72"/>
     <use x="138.916016" xlink:href="#LiberationSans-72"/>
     <use x="172.216797" xlink:href="#LiberationSans-65"/>
     <use x="227.832031" xlink:href="#LiberationSans-63"/>
     <use x="277.832031" xlink:href="#LiberationSans-74"/>
     <use x="305.615234" xlink:href="#LiberationSans-65"/>
     <use x="361.230469" xlink:href="#LiberationSans-64"/>
    </g>
   </g>
  </g>
 </g>
 <defs>
  <clipPath id="p6416d55fb7">
   <rect height="248.328" width="381.0335" x="40.811" y="39.736"/>
  </clipPath>
  <clipPath id="p8a96dbba31">
   <rect height="248.328" width="381.0335" x="442.5805" y="39.736"/>
  </clipPath>
 </defs>
</svg>
