<?xml version="1.0" encoding="utf-8" standalone="no"?>
<!DOCTYPE svg PUBLIC "-//W3C//DTD SVG 1.1//EN"
  "http://www.w3.org/Graphics/SVG/1.1/DTD/svg11.dtd">
<!-- Created with matplotlib (http://matplotlib.org/) -->
<svg height="360pt" version="1.1" viewBox="0 0 844 360" width="844pt" xmlns="http://www.w3.org/2000/svg" xmlns:xlink="http://www.w3.org/1999/xlink">
 <defs>
  <style type="text/css">
*{stroke-linecap:butt;stroke-linejoin:round;}
  </style>
 </defs>
 <g id="figure_1">
  <g id="patch_1">
   <path d="M 0 360 
L 844.35 360 
L 844.35 0 
L 0 0 
z
" style="fill:none;"/>
  </g>
  <g id="axes_1">
   <g id="patch_2">
    <path d="M 40.811 288.064 
L 421.8445 288.064 
L 421.8445 39.736 
L 40.811 39.736 
z
" style="fill:none;"/>
   </g>
   <g id="matplotlib.axis_1">
    <g id="xtick_1">
     <g id="line2d_1">
      <path clip-path="url(#pd852bc44d5)" d="M 77.762012 288.064 
L 77.762012 39.736 
" style="fill:none;stroke:#cccccc;stroke-linecap:round;stroke-width:1.6;"/>
     </g>
     <g id="line2d_2"/>
     <g id="text_1">
      <!-- −0.4 -->
      <defs>
       <path d="M 4.9375 29.6875 
L 4.9375 36.8125 
L 53.515625 36.8125 
L 53.515625 29.6875 
z
" id="LiberationSans-2212"/>
       <path d="M 51.703125 34.421875 
Q 51.703125 24.515625 49.828125 17.75 
Q 47.953125 10.984375 44.703125 6.8125 
Q 41.453125 2.640625 37.0625 0.828125 
Q 32.671875 -0.984375 27.6875 -0.984375 
Q 22.65625 -0.984375 18.3125 0.828125 
Q 13.96875 2.640625 10.765625 6.78125 
Q 7.5625 10.9375 5.734375 17.703125 
Q 3.90625 24.46875 3.90625 34.421875 
Q 3.90625 44.828125 5.734375 51.640625 
Q 7.5625 58.453125 10.78125 62.5 
Q 14.015625 66.546875 18.40625 68.1875 
Q 22.796875 69.828125 27.984375 69.828125 
Q 32.90625 69.828125 37.21875 68.1875 
Q 41.546875 66.546875 44.765625 62.5 
Q 48 58.453125 49.84375 51.640625 
Q 51.703125 44.828125 51.703125 34.421875 
z
M 42.78125 34.421875 
Q 42.78125 42.625 41.796875 48.0625 
Q 40.828125 53.515625 38.921875 56.765625 
Q 37.015625 60.015625 34.25 61.359375 
Q 31.5 62.703125 27.984375 62.703125 
Q 24.265625 62.703125 21.4375 61.328125 
Q 18.609375 59.96875 16.671875 56.71875 
Q 14.75 53.46875 13.765625 48.015625 
Q 12.796875 42.578125 12.796875 34.421875 
Q 12.796875 26.515625 13.796875 21.09375 
Q 14.796875 15.671875 16.71875 12.375 
Q 18.65625 9.078125 21.4375 7.640625 
Q 24.21875 6.203125 27.78125 6.203125 
Q 31.25 6.203125 34.03125 7.640625 
Q 36.8125 9.078125 38.734375 12.375 
Q 40.671875 15.671875 41.71875 21.09375 
Q 42.78125 26.515625 42.78125 34.421875 
z
" id="LiberationSans-30"/>
       <path d="M 9.125 0 
L 9.125 10.6875 
L 18.65625 10.6875 
L 18.65625 0 
z
" id="LiberationSans-2e"/>
       <path d="M 43.015625 15.578125 
L 43.015625 0 
L 34.71875 0 
L 34.71875 15.578125 
L 2.296875 15.578125 
L 2.296875 22.40625 
L 33.796875 68.796875 
L 43.015625 68.796875 
L 43.015625 22.515625 
L 52.6875 22.515625 
L 52.6875 15.578125 
z
M 34.71875 58.890625 
Q 34.625 58.640625 34.234375 57.9375 
Q 33.84375 57.234375 33.34375 56.34375 
Q 32.859375 55.46875 32.34375 54.5625 
Q 31.84375 53.65625 31.453125 53.078125 
L 13.8125 27.09375 
Q 13.578125 26.703125 13.109375 26.0625 
Q 12.640625 25.4375 12.15625 24.78125 
Q 11.671875 24.125 11.171875 23.484375 
Q 10.6875 22.859375 10.40625 22.515625 
L 34.71875 22.515625 
z
" id="LiberationSans-34"/>
      </defs>
      <g style="fill:#262626;" transform="translate(61.969512 310.859)scale(0.16 -0.16)">
       <use xlink:href="#LiberationSans-2212"/>
       <use x="58.398438" xlink:href="#LiberationSans-30"/>
       <use x="114.013672" xlink:href="#LiberationSans-2e"/>
       <use x="141.796875" xlink:href="#LiberationSans-34"/>
      </g>
     </g>
    </g>
    <g id="xtick_2">
     <g id="line2d_3">
      <path clip-path="url(#pd852bc44d5)" d="M 157.487806 288.064 
L 157.487806 39.736 
" style="fill:none;stroke:#cccccc;stroke-linecap:round;stroke-width:1.6;"/>
     </g>
     <g id="line2d_4"/>
     <g id="text_2">
      <!-- −0.2 -->
      <defs>
       <path d="M 5.03125 0 
L 5.03125 6.203125 
Q 7.515625 11.921875 11.109375 16.28125 
Q 14.703125 20.65625 18.65625 24.1875 
Q 22.609375 27.734375 26.484375 30.765625 
Q 30.375 33.796875 33.5 36.8125 
Q 36.625 39.84375 38.546875 43.15625 
Q 40.484375 46.484375 40.484375 50.6875 
Q 40.484375 53.609375 39.59375 55.828125 
Q 38.71875 58.0625 37.0625 59.5625 
Q 35.40625 61.078125 33.078125 61.828125 
Q 30.765625 62.59375 27.9375 62.59375 
Q 25.296875 62.59375 22.96875 61.859375 
Q 20.65625 61.140625 18.84375 59.671875 
Q 17.046875 58.203125 15.890625 56.03125 
Q 14.75 53.859375 14.40625 50.984375 
L 5.421875 51.8125 
Q 5.859375 55.515625 7.46875 58.78125 
Q 9.078125 62.0625 11.90625 64.53125 
Q 14.75 67 18.71875 68.40625 
Q 22.703125 69.828125 27.9375 69.828125 
Q 33.0625 69.828125 37.0625 68.609375 
Q 41.0625 67.390625 43.8125 64.984375 
Q 46.578125 62.59375 48.046875 59.078125 
Q 49.515625 55.5625 49.515625 50.984375 
Q 49.515625 47.515625 48.265625 44.390625 
Q 47.015625 41.265625 44.9375 38.421875 
Q 42.875 35.59375 40.140625 32.953125 
Q 37.40625 30.328125 34.421875 27.8125 
Q 31.453125 25.296875 28.421875 22.828125 
Q 25.390625 20.359375 22.71875 17.859375 
Q 20.0625 15.375 17.96875 12.8125 
Q 15.875 10.25 14.703125 7.46875 
L 50.59375 7.46875 
L 50.59375 0 
z
" id="LiberationSans-32"/>
      </defs>
      <g style="fill:#262626;" transform="translate(141.695306 310.859)scale(0.16 -0.16)">
       <use xlink:href="#LiberationSans-2212"/>
       <use x="58.398438" xlink:href="#LiberationSans-30"/>
       <use x="114.013672" xlink:href="#LiberationSans-2e"/>
       <use x="141.796875" xlink:href="#LiberationSans-32"/>
      </g>
     </g>
    </g>
    <g id="xtick_3">
     <g id="line2d_5">
      <path clip-path="url(#pd852bc44d5)" d="M 237.2136 288.064 
L 237.2136 39.736 
" style="fill:none;stroke:#cccccc;stroke-linecap:round;stroke-width:1.6;"/>
     </g>
     <g id="line2d_6"/>
     <g id="text_3">
      <!-- 0.0 -->
      <g style="fill:#262626;" transform="translate(226.0936 310.859)scale(0.16 -0.16)">
       <use xlink:href="#LiberationSans-30"/>
       <use x="55.615234" xlink:href="#LiberationSans-2e"/>
       <use x="83.398438" xlink:href="#LiberationSans-30"/>
      </g>
     </g>
    </g>
    <g id="xtick_4">
     <g id="line2d_7">
      <path clip-path="url(#pd852bc44d5)" d="M 316.939395 288.064 
L 316.939395 39.736 
" style="fill:none;stroke:#cccccc;stroke-linecap:round;stroke-width:1.6;"/>
     </g>
     <g id="line2d_8"/>
     <g id="text_4">
      <!-- 0.2 -->
      <g style="fill:#262626;" transform="translate(305.819395 310.859)scale(0.16 -0.16)">
       <use xlink:href="#LiberationSans-30"/>
       <use x="55.615234" xlink:href="#LiberationSans-2e"/>
       <use x="83.398438" xlink:href="#LiberationSans-32"/>
      </g>
     </g>
    </g>
    <g id="xtick_5">
     <g id="line2d_9">
      <path clip-path="url(#pd852bc44d5)" d="M 396.665189 288.064 
L 396.665189 39.736 
" style="fill:none;stroke:#cccccc;stroke-linecap:round;stroke-width:1.6;"/>
     </g>
     <g id="line2d_10"/>
     <g id="text_5">
      <!-- 0.4 -->
      <g style="fill:#262626;" transform="translate(385.545189 310.859)scale(0.16 -0.16)">
       <use xlink:href="#LiberationSans-30"/>
       <use x="55.615234" xlink:href="#LiberationSans-2e"/>
       <use x="83.398438" xlink:href="#LiberationSans-34"/>
      </g>
     </g>
    </g>
    <g id="text_6">
     <!-- $\rho$(X, y) -->
     <defs>
      <path d="M 18.796875 44.921875 
Q 22.703125 49.90625 30.953125 54.296875 
Q 34.1875 56 43.0625 56 
Q 53.03125 56 57.71875 48.09375 
Q 62.40625 40.1875 59.90625 27.296875 
Q 57.375 14.40625 49.609375 6.484375 
Q 41.84375 -1.421875 31.890625 -1.421875 
Q 25.875 -1.421875 22.015625 0.984375 
Q 18.171875 3.328125 16.3125 8.203125 
L 10.640625 -20.796875 
L 1.609375 -20.796875 
L 10.890625 26.8125 
Q 13.09375 38.09375 18.796875 44.921875 
z
M 50.59375 27.296875 
Q 52.484375 37.203125 49.515625 42.875 
Q 46.53125 48.484375 39.40625 48.484375 
Q 32.28125 48.484375 27.09375 42.875 
Q 21.921875 37.203125 20.015625 27.296875 
Q 18.0625 17.390625 21.046875 11.71875 
Q 24.03125 6.109375 31.15625 6.109375 
Q 38.28125 6.109375 43.453125 11.71875 
Q 48.640625 17.390625 50.59375 27.296875 
z
" id="DejaVuSans-Oblique-3c1"/>
      <path d="M 6.203125 25.984375 
Q 6.203125 32.765625 7.21875 38.96875 
Q 8.25 45.171875 10.4375 50.875 
Q 12.640625 56.59375 16.0625 61.953125 
Q 19.484375 67.328125 24.21875 72.46875 
L 32.71875 72.46875 
Q 28.125 67.328125 24.78125 61.9375 
Q 21.4375 56.546875 19.28125 50.796875 
Q 17.140625 45.0625 16.09375 38.859375 
Q 15.046875 32.671875 15.046875 25.875 
Q 15.046875 19.09375 16.09375 12.890625 
Q 17.140625 6.6875 19.28125 0.921875 
Q 21.4375 -4.828125 24.78125 -10.203125 
Q 28.125 -15.578125 32.71875 -20.703125 
L 24.21875 -20.703125 
Q 19.484375 -15.578125 16.0625 -10.203125 
Q 12.640625 -4.828125 10.4375 0.875 
Q 8.25 6.59375 7.21875 12.765625 
Q 6.203125 18.953125 6.203125 25.78125 
z
" id="LiberationSans-28"/>
      <path d="M 54.296875 0 
L 33.640625 30.078125 
L 12.546875 0 
L 2.25 0 
L 28.421875 35.75 
L 4.25 68.796875 
L 14.546875 68.796875 
L 33.6875 41.796875 
L 52.296875 68.796875 
L 62.59375 68.796875 
L 39.0625 36.078125 
L 64.59375 0 
z
" id="LiberationSans-58"/>
      <path d="M 18.796875 10.6875 
L 18.796875 2.484375 
Q 18.796875 -0.09375 18.578125 -2.21875 
Q 18.359375 -4.34375 17.875 -6.171875 
Q 17.390625 -8.015625 16.671875 -9.625 
Q 15.96875 -11.234375 14.984375 -12.796875 
L 8.984375 -12.796875 
Q 11.1875 -9.625 12.375 -6.390625 
Q 13.578125 -3.171875 13.578125 0 
L 9.28125 0 
L 9.28125 10.6875 
z
" id="LiberationSans-2c"/>
      <path id="LiberationSans-20"/>
      <path d="M 29.5 0 
Q 27.640625 -4.78125 25.703125 -8.609375 
Q 23.78125 -12.453125 21.390625 -15.15625 
Q 19 -17.875 16.0625 -19.3125 
Q 13.140625 -20.75 9.328125 -20.75 
Q 7.671875 -20.75 6.25 -20.65625 
Q 4.828125 -20.5625 3.265625 -20.21875 
L 3.265625 -13.625 
Q 4.203125 -13.765625 5.375 -13.84375 
Q 6.546875 -13.921875 7.375 -13.921875 
Q 11.234375 -13.921875 14.546875 -11.03125 
Q 17.875 -8.15625 20.359375 -1.859375 
L 21.1875 0.25 
L 0.25 52.828125 
L 9.625 52.828125 
L 20.75 23.640625 
Q 21.234375 22.3125 21.984375 20.109375 
Q 22.75 17.921875 23.5 15.71875 
Q 24.265625 13.53125 24.84375 11.765625 
Q 25.4375 10.015625 25.53125 9.578125 
Q 25.6875 10.109375 26.25 11.6875 
Q 26.8125 13.28125 27.515625 15.234375 
Q 28.21875 17.1875 28.953125 19.1875 
Q 29.6875 21.1875 30.171875 22.65625 
L 40.53125 52.828125 
L 49.8125 52.828125 
z
" id="LiberationSans-79"/>
      <path d="M 27.09375 25.78125 
Q 27.09375 18.953125 26.0625 12.765625 
Q 25.046875 6.59375 22.84375 0.875 
Q 20.65625 -4.828125 17.234375 -10.203125 
Q 13.8125 -15.578125 9.078125 -20.703125 
L 0.59375 -20.703125 
Q 5.171875 -15.578125 8.515625 -10.203125 
Q 11.859375 -4.828125 14 0.921875 
Q 16.15625 6.6875 17.203125 12.890625 
Q 18.265625 19.09375 18.265625 25.875 
Q 18.265625 32.671875 17.203125 38.859375 
Q 16.15625 45.0625 14 50.796875 
Q 11.859375 56.546875 8.515625 61.9375 
Q 5.171875 67.328125 0.59375 72.46875 
L 9.078125 72.46875 
Q 13.8125 67.328125 17.234375 61.953125 
Q 20.65625 56.59375 22.84375 50.875 
Q 25.046875 45.171875 26.0625 38.96875 
Q 27.09375 32.765625 27.09375 25.984375 
z
" id="LiberationSans-29"/>
     </defs>
     <g style="fill:#262626;" transform="translate(204.66375 331.027)scale(0.176 -0.176)">
      <use transform="translate(0 0.53125)" xlink:href="#DejaVuSans-Oblique-3c1"/>
      <use transform="translate(63.476562 0.53125)" xlink:href="#LiberationSans-28"/>
      <use transform="translate(96.777344 0.53125)" xlink:href="#LiberationSans-58"/>
      <use transform="translate(163.476562 0.53125)" xlink:href="#LiberationSans-2c"/>
      <use transform="translate(191.259766 0.53125)" xlink:href="#LiberationSans-20"/>
      <use transform="translate(219.042969 0.53125)" xlink:href="#LiberationSans-79"/>
      <use transform="translate(269.042969 0.53125)" xlink:href="#LiberationSans-29"/>
     </g>
    </g>
   </g>
   <g id="matplotlib.axis_2">
    <g id="ytick_1">
     <g id="line2d_11">
      <path clip-path="url(#pd852bc44d5)" d="M 40.811 288.064 
L 421.8445 288.064 
" style="fill:none;stroke:#cccccc;stroke-linecap:round;stroke-width:1.6;"/>
     </g>
     <g id="line2d_12"/>
     <g id="text_7">
      <!-- 0 -->
      <g style="fill:#262626;" transform="translate(20.7135 293.8615)scale(0.16 -0.16)">
       <use xlink:href="#LiberationSans-30"/>
      </g>
     </g>
    </g>
    <g id="ytick_2">
     <g id="line2d_13">
      <path clip-path="url(#pd852bc44d5)" d="M 40.811 252.282086 
L 421.8445 252.282086 
" style="fill:none;stroke:#cccccc;stroke-linecap:round;stroke-width:1.6;"/>
     </g>
     <g id="line2d_14"/>
     <g id="text_8">
      <!-- 1 -->
      <defs>
       <path d="M 7.625 0 
L 7.625 7.46875 
L 25.140625 7.46875 
L 25.140625 60.40625 
L 9.625 49.3125 
L 9.625 57.625 
L 25.875 68.796875 
L 33.984375 68.796875 
L 33.984375 7.46875 
L 50.734375 7.46875 
L 50.734375 0 
z
" id="LiberationSans-31"/>
      </defs>
      <g style="fill:#262626;" transform="translate(20.7135 258.079586)scale(0.16 -0.16)">
       <use xlink:href="#LiberationSans-31"/>
      </g>
     </g>
    </g>
    <g id="ytick_3">
     <g id="line2d_15">
      <path clip-path="url(#pd852bc44d5)" d="M 40.811 216.500172 
L 421.8445 216.500172 
" style="fill:none;stroke:#cccccc;stroke-linecap:round;stroke-width:1.6;"/>
     </g>
     <g id="line2d_16"/>
     <g id="text_9">
      <!-- 2 -->
      <g style="fill:#262626;" transform="translate(20.7135 222.297672)scale(0.16 -0.16)">
       <use xlink:href="#LiberationSans-32"/>
      </g>
     </g>
    </g>
    <g id="ytick_4">
     <g id="line2d_17">
      <path clip-path="url(#pd852bc44d5)" d="M 40.811 180.718258 
L 421.8445 180.718258 
" style="fill:none;stroke:#cccccc;stroke-linecap:round;stroke-width:1.6;"/>
     </g>
     <g id="line2d_18"/>
     <g id="text_10">
      <!-- 3 -->
      <defs>
       <path d="M 51.21875 19 
Q 51.21875 14.265625 49.671875 10.546875 
Q 48.140625 6.84375 45.1875 4.265625 
Q 42.234375 1.703125 37.859375 0.359375 
Q 33.5 -0.984375 27.875 -0.984375 
Q 21.484375 -0.984375 17.109375 0.609375 
Q 12.75 2.203125 9.90625 4.8125 
Q 7.078125 7.421875 5.65625 10.765625 
Q 4.25 14.109375 3.8125 17.671875 
L 12.890625 18.5 
Q 13.28125 15.765625 14.328125 13.515625 
Q 15.375 11.28125 17.1875 9.671875 
Q 19 8.0625 21.625 7.171875 
Q 24.265625 6.296875 27.875 6.296875 
Q 34.515625 6.296875 38.296875 9.5625 
Q 42.09375 12.84375 42.09375 19.28125 
Q 42.09375 23.09375 40.40625 25.40625 
Q 38.71875 27.734375 36.203125 29.03125 
Q 33.6875 30.328125 30.734375 30.765625 
Q 27.78125 31.203125 25.296875 31.203125 
L 20.3125 31.203125 
L 20.3125 38.8125 
L 25.09375 38.8125 
Q 27.59375 38.8125 30.265625 39.328125 
Q 32.953125 39.84375 35.171875 41.1875 
Q 37.40625 42.53125 38.84375 44.828125 
Q 40.28125 47.125 40.28125 50.6875 
Q 40.28125 56.203125 37.03125 59.390625 
Q 33.796875 62.59375 27.390625 62.59375 
Q 21.578125 62.59375 17.984375 59.609375 
Q 14.40625 56.640625 13.8125 51.21875 
L 4.984375 51.90625 
Q 5.515625 56.453125 7.46875 59.8125 
Q 9.421875 63.1875 12.421875 65.40625 
Q 15.4375 67.625 19.28125 68.71875 
Q 23.140625 69.828125 27.484375 69.828125 
Q 33.25 69.828125 37.390625 68.375 
Q 41.546875 66.9375 44.1875 64.46875 
Q 46.828125 62.015625 48.0625 58.6875 
Q 49.3125 55.375 49.3125 51.609375 
Q 49.3125 48.578125 48.484375 45.9375 
Q 47.65625 43.3125 45.890625 41.203125 
Q 44.140625 39.109375 41.421875 37.59375 
Q 38.71875 36.078125 34.90625 35.296875 
L 34.90625 35.109375 
Q 39.0625 34.671875 42.140625 33.21875 
Q 45.21875 31.78125 47.21875 29.625 
Q 49.21875 27.484375 50.21875 24.75 
Q 51.21875 22.015625 51.21875 19 
z
" id="LiberationSans-33"/>
      </defs>
      <g style="fill:#262626;" transform="translate(20.7135 186.515758)scale(0.16 -0.16)">
       <use xlink:href="#LiberationSans-33"/>
      </g>
     </g>
    </g>
    <g id="ytick_5">
     <g id="line2d_19">
      <path clip-path="url(#pd852bc44d5)" d="M 40.811 144.936343 
L 421.8445 144.936343 
" style="fill:none;stroke:#cccccc;stroke-linecap:round;stroke-width:1.6;"/>
     </g>
     <g id="line2d_20"/>
     <g id="text_11">
      <!-- 4 -->
      <g style="fill:#262626;" transform="translate(20.7135 150.733843)scale(0.16 -0.16)">
       <use xlink:href="#LiberationSans-34"/>
      </g>
     </g>
    </g>
    <g id="ytick_6">
     <g id="line2d_21">
      <path clip-path="url(#pd852bc44d5)" d="M 40.811 109.154429 
L 421.8445 109.154429 
" style="fill:none;stroke:#cccccc;stroke-linecap:round;stroke-width:1.6;"/>
     </g>
     <g id="line2d_22"/>
     <g id="text_12">
      <!-- 5 -->
      <defs>
       <path d="M 51.421875 22.40625 
Q 51.421875 17.234375 49.859375 12.9375 
Q 48.296875 8.640625 45.21875 5.53125 
Q 42.140625 2.4375 37.578125 0.71875 
Q 33.015625 -0.984375 27 -0.984375 
Q 21.578125 -0.984375 17.546875 0.28125 
Q 13.53125 1.5625 10.734375 3.78125 
Q 7.953125 6 6.3125 8.984375 
Q 4.6875 11.96875 4 15.375 
L 12.890625 16.40625 
Q 13.421875 14.453125 14.390625 12.625 
Q 15.375 10.796875 17.0625 9.34375 
Q 18.75 7.90625 21.21875 7.046875 
Q 23.6875 6.203125 27.203125 6.203125 
Q 30.609375 6.203125 33.390625 7.25 
Q 36.1875 8.296875 38.15625 10.34375 
Q 40.140625 12.40625 41.203125 15.375 
Q 42.28125 18.359375 42.28125 22.21875 
Q 42.28125 25.390625 41.25 28.046875 
Q 40.234375 30.71875 38.328125 32.640625 
Q 36.421875 34.578125 33.65625 35.640625 
Q 30.90625 36.71875 27.390625 36.71875 
Q 25.203125 36.71875 23.34375 36.328125 
Q 21.484375 35.9375 19.890625 35.25 
Q 18.3125 34.578125 17.015625 33.671875 
Q 15.71875 32.765625 14.59375 31.78125 
L 6 31.78125 
L 8.296875 68.796875 
L 47.40625 68.796875 
L 47.40625 61.328125 
L 16.3125 61.328125 
L 14.984375 39.5 
Q 17.328125 41.3125 20.84375 42.59375 
Q 24.359375 43.890625 29.203125 43.890625 
Q 34.328125 43.890625 38.421875 42.328125 
Q 42.53125 40.765625 45.40625 37.90625 
Q 48.296875 35.0625 49.859375 31.109375 
Q 51.421875 27.15625 51.421875 22.40625 
z
" id="LiberationSans-35"/>
      </defs>
      <g style="fill:#262626;" transform="translate(20.7135 114.951929)scale(0.16 -0.16)">
       <use xlink:href="#LiberationSans-35"/>
      </g>
     </g>
    </g>
    <g id="ytick_7">
     <g id="line2d_23">
      <path clip-path="url(#pd852bc44d5)" d="M 40.811 73.372515 
L 421.8445 73.372515 
" style="fill:none;stroke:#cccccc;stroke-linecap:round;stroke-width:1.6;"/>
     </g>
     <g id="line2d_24"/>
     <g id="text_13">
      <!-- 6 -->
      <defs>
       <path d="M 51.21875 22.515625 
Q 51.21875 17.328125 49.78125 13 
Q 48.34375 8.6875 45.53125 5.578125 
Q 42.71875 2.484375 38.5625 0.75 
Q 34.421875 -0.984375 29 -0.984375 
Q 23 -0.984375 18.5 1.3125 
Q 14.015625 3.609375 11.03125 7.921875 
Q 8.0625 12.25 6.5625 18.53125 
Q 5.078125 24.8125 5.078125 32.8125 
Q 5.078125 42 6.765625 48.921875 
Q 8.453125 55.859375 11.625 60.5 
Q 14.796875 65.140625 19.359375 67.484375 
Q 23.921875 69.828125 29.6875 69.828125 
Q 33.203125 69.828125 36.28125 69.09375 
Q 39.359375 68.359375 41.875 66.71875 
Q 44.390625 65.09375 46.28125 62.40625 
Q 48.1875 59.71875 49.3125 55.8125 
L 40.921875 54.296875 
Q 39.546875 58.734375 36.546875 60.71875 
Q 33.546875 62.703125 29.59375 62.703125 
Q 25.984375 62.703125 23.046875 60.984375 
Q 20.125 59.28125 18.0625 55.875 
Q 16.015625 52.484375 14.90625 47.359375 
Q 13.8125 42.234375 13.8125 35.40625 
Q 16.21875 39.84375 20.5625 42.15625 
Q 24.90625 44.484375 30.515625 44.484375 
Q 35.203125 44.484375 39.015625 42.96875 
Q 42.828125 41.453125 45.53125 38.59375 
Q 48.25 35.75 49.734375 31.671875 
Q 51.21875 27.59375 51.21875 22.515625 
z
M 42.28125 22.125 
Q 42.28125 25.6875 41.40625 28.5625 
Q 40.53125 31.453125 38.765625 33.46875 
Q 37.015625 35.5 34.421875 36.59375 
Q 31.84375 37.703125 28.421875 37.703125 
Q 26.03125 37.703125 23.578125 36.984375 
Q 21.140625 36.28125 19.15625 34.6875 
Q 17.1875 33.109375 15.9375 30.515625 
Q 14.703125 27.9375 14.703125 24.21875 
Q 14.703125 20.40625 15.671875 17.109375 
Q 16.65625 13.8125 18.484375 11.375 
Q 20.3125 8.9375 22.890625 7.515625 
Q 25.484375 6.109375 28.71875 6.109375 
Q 31.890625 6.109375 34.40625 7.203125 
Q 36.921875 8.296875 38.671875 10.375 
Q 40.4375 12.453125 41.359375 15.421875 
Q 42.28125 18.40625 42.28125 22.125 
z
" id="LiberationSans-36"/>
      </defs>
      <g style="fill:#262626;" transform="translate(20.7135 79.170015)scale(0.16 -0.16)">
       <use xlink:href="#LiberationSans-36"/>
      </g>
     </g>
    </g>
   </g>
   <g id="patch_3">
    <path clip-path="url(#pd852bc44d5)" d="M 67.992178 288.064 
L 74.53659 288.064 
L 74.53659 288.048148 
L 67.992178 288.048148 
z
" style="fill:#b22222;opacity:0.4;"/>
   </g>
   <g id="patch_4">
    <path clip-path="url(#pd852bc44d5)" d="M 74.53659 288.064 
L 81.081002 288.064 
L 81.081002 288.01116 
L 74.53659 288.01116 
z
" style="fill:#b22222;opacity:0.4;"/>
   </g>
   <g id="patch_5">
    <path clip-path="url(#pd852bc44d5)" d="M 81.081002 288.064 
L 87.625415 288.064 
L 87.625415 287.937183 
L 81.081002 287.937183 
z
" style="fill:#b22222;opacity:0.4;"/>
   </g>
   <g id="patch_6">
    <path clip-path="url(#pd852bc44d5)" d="M 87.625415 288.064 
L 94.169827 288.064 
L 94.169827 287.879059 
L 87.625415 287.879059 
z
" style="fill:#b22222;opacity:0.4;"/>
   </g>
   <g id="patch_7">
    <path clip-path="url(#pd852bc44d5)" d="M 94.169827 288.064 
L 100.714239 288.064 
L 100.714239 287.641277 
L 94.169827 287.641277 
z
" style="fill:#b22222;opacity:0.4;"/>
   </g>
   <g id="patch_8">
    <path clip-path="url(#pd852bc44d5)" d="M 100.714239 288.064 
L 107.258651 288.064 
L 107.258651 287.408779 
L 100.714239 287.408779 
z
" style="fill:#b22222;opacity:0.4;"/>
   </g>
   <g id="patch_9">
    <path clip-path="url(#pd852bc44d5)" d="M 107.258651 288.064 
L 113.803063 288.064 
L 113.803063 287.054748 
L 107.258651 287.054748 
z
" style="fill:#b22222;opacity:0.4;"/>
   </g>
   <g id="patch_10">
    <path clip-path="url(#pd852bc44d5)" d="M 113.803063 288.064 
L 120.347475 288.064 
L 120.347475 286.49464 
L 113.803063 286.49464 
z
" style="fill:#b22222;opacity:0.4;"/>
   </g>
   <g id="patch_11">
    <path clip-path="url(#pd852bc44d5)" d="M 120.347475 288.064 
L 126.891887 288.064 
L 126.891887 285.622773 
L 120.347475 285.622773 
z
" style="fill:#b22222;opacity:0.4;"/>
   </g>
   <g id="patch_12">
    <path clip-path="url(#pd852bc44d5)" d="M 126.891887 288.064 
L 133.436299 288.064 
L 133.436299 284.349318 
L 126.891887 284.349318 
z
" style="fill:#b22222;opacity:0.4;"/>
   </g>
   <g id="patch_13">
    <path clip-path="url(#pd852bc44d5)" d="M 133.436299 288.064 
L 139.980711 288.064 
L 139.980711 282.357235 
L 133.436299 282.357235 
z
" style="fill:#b22222;opacity:0.4;"/>
   </g>
   <g id="patch_14">
    <path clip-path="url(#pd852bc44d5)" d="M 139.980711 288.064 
L 146.525123 288.064 
L 146.525123 280.069244 
L 139.980711 280.069244 
z
" style="fill:#b22222;opacity:0.4;"/>
   </g>
   <g id="patch_15">
    <path clip-path="url(#pd852bc44d5)" d="M 146.525123 288.064 
L 153.069535 288.064 
L 153.069535 275.646501 
L 146.525123 275.646501 
z
" style="fill:#b22222;opacity:0.4;"/>
   </g>
   <g id="patch_16">
    <path clip-path="url(#pd852bc44d5)" d="M 153.069535 288.064 
L 159.613948 288.064 
L 159.613948 270.351891 
L 153.069535 270.351891 
z
" style="fill:#b22222;opacity:0.4;"/>
   </g>
   <g id="patch_17">
    <path clip-path="url(#pd852bc44d5)" d="M 159.613948 288.064 
L 166.15836 288.064 
L 166.15836 263.836667 
L 159.613948 263.836667 
z
" style="fill:#b22222;opacity:0.4;"/>
   </g>
   <g id="patch_18">
    <path clip-path="url(#pd852bc44d5)" d="M 166.15836 288.064 
L 172.702772 288.064 
L 172.702772 253.759999 
L 166.15836 253.759999 
z
" style="fill:#b22222;opacity:0.4;"/>
   </g>
   <g id="patch_19">
    <path clip-path="url(#pd852bc44d5)" d="M 172.702772 288.064 
L 179.247184 288.064 
L 179.247184 244.090202 
L 172.702772 244.090202 
z
" style="fill:#b22222;opacity:0.4;"/>
   </g>
   <g id="patch_20">
    <path clip-path="url(#pd852bc44d5)" d="M 179.247184 288.064 
L 185.791596 288.064 
L 185.791596 233.035986 
L 179.247184 233.035986 
z
" style="fill:#b22222;opacity:0.4;"/>
   </g>
   <g id="patch_21">
    <path clip-path="url(#pd852bc44d5)" d="M 185.791596 288.064 
L 192.336008 288.064 
L 192.336008 219.746621 
L 185.791596 219.746621 
z
" style="fill:#b22222;opacity:0.4;"/>
   </g>
   <g id="patch_22">
    <path clip-path="url(#pd852bc44d5)" d="M 192.336008 288.064 
L 198.88042 288.064 
L 198.88042 205.421583 
L 192.336008 205.421583 
z
" style="fill:#b22222;opacity:0.4;"/>
   </g>
   <g id="patch_23">
    <path clip-path="url(#pd852bc44d5)" d="M 198.88042 288.064 
L 205.424832 288.064 
L 205.424832 191.133533 
L 198.88042 191.133533 
z
" style="fill:#b22222;opacity:0.4;"/>
   </g>
   <g id="patch_24">
    <path clip-path="url(#pd852bc44d5)" d="M 205.424832 288.064 
L 211.969244 288.064 
L 211.969244 176.570713 
L 205.424832 176.570713 
z
" style="fill:#b22222;opacity:0.4;"/>
   </g>
   <g id="patch_25">
    <path clip-path="url(#pd852bc44d5)" d="M 211.969244 288.064 
L 218.513656 288.064 
L 218.513656 164.903548 
L 211.969244 164.903548 
z
" style="fill:#b22222;opacity:0.4;"/>
   </g>
   <g id="patch_26">
    <path clip-path="url(#pd852bc44d5)" d="M 218.513656 288.064 
L 225.058069 288.064 
L 225.058069 152.147871 
L 218.513656 152.147871 
z
" style="fill:#b22222;opacity:0.4;"/>
   </g>
   <g id="patch_27">
    <path clip-path="url(#pd852bc44d5)" d="M 225.058069 288.064 
L 231.602481 288.064 
L 231.602481 145.326172 
L 225.058069 145.326172 
z
" style="fill:#b22222;opacity:0.4;"/>
   </g>
   <g id="patch_28">
    <path clip-path="url(#pd852bc44d5)" d="M 231.602481 288.064 
L 238.146893 288.064 
L 238.146893 143.862493 
L 231.602481 143.862493 
z
" style="fill:#b22222;opacity:0.4;"/>
   </g>
   <g id="patch_29">
    <path clip-path="url(#pd852bc44d5)" d="M 238.146893 288.064 
L 244.691305 288.064 
L 244.691305 143.238976 
L 238.146893 143.238976 
z
" style="fill:#b22222;opacity:0.4;"/>
   </g>
   <g id="patch_30">
    <path clip-path="url(#pd852bc44d5)" d="M 244.691305 288.064 
L 251.235717 288.064 
L 251.235717 148.596994 
L 244.691305 148.596994 
z
" style="fill:#b22222;opacity:0.4;"/>
   </g>
   <g id="patch_31">
    <path clip-path="url(#pd852bc44d5)" d="M 251.235717 288.064 
L 257.780129 288.064 
L 257.780129 154.150523 
L 251.235717 154.150523 
z
" style="fill:#b22222;opacity:0.4;"/>
   </g>
   <g id="patch_32">
    <path clip-path="url(#pd852bc44d5)" d="M 257.780129 288.064 
L 264.324541 288.064 
L 264.324541 165.183602 
L 257.780129 165.183602 
z
" style="fill:#b22222;opacity:0.4;"/>
   </g>
   <g id="patch_33">
    <path clip-path="url(#pd852bc44d5)" d="M 264.324541 288.064 
L 270.868953 288.064 
L 270.868953 178.076665 
L 264.324541 178.076665 
z
" style="fill:#b22222;opacity:0.4;"/>
   </g>
   <g id="patch_34">
    <path clip-path="url(#pd852bc44d5)" d="M 270.868953 288.064 
L 277.413365 288.064 
L 277.413365 193.759702 
L 270.868953 193.759702 
z
" style="fill:#b22222;opacity:0.4;"/>
   </g>
   <g id="patch_35">
    <path clip-path="url(#pd852bc44d5)" d="M 277.413365 288.064 
L 283.957777 288.064 
L 283.957777 212.755833 
L 277.413365 212.755833 
z
" style="fill:#b22222;opacity:0.4;"/>
   </g>
   <g id="patch_36">
    <path clip-path="url(#pd852bc44d5)" d="M 283.957777 288.064 
L 290.50219 288.064 
L 290.50219 228.290916 
L 283.957777 228.290916 
z
" style="fill:#b22222;opacity:0.4;"/>
   </g>
   <g id="patch_37">
    <path clip-path="url(#pd852bc44d5)" d="M 290.50219 288.064 
L 297.046602 288.064 
L 297.046602 242.864304 
L 290.50219 242.864304 
z
" style="fill:#b22222;opacity:0.4;"/>
   </g>
   <g id="patch_38">
    <path clip-path="url(#pd852bc44d5)" d="M 297.046602 288.064 
L 303.591014 288.064 
L 303.591014 253.300287 
L 297.046602 253.300287 
z
" style="fill:#b22222;opacity:0.4;"/>
   </g>
   <g id="patch_39">
    <path clip-path="url(#pd852bc44d5)" d="M 303.591014 288.064 
L 310.135426 288.064 
L 310.135426 260.840615 
L 303.591014 260.840615 
z
" style="fill:#b22222;opacity:0.4;"/>
   </g>
   <g id="patch_40">
    <path clip-path="url(#pd852bc44d5)" d="M 310.135426 288.064 
L 316.679838 288.064 
L 316.679838 267.894812 
L 310.135426 267.894812 
z
" style="fill:#b22222;opacity:0.4;"/>
   </g>
   <g id="patch_41">
    <path clip-path="url(#pd852bc44d5)" d="M 316.679838 288.064 
L 323.22425 288.064 
L 323.22425 272.661017 
L 316.679838 272.661017 
z
" style="fill:#b22222;opacity:0.4;"/>
   </g>
   <g id="patch_42">
    <path clip-path="url(#pd852bc44d5)" d="M 323.22425 288.064 
L 329.768662 288.064 
L 329.768662 277.115465 
L 323.22425 277.115465 
z
" style="fill:#b22222;opacity:0.4;"/>
   </g>
   <g id="patch_43">
    <path clip-path="url(#pd852bc44d5)" d="M 329.768662 288.064 
L 336.313074 288.064 
L 336.313074 279.398171 
L 329.768662 279.398171 
z
" style="fill:#b22222;opacity:0.4;"/>
   </g>
   <g id="patch_44">
    <path clip-path="url(#pd852bc44d5)" d="M 336.313074 288.064 
L 342.857486 288.064 
L 342.857486 281.289858 
L 336.313074 281.289858 
z
" style="fill:#b22222;opacity:0.4;"/>
   </g>
   <g id="patch_45">
    <path clip-path="url(#pd852bc44d5)" d="M 342.857486 288.064 
L 349.401898 288.064 
L 349.401898 283.577848 
L 342.857486 283.577848 
z
" style="fill:#b22222;opacity:0.4;"/>
   </g>
   <g id="patch_46">
    <path clip-path="url(#pd852bc44d5)" d="M 349.401898 288.064 
L 355.946311 288.064 
L 355.946311 285.141925 
L 349.401898 285.141925 
z
" style="fill:#b22222;opacity:0.4;"/>
   </g>
   <g id="patch_47">
    <path clip-path="url(#pd852bc44d5)" d="M 355.946311 288.064 
L 362.490723 288.064 
L 362.490723 285.770726 
L 355.946311 285.770726 
z
" style="fill:#b22222;opacity:0.4;"/>
   </g>
   <g id="patch_48">
    <path clip-path="url(#pd852bc44d5)" d="M 362.490723 288.064 
L 369.035135 288.064 
L 369.035135 286.663729 
L 362.490723 286.663729 
z
" style="fill:#b22222;opacity:0.4;"/>
   </g>
   <g id="patch_49">
    <path clip-path="url(#pd852bc44d5)" d="M 369.035135 288.064 
L 375.579547 288.064 
L 375.579547 287.054748 
L 369.035135 287.054748 
z
" style="fill:#b22222;opacity:0.4;"/>
   </g>
   <g id="patch_50">
    <path clip-path="url(#pd852bc44d5)" d="M 375.579547 288.064 
L 382.123959 288.064 
L 382.123959 287.403495 
L 375.579547 287.403495 
z
" style="fill:#b22222;opacity:0.4;"/>
   </g>
   <g id="patch_51">
    <path clip-path="url(#pd852bc44d5)" d="M 382.123959 288.064 
L 388.668371 288.064 
L 388.668371 287.921331 
L 382.123959 287.921331 
z
" style="fill:#b22222;opacity:0.4;"/>
   </g>
   <g id="patch_52">
    <path clip-path="url(#pd852bc44d5)" d="M 388.668371 288.064 
L 395.212783 288.064 
L 395.212783 288.016444 
L 388.668371 288.016444 
z
" style="fill:#b22222;opacity:0.4;"/>
   </g>
   <g id="patch_53">
    <path clip-path="url(#pd852bc44d5)" d="M 82.242921 288.064 
L 87.584644 288.064 
L 87.584644 288.025158 
L 82.242921 288.025158 
z
" style="fill:#ff8c00;opacity:0.4;"/>
   </g>
   <g id="patch_54">
    <path clip-path="url(#pd852bc44d5)" d="M 87.584644 288.064 
L 92.926368 288.064 
L 92.926368 288.01221 
L 87.584644 288.01221 
z
" style="fill:#ff8c00;opacity:0.4;"/>
   </g>
   <g id="patch_55">
    <path clip-path="url(#pd852bc44d5)" d="M 92.926368 288.064 
L 98.268092 288.064 
L 98.268092 287.940999 
L 92.926368 287.940999 
z
" style="fill:#ff8c00;opacity:0.4;"/>
   </g>
   <g id="patch_56">
    <path clip-path="url(#pd852bc44d5)" d="M 98.268092 288.064 
L 103.609815 288.064 
L 103.609815 287.869788 
L 98.268092 287.869788 
z
" style="fill:#ff8c00;opacity:0.4;"/>
   </g>
   <g id="patch_57">
    <path clip-path="url(#pd852bc44d5)" d="M 103.609815 288.064 
L 108.951539 288.064 
L 108.951539 287.895683 
L 103.609815 287.895683 
z
" style="fill:#ff8c00;opacity:0.4;"/>
   </g>
   <g id="patch_58">
    <path clip-path="url(#pd852bc44d5)" d="M 108.951539 288.064 
L 114.293263 288.064 
L 114.293263 287.759734 
L 108.951539 287.759734 
z
" style="fill:#ff8c00;opacity:0.4;"/>
   </g>
   <g id="patch_59">
    <path clip-path="url(#pd852bc44d5)" d="M 114.293263 288.064 
L 119.634986 288.064 
L 119.634986 287.64968 
L 114.293263 287.64968 
z
" style="fill:#ff8c00;opacity:0.4;"/>
   </g>
   <g id="patch_60">
    <path clip-path="url(#pd852bc44d5)" d="M 119.634986 288.064 
L 124.97671 288.064 
L 124.97671 287.591417 
L 119.634986 287.591417 
z
" style="fill:#ff8c00;opacity:0.4;"/>
   </g>
   <g id="patch_61">
    <path clip-path="url(#pd852bc44d5)" d="M 124.97671 288.064 
L 130.318434 288.064 
L 130.318434 287.448994 
L 124.97671 287.448994 
z
" style="fill:#ff8c00;opacity:0.4;"/>
   </g>
   <g id="patch_62">
    <path clip-path="url(#pd852bc44d5)" d="M 130.318434 288.064 
L 135.660157 288.064 
L 135.660157 287.21594 
L 130.318434 287.21594 
z
" style="fill:#ff8c00;opacity:0.4;"/>
   </g>
   <g id="patch_63">
    <path clip-path="url(#pd852bc44d5)" d="M 135.660157 288.064 
L 141.001881 288.064 
L 141.001881 286.626829 
L 135.660157 286.626829 
z
" style="fill:#ff8c00;opacity:0.4;"/>
   </g>
   <g id="patch_64">
    <path clip-path="url(#pd852bc44d5)" d="M 141.001881 288.064 
L 146.343605 288.064 
L 146.343605 285.804664 
L 141.001881 285.804664 
z
" style="fill:#ff8c00;opacity:0.4;"/>
   </g>
   <g id="patch_65">
    <path clip-path="url(#pd852bc44d5)" d="M 146.343605 288.064 
L 151.685328 288.064 
L 151.685328 284.878918 
L 146.343605 284.878918 
z
" style="fill:#ff8c00;opacity:0.4;"/>
   </g>
   <g id="patch_66">
    <path clip-path="url(#pd852bc44d5)" d="M 151.685328 288.064 
L 157.027052 288.064 
L 157.027052 283.396431 
L 151.685328 283.396431 
z
" style="fill:#ff8c00;opacity:0.4;"/>
   </g>
   <g id="patch_67">
    <path clip-path="url(#pd852bc44d5)" d="M 157.027052 288.064 
L 162.368776 288.064 
L 162.368776 281.59673 
L 157.027052 281.59673 
z
" style="fill:#ff8c00;opacity:0.4;"/>
   </g>
   <g id="patch_68">
    <path clip-path="url(#pd852bc44d5)" d="M 162.368776 288.064 
L 167.710499 288.064 
L 167.710499 277.803117 
L 162.368776 277.803117 
z
" style="fill:#ff8c00;opacity:0.4;"/>
   </g>
   <g id="patch_69">
    <path clip-path="url(#pd852bc44d5)" d="M 167.710499 288.064 
L 173.052223 288.064 
L 173.052223 273.990082 
L 167.710499 273.990082 
z
" style="fill:#ff8c00;opacity:0.4;"/>
   </g>
   <g id="patch_70">
    <path clip-path="url(#pd852bc44d5)" d="M 173.052223 288.064 
L 178.393946 288.064 
L 178.393946 267.283283 
L 173.052223 267.283283 
z
" style="fill:#ff8c00;opacity:0.4;"/>
   </g>
   <g id="patch_71">
    <path clip-path="url(#pd852bc44d5)" d="M 178.393946 288.064 
L 183.73567 288.064 
L 183.73567 260.693013 
L 178.393946 260.693013 
z
" style="fill:#ff8c00;opacity:0.4;"/>
   </g>
   <g id="patch_72">
    <path clip-path="url(#pd852bc44d5)" d="M 183.73567 288.064 
L 189.077394 288.064 
L 189.077394 250.956502 
L 183.73567 250.956502 
z
" style="fill:#ff8c00;opacity:0.4;"/>
   </g>
   <g id="patch_73">
    <path clip-path="url(#pd852bc44d5)" d="M 189.077394 288.064 
L 194.419117 288.064 
L 194.419117 239.122499 
L 189.077394 239.122499 
z
" style="fill:#ff8c00;opacity:0.4;"/>
   </g>
   <g id="patch_74">
    <path clip-path="url(#pd852bc44d5)" d="M 194.419117 288.064 
L 199.760841 288.064 
L 199.760841 225.378742 
L 194.419117 225.378742 
z
" style="fill:#ff8c00;opacity:0.4;"/>
   </g>
   <g id="patch_75">
    <path clip-path="url(#pd852bc44d5)" d="M 199.760841 288.064 
L 205.102565 288.064 
L 205.102565 205.944564 
L 199.760841 205.944564 
z
" style="fill:#ff8c00;opacity:0.4;"/>
   </g>
   <g id="patch_76">
    <path clip-path="url(#pd852bc44d5)" d="M 205.102565 288.064 
L 210.444288 288.064 
L 210.444288 182.910985 
L 205.102565 182.910985 
z
" style="fill:#ff8c00;opacity:0.4;"/>
   </g>
   <g id="patch_77">
    <path clip-path="url(#pd852bc44d5)" d="M 210.444288 288.064 
L 215.786012 288.064 
L 215.786012 155.805421 
L 210.444288 155.805421 
z
" style="fill:#ff8c00;opacity:0.4;"/>
   </g>
   <g id="patch_78">
    <path clip-path="url(#pd852bc44d5)" d="M 215.786012 288.064 
L 221.127736 288.064 
L 221.127736 134.047169 
L 215.786012 134.047169 
z
" style="fill:#ff8c00;opacity:0.4;"/>
   </g>
   <g id="patch_79">
    <path clip-path="url(#pd852bc44d5)" d="M 221.127736 288.064 
L 226.469459 288.064 
L 226.469459 117.778651 
L 221.127736 117.778651 
z
" style="fill:#ff8c00;opacity:0.4;"/>
   </g>
   <g id="patch_80">
    <path clip-path="url(#pd852bc44d5)" d="M 226.469459 288.064 
L 231.811183 288.064 
L 231.811183 102.863146 
L 226.469459 102.863146 
z
" style="fill:#ff8c00;opacity:0.4;"/>
   </g>
   <g id="patch_81">
    <path clip-path="url(#pd852bc44d5)" d="M 231.811183 288.064 
L 237.152907 288.064 
L 237.152907 93.02953 
L 231.811183 93.02953 
z
" style="fill:#ff8c00;opacity:0.4;"/>
   </g>
   <g id="patch_82">
    <path clip-path="url(#pd852bc44d5)" d="M 237.152907 288.064 
L 242.49463 288.064 
L 242.49463 88.090064 
L 237.152907 88.090064 
z
" style="fill:#ff8c00;opacity:0.4;"/>
   </g>
   <g id="patch_83">
    <path clip-path="url(#pd852bc44d5)" d="M 242.49463 288.064 
L 247.836354 288.064 
L 247.836354 89.60492 
L 242.49463 89.60492 
z
" style="fill:#ff8c00;opacity:0.4;"/>
   </g>
   <g id="patch_84">
    <path clip-path="url(#pd852bc44d5)" d="M 247.836354 288.064 
L 253.178077 288.064 
L 253.178077 94.382542 
L 247.836354 94.382542 
z
" style="fill:#ff8c00;opacity:0.4;"/>
   </g>
   <g id="patch_85">
    <path clip-path="url(#pd852bc44d5)" d="M 253.178077 288.064 
L 258.519801 288.064 
L 258.519801 111.130117 
L 253.178077 111.130117 
z
" style="fill:#ff8c00;opacity:0.4;"/>
   </g>
   <g id="patch_86">
    <path clip-path="url(#pd852bc44d5)" d="M 258.519801 288.064 
L 263.861525 288.064 
L 263.861525 133.069634 
L 258.519801 133.069634 
z
" style="fill:#ff8c00;opacity:0.4;"/>
   </g>
   <g id="patch_87">
    <path clip-path="url(#pd852bc44d5)" d="M 263.861525 288.064 
L 269.203248 288.064 
L 269.203248 159.443664 
L 263.861525 159.443664 
z
" style="fill:#ff8c00;opacity:0.4;"/>
   </g>
   <g id="patch_88">
    <path clip-path="url(#pd852bc44d5)" d="M 269.203248 288.064 
L 274.544972 288.064 
L 274.544972 186.808178 
L 269.203248 186.808178 
z
" style="fill:#ff8c00;opacity:0.4;"/>
   </g>
   <g id="patch_89">
    <path clip-path="url(#pd852bc44d5)" d="M 274.544972 288.064 
L 279.886696 288.064 
L 279.886696 209.149067 
L 274.544972 209.149067 
z
" style="fill:#ff8c00;opacity:0.4;"/>
   </g>
   <g id="patch_90">
    <path clip-path="url(#pd852bc44d5)" d="M 279.886696 288.064 
L 285.228419 288.064 
L 285.228419 231.606483 
L 279.886696 231.606483 
z
" style="fill:#ff8c00;opacity:0.4;"/>
   </g>
   <g id="patch_91">
    <path clip-path="url(#pd852bc44d5)" d="M 285.228419 288.064 
L 290.570143 288.064 
L 290.570143 249.18917 
L 285.228419 249.18917 
z
" style="fill:#ff8c00;opacity:0.4;"/>
   </g>
   <g id="patch_92">
    <path clip-path="url(#pd852bc44d5)" d="M 290.570143 288.064 
L 295.911867 288.064 
L 295.911867 261.644653 
L 290.570143 261.644653 
z
" style="fill:#ff8c00;opacity:0.4;"/>
   </g>
   <g id="patch_93">
    <path clip-path="url(#pd852bc44d5)" d="M 295.911867 288.064 
L 301.25359 288.064 
L 301.25359 269.756253 
L 295.911867 269.756253 
z
" style="fill:#ff8c00;opacity:0.4;"/>
   </g>
   <g id="patch_94">
    <path clip-path="url(#pd852bc44d5)" d="M 301.25359 288.064 
L 306.595314 288.064 
L 306.595314 275.200672 
L 301.25359 275.200672 
z
" style="fill:#ff8c00;opacity:0.4;"/>
   </g>
   <g id="patch_95">
    <path clip-path="url(#pd852bc44d5)" d="M 306.595314 288.064 
L 311.937038 288.064 
L 311.937038 279.53808 
L 306.595314 279.53808 
z
" style="fill:#ff8c00;opacity:0.4;"/>
   </g>
   <g id="patch_96">
    <path clip-path="url(#pd852bc44d5)" d="M 311.937038 288.064 
L 317.278761 288.064 
L 317.278761 283.020954 
L 311.937038 283.020954 
z
" style="fill:#ff8c00;opacity:0.4;"/>
   </g>
   <g id="patch_97">
    <path clip-path="url(#pd852bc44d5)" d="M 317.278761 288.064 
L 322.620485 288.064 
L 322.620485 285.662241 
L 317.278761 285.662241 
z
" style="fill:#ff8c00;opacity:0.4;"/>
   </g>
   <g id="patch_98">
    <path clip-path="url(#pd852bc44d5)" d="M 322.620485 288.064 
L 327.962209 288.064 
L 327.962209 287.002306 
L 322.620485 287.002306 
z
" style="fill:#ff8c00;opacity:0.4;"/>
   </g>
   <g id="patch_99">
    <path clip-path="url(#pd852bc44d5)" d="M 327.962209 288.064 
L 333.303932 288.064 
L 333.303932 287.617312 
L 327.962209 287.617312 
z
" style="fill:#ff8c00;opacity:0.4;"/>
   </g>
   <g id="patch_100">
    <path clip-path="url(#pd852bc44d5)" d="M 333.303932 288.064 
L 338.645656 288.064 
L 338.645656 287.817998 
L 333.303932 287.817998 
z
" style="fill:#ff8c00;opacity:0.4;"/>
   </g>
   <g id="patch_101">
    <path clip-path="url(#pd852bc44d5)" d="M 338.645656 288.064 
L 343.987379 288.064 
L 343.987379 287.921578 
L 338.645656 287.921578 
z
" style="fill:#ff8c00;opacity:0.4;"/>
   </g>
   <g id="patch_102">
    <path clip-path="url(#pd852bc44d5)" d="M 343.987379 288.064 
L 349.329103 288.064 
L 349.329103 287.979841 
L 343.987379 287.979841 
z
" style="fill:#ff8c00;opacity:0.4;"/>
   </g>
   <g id="line2d_25">
    <path clip-path="url(#pd852bc44d5)" d="M 58.680166 288.063946 
L 83.18884 287.955867 
L 94.081585 287.78325 
L 110.420701 287.050099 
L 121.313445 285.951504 
L 124.036631 285.544345 
L 129.483003 284.43698 
L 132.206189 283.765189 
L 137.652562 282.071589 
L 140.375748 281.093618 
L 143.098934 279.923317 
L 145.82212 278.397057 
L 148.545306 276.530699 
L 151.268492 274.494361 
L 153.991678 272.302339 
L 156.714864 269.934067 
L 159.43805 267.347087 
L 162.161236 264.418661 
L 164.884422 260.837986 
L 175.777166 244.199222 
L 183.946725 230.382442 
L 186.669911 225.022825 
L 194.839469 207.285772 
L 197.562655 201.608761 
L 200.285841 195.546617 
L 203.009027 188.999145 
L 205.732213 182.803125 
L 208.455399 177.232779 
L 211.178585 172.087196 
L 216.624957 162.111235 
L 219.348143 157.001206 
L 222.071329 152.208962 
L 224.794516 148.310463 
L 227.517702 145.923832 
L 230.240888 144.902579 
L 238.410446 143.752589 
L 241.133632 143.78657 
L 243.856818 144.867892 
L 249.30319 149.159164 
L 252.026376 151.553814 
L 254.749562 154.622321 
L 257.472748 158.57167 
L 260.195934 163.549369 
L 265.642306 174.339391 
L 268.365492 180.299154 
L 271.088679 186.558664 
L 273.811865 193.236602 
L 281.981423 215.684239 
L 287.427795 228.93272 
L 290.150981 235.197194 
L 292.874167 240.76411 
L 295.597353 245.666389 
L 298.320539 250.10038 
L 301.043725 254.047253 
L 303.766911 257.493283 
L 306.490097 260.628104 
L 311.936469 266.293576 
L 314.659655 268.694289 
L 320.106028 272.752343 
L 322.829214 274.658337 
L 325.5524 276.313333 
L 328.275586 277.704977 
L 330.998772 278.780595 
L 344.614702 283.120604 
L 350.061074 284.475355 
L 352.78426 285.030926 
L 360.953818 286.056412 
L 366.400191 286.664711 
L 377.292935 287.342374 
L 388.185679 287.956702 
L 399.078423 288.061176 
L 404.524795 288.063919 
L 404.524795 288.063919 
" style="fill:none;stroke:#b22222;stroke-linecap:round;stroke-width:2.8;"/>
   </g>
   <g id="line2d_26">
    <path clip-path="url(#pd852bc44d5)" d="M 75.509192 288.063913 
L 93.181862 287.977954 
L 102.018197 287.897452 
L 108.645449 287.834591 
L 132.94537 287.209576 
L 137.363538 286.727718 
L 143.990789 285.730507 
L 150.618041 284.552588 
L 152.827124 284.006143 
L 157.245292 282.459251 
L 159.454376 281.514544 
L 161.663459 280.241035 
L 166.081627 277.20869 
L 168.290711 275.629567 
L 170.499795 273.61565 
L 179.33613 262.990602 
L 181.545213 259.900107 
L 183.754297 256.149178 
L 188.172465 247.11681 
L 190.381549 242.357456 
L 194.799716 231.41724 
L 197.0088 225.379751 
L 199.217884 218.059616 
L 201.426967 209.699634 
L 203.636051 200.887651 
L 205.845135 191.602699 
L 210.263303 171.032482 
L 214.68147 148.079121 
L 216.890554 139.166007 
L 225.726889 111.914132 
L 227.935973 106.155668 
L 230.145057 100.825674 
L 232.35414 96.255355 
L 234.563224 92.769518 
L 236.772308 90.360562 
L 238.981392 88.889187 
L 241.190475 89.011935 
L 243.399559 89.551116 
L 245.608643 89.832273 
L 247.817727 91.127467 
L 250.02681 94.065398 
L 252.235894 99.074466 
L 254.444978 105.926357 
L 256.654062 114.252551 
L 258.863146 123.339435 
L 261.072229 132.97196 
L 265.490397 154.463111 
L 272.117648 187.382201 
L 278.7449 215.558147 
L 283.163067 233.644335 
L 285.372151 241.732555 
L 287.581235 248.377789 
L 289.790318 253.816442 
L 291.999402 258.853388 
L 294.208486 263.265997 
L 296.41757 266.792244 
L 298.626654 269.738894 
L 300.835737 272.218534 
L 305.253905 276.297174 
L 307.462989 278.158532 
L 311.881156 281.316123 
L 314.09024 282.700283 
L 316.299324 283.886848 
L 318.508408 284.944045 
L 320.717491 285.839717 
L 322.926575 286.498762 
L 325.135659 286.956661 
L 329.553826 287.494948 
L 333.971994 287.787896 
L 351.644664 288.04918 
L 356.062832 288.06385 
L 356.062832 288.06385 
" style="fill:none;stroke:#ff8c00;stroke-linecap:round;stroke-width:2.8;"/>
   </g>
   <g id="patch_103">
    <path d="M 40.811 288.064 
L 40.811 39.736 
" style="fill:none;stroke:#cccccc;stroke-linecap:square;stroke-linejoin:miter;"/>
   </g>
   <g id="patch_104">
    <path d="M 40.811 288.064 
L 421.8445 288.064 
" style="fill:none;stroke:#cccccc;stroke-linecap:square;stroke-linejoin:miter;"/>
   </g>
   <g id="text_14">
    <!-- modality = VBM -->
    <defs>
     <path d="M 37.5 0 
L 37.5 33.5 
Q 37.5 37.359375 37.015625 39.9375 
Q 36.53125 42.53125 35.375 44.109375 
Q 34.234375 45.703125 32.375 46.359375 
Q 30.515625 47.015625 27.828125 47.015625 
Q 25.046875 47.015625 22.796875 45.921875 
Q 20.5625 44.828125 18.96875 42.75 
Q 17.390625 40.671875 16.53125 37.625 
Q 15.671875 34.578125 15.671875 30.609375 
L 15.671875 0 
L 6.9375 0 
L 6.9375 41.546875 
Q 6.9375 43.21875 6.90625 45.046875 
Q 6.890625 46.875 6.828125 48.5 
Q 6.78125 50.140625 6.734375 51.3125 
Q 6.6875 52.484375 6.640625 52.828125 
L 14.9375 52.828125 
Q 14.984375 52.59375 15.03125 51.515625 
Q 15.09375 50.4375 15.15625 49.046875 
Q 15.234375 47.65625 15.28125 46.21875 
Q 15.328125 44.78125 15.328125 43.796875 
L 15.484375 43.796875 
Q 16.65625 46.09375 18.015625 47.953125 
Q 19.390625 49.8125 21.21875 51.09375 
Q 23.046875 52.390625 25.40625 53.09375 
Q 27.78125 53.8125 30.90625 53.8125 
Q 36.921875 53.8125 40.40625 51.421875 
Q 43.890625 49.03125 45.265625 43.796875 
L 45.40625 43.796875 
Q 46.578125 46.09375 48.046875 47.953125 
Q 49.515625 49.8125 51.46875 51.09375 
Q 53.421875 52.390625 55.859375 53.09375 
Q 58.296875 53.8125 61.421875 53.8125 
Q 65.4375 53.8125 68.328125 52.734375 
Q 71.234375 51.65625 73.09375 49.40625 
Q 74.953125 47.171875 75.828125 43.625 
Q 76.703125 40.09375 76.703125 35.203125 
L 76.703125 0 
L 68.015625 0 
L 68.015625 33.5 
Q 68.015625 37.359375 67.53125 39.9375 
Q 67.046875 42.53125 65.890625 44.109375 
Q 64.75 45.703125 62.890625 46.359375 
Q 61.03125 47.015625 58.34375 47.015625 
Q 55.5625 47.015625 53.3125 45.96875 
Q 51.078125 44.921875 49.484375 42.875 
Q 47.90625 40.828125 47.046875 37.75 
Q 46.1875 34.671875 46.1875 30.609375 
L 46.1875 0 
z
" id="LiberationSans-6d"/>
     <path d="M 51.421875 26.46875 
Q 51.421875 12.59375 45.3125 5.796875 
Q 39.203125 -0.984375 27.59375 -0.984375 
Q 22.078125 -0.984375 17.71875 0.671875 
Q 13.375 2.34375 10.375 5.765625 
Q 7.375 9.1875 5.78125 14.328125 
Q 4.203125 19.484375 4.203125 26.46875 
Q 4.203125 53.8125 27.875 53.8125 
Q 34.03125 53.8125 38.5 52.09375 
Q 42.96875 50.390625 45.828125 46.96875 
Q 48.6875 43.5625 50.046875 38.421875 
Q 51.421875 33.296875 51.421875 26.46875 
z
M 42.1875 26.46875 
Q 42.1875 32.625 41.234375 36.625 
Q 40.28125 40.625 38.453125 43.015625 
Q 36.625 45.40625 33.984375 46.359375 
Q 31.34375 47.3125 28.03125 47.3125 
Q 24.65625 47.3125 21.9375 46.3125 
Q 19.234375 45.3125 17.328125 42.890625 
Q 15.4375 40.484375 14.421875 36.46875 
Q 13.421875 32.46875 13.421875 26.46875 
Q 13.421875 20.3125 14.5 16.28125 
Q 15.578125 12.25 17.453125 9.859375 
Q 19.34375 7.46875 21.90625 6.484375 
Q 24.46875 5.515625 27.484375 5.515625 
Q 30.859375 5.515625 33.59375 6.46875 
Q 36.328125 7.421875 38.234375 9.8125 
Q 40.140625 12.203125 41.15625 16.25 
Q 42.1875 20.3125 42.1875 26.46875 
z
" id="LiberationSans-6f"/>
     <path d="M 40.09375 8.5 
Q 37.640625 3.421875 33.609375 1.21875 
Q 29.59375 -0.984375 23.640625 -0.984375 
Q 13.625 -0.984375 8.90625 5.75 
Q 4.203125 12.5 4.203125 26.171875 
Q 4.203125 53.8125 23.640625 53.8125 
Q 29.640625 53.8125 33.640625 51.609375 
Q 37.640625 49.421875 40.09375 44.625 
L 40.1875 44.625 
Q 40.1875 45.125 40.15625 46.171875 
Q 40.140625 47.21875 40.109375 48.359375 
Q 40.09375 49.515625 40.09375 50.53125 
Q 40.09375 51.5625 40.09375 52 
L 40.09375 72.46875 
L 48.875 72.46875 
L 48.875 10.890625 
Q 48.875 8.984375 48.890625 7.21875 
Q 48.921875 5.46875 48.96875 4 
Q 49.03125 2.546875 49.078125 1.484375 
Q 49.125 0.4375 49.171875 0 
L 40.765625 0 
Q 40.671875 0.484375 40.59375 1.390625 
Q 40.53125 2.296875 40.453125 3.46875 
Q 40.375 4.640625 40.328125 5.9375 
Q 40.28125 7.234375 40.28125 8.5 
z
M 13.421875 26.46875 
Q 13.421875 21 14.109375 17.09375 
Q 14.796875 13.1875 16.3125 10.671875 
Q 17.828125 8.15625 20.171875 6.984375 
Q 22.515625 5.8125 25.875 5.8125 
Q 29.34375 5.8125 32 6.9375 
Q 34.671875 8.0625 36.453125 10.578125 
Q 38.234375 13.09375 39.15625 17.140625 
Q 40.09375 21.1875 40.09375 27.046875 
Q 40.09375 32.671875 39.15625 36.546875 
Q 38.234375 40.4375 36.421875 42.828125 
Q 34.625 45.21875 32 46.265625 
Q 29.390625 47.3125 25.984375 47.3125 
Q 22.75 47.3125 20.40625 46.1875 
Q 18.0625 45.0625 16.5 42.578125 
Q 14.9375 40.09375 14.171875 36.109375 
Q 13.421875 32.125 13.421875 26.46875 
z
" id="LiberationSans-64"/>
     <path d="M 20.21875 -0.984375 
Q 12.25 -0.984375 8.25 3.21875 
Q 4.25 7.421875 4.25 14.75 
Q 4.25 19.96875 6.21875 23.3125 
Q 8.203125 26.65625 11.390625 28.5625 
Q 14.59375 30.46875 18.6875 31.203125 
Q 22.796875 31.9375 27.046875 32.03125 
L 38.921875 32.234375 
L 38.921875 35.109375 
Q 38.921875 38.375 38.234375 40.671875 
Q 37.546875 42.96875 36.125 44.375 
Q 34.71875 45.796875 32.59375 46.453125 
Q 30.46875 47.125 27.59375 47.125 
Q 25.046875 47.125 23 46.75 
Q 20.953125 46.390625 19.4375 45.4375 
Q 17.921875 44.484375 16.984375 42.84375 
Q 16.0625 41.21875 15.765625 38.71875 
L 6.59375 39.546875 
Q 7.078125 42.671875 8.4375 45.28125 
Q 9.8125 47.90625 12.328125 49.796875 
Q 14.84375 51.703125 18.625 52.75 
Q 22.40625 53.8125 27.78125 53.8125 
Q 37.75 53.8125 42.765625 49.234375 
Q 47.796875 44.671875 47.796875 36.03125 
L 47.796875 13.28125 
Q 47.796875 9.375 48.828125 7.390625 
Q 49.859375 5.421875 52.734375 5.421875 
Q 53.46875 5.421875 54.203125 5.515625 
Q 54.9375 5.609375 55.609375 5.765625 
L 55.609375 0.296875 
Q 53.953125 -0.09375 52.3125 -0.28125 
Q 50.6875 -0.484375 48.828125 -0.484375 
Q 46.34375 -0.484375 44.5625 0.171875 
Q 42.78125 0.828125 41.65625 2.171875 
Q 40.53125 3.515625 39.9375 5.484375 
Q 39.359375 7.46875 39.203125 10.109375 
L 38.921875 10.109375 
Q 37.5 7.5625 35.8125 5.515625 
Q 34.125 3.46875 31.875 2.03125 
Q 29.640625 0.59375 26.78125 -0.1875 
Q 23.921875 -0.984375 20.21875 -0.984375 
z
M 22.21875 5.609375 
Q 26.421875 5.609375 29.5625 7.140625 
Q 32.71875 8.6875 34.78125 11.078125 
Q 36.859375 13.484375 37.890625 16.3125 
Q 38.921875 19.140625 38.921875 21.734375 
L 38.921875 26.078125 
L 29.296875 25.875 
Q 26.078125 25.828125 23.171875 25.40625 
Q 20.265625 25 18.0625 23.78125 
Q 15.875 22.5625 14.578125 20.359375 
Q 13.28125 18.171875 13.28125 14.59375 
Q 13.28125 10.296875 15.59375 7.953125 
Q 17.921875 5.609375 22.21875 5.609375 
z
" id="LiberationSans-61"/>
     <path d="M 6.734375 0 
L 6.734375 72.46875 
L 15.53125 72.46875 
L 15.53125 0 
z
" id="LiberationSans-6c"/>
     <path d="M 6.6875 64.0625 
L 6.6875 72.46875 
L 15.484375 72.46875 
L 15.484375 64.0625 
z
M 6.6875 0 
L 6.6875 52.828125 
L 15.484375 52.828125 
L 15.484375 0 
z
" id="LiberationSans-69"/>
     <path d="M 27.046875 0.390625 
Q 25.046875 -0.140625 22.96875 -0.453125 
Q 20.90625 -0.78125 18.171875 -0.78125 
Q 7.625 -0.78125 7.625 11.1875 
L 7.625 46.4375 
L 1.515625 46.4375 
L 1.515625 52.828125 
L 7.953125 52.828125 
L 10.546875 64.65625 
L 16.40625 64.65625 
L 16.40625 52.828125 
L 26.171875 52.828125 
L 26.171875 46.4375 
L 16.40625 46.4375 
L 16.40625 13.09375 
Q 16.40625 9.28125 17.640625 7.734375 
Q 18.890625 6.203125 21.96875 6.203125 
Q 23.25 6.203125 24.4375 6.390625 
Q 25.640625 6.59375 27.046875 6.890625 
z
" id="LiberationSans-74"/>
     <path d="M 4.890625 41.796875 
L 4.890625 49.03125 
L 53.46875 49.03125 
L 53.46875 41.796875 
z
M 4.890625 16.796875 
L 4.890625 24.03125 
L 53.46875 24.03125 
L 53.46875 16.796875 
z
" id="LiberationSans-3d"/>
     <path d="M 38.1875 0 
L 28.515625 0 
L 0.4375 68.796875 
L 10.25 68.796875 
L 29.296875 20.359375 
Q 30.03125 18.171875 30.765625 15.984375 
Q 31.5 13.8125 32.078125 12.109375 
Q 32.765625 10.109375 33.40625 8.203125 
Q 33.984375 10.015625 34.671875 12.015625 
Q 35.25 13.71875 35.953125 15.859375 
Q 36.671875 18.015625 37.5 20.359375 
L 56.453125 68.796875 
L 66.265625 68.796875 
z
" id="LiberationSans-56"/>
     <path d="M 61.421875 19.390625 
Q 61.421875 14.15625 59.375 10.46875 
Q 57.328125 6.78125 53.859375 4.46875 
Q 50.390625 2.15625 45.796875 1.078125 
Q 41.21875 0 36.140625 0 
L 8.203125 0 
L 8.203125 68.796875 
L 33.203125 68.796875 
Q 38.921875 68.796875 43.40625 67.84375 
Q 47.90625 66.890625 51.03125 64.84375 
Q 54.15625 62.796875 55.78125 59.640625 
Q 57.421875 56.5 57.421875 52.09375 
Q 57.421875 49.21875 56.609375 46.671875 
Q 55.8125 44.140625 54.171875 42.0625 
Q 52.546875 39.984375 50.078125 38.5 
Q 47.609375 37.015625 44.34375 36.28125 
Q 48.484375 35.796875 51.6875 34.375 
Q 54.890625 32.953125 57.03125 30.75 
Q 59.1875 28.5625 60.296875 25.65625 
Q 61.421875 22.75 61.421875 19.390625 
z
M 48.046875 50.984375 
Q 48.046875 56.546875 44.234375 58.9375 
Q 40.4375 61.328125 33.203125 61.328125 
L 17.53125 61.328125 
L 17.53125 39.546875 
L 33.203125 39.546875 
Q 37.3125 39.546875 40.140625 40.34375 
Q 42.96875 41.15625 44.71875 42.640625 
Q 46.484375 44.140625 47.265625 46.234375 
Q 48.046875 48.34375 48.046875 50.984375 
z
M 52 20.125 
Q 52 23.390625 50.796875 25.6875 
Q 49.609375 27.984375 47.359375 29.4375 
Q 45.125 30.90625 41.96875 31.59375 
Q 38.8125 32.28125 34.90625 32.28125 
L 17.53125 32.28125 
L 17.53125 7.46875 
L 35.640625 7.46875 
Q 39.203125 7.46875 42.203125 8.046875 
Q 45.21875 8.640625 47.390625 10.109375 
Q 49.5625 11.578125 50.78125 14.015625 
Q 52 16.453125 52 20.125 
z
" id="LiberationSans-42"/>
     <path d="M 66.703125 0 
L 66.703125 45.90625 
Q 66.703125 48.390625 66.75 50.96875 
Q 66.796875 53.5625 66.890625 55.71875 
Q 67 58.203125 67.140625 60.546875 
Q 66.453125 58.0625 65.71875 55.609375 
Q 65.09375 53.515625 64.328125 51.140625 
Q 63.578125 48.78125 62.84375 46.875 
L 45.0625 0 
L 38.53125 0 
L 20.515625 46.875 
Q 20.21875 47.609375 19.890625 48.578125 
Q 19.578125 49.5625 19.203125 50.65625 
Q 18.84375 51.765625 18.46875 52.90625 
Q 18.109375 54.046875 17.78125 55.171875 
Q 16.9375 57.765625 16.15625 60.546875 
Q 16.21875 57.8125 16.3125 55.125 
Q 16.40625 52.828125 16.453125 50.3125 
Q 16.5 47.796875 16.5 45.90625 
L 16.5 0 
L 8.203125 0 
L 8.203125 68.796875 
L 20.453125 68.796875 
L 38.765625 21.09375 
Q 39.109375 20.125 39.59375 18.578125 
Q 40.09375 17.046875 40.53125 15.421875 
Q 40.96875 13.8125 41.328125 12.375 
Q 41.703125 10.9375 41.84375 10.15625 
Q 42 10.9375 42.390625 12.40625 
Q 42.78125 13.875 43.28125 15.484375 
Q 43.796875 17.09375 44.28125 18.609375 
Q 44.78125 20.125 45.171875 21.09375 
L 63.140625 68.796875 
L 75.09375 68.796875 
L 75.09375 0 
z
" id="LiberationSans-4d"/>
    </defs>
    <g style="fill:#262626;" transform="translate(169.462375 33.736)scale(0.176 -0.176)">
     <use xlink:href="#LiberationSans-6d"/>
     <use x="83.300781" xlink:href="#LiberationSans-6f"/>
     <use x="138.916016" xlink:href="#LiberationSans-64"/>
     <use x="194.53125" xlink:href="#LiberationSans-61"/>
     <use x="250.146484" xlink:href="#LiberationSans-6c"/>
     <use x="272.363281" xlink:href="#LiberationSans-69"/>
     <use x="294.580078" xlink:href="#LiberationSans-74"/>
     <use x="322.363281" xlink:href="#LiberationSans-79"/>
     <use x="372.363281" xlink:href="#LiberationSans-20"/>
     <use x="400.146484" xlink:href="#LiberationSans-3d"/>
     <use x="458.544922" xlink:href="#LiberationSans-20"/>
     <use x="486.328125" xlink:href="#LiberationSans-56"/>
     <use x="553.027344" xlink:href="#LiberationSans-42"/>
     <use x="619.726562" xlink:href="#LiberationSans-4d"/>
    </g>
   </g>
  </g>
  <g id="axes_2">
   <g id="patch_105">
    <path d="M 442.5805 288.064 
L 823.614 288.064 
L 823.614 39.736 
L 442.5805 39.736 
z
" style="fill:none;"/>
   </g>
   <g id="matplotlib.axis_3">
    <g id="xtick_6">
     <g id="line2d_27">
      <path clip-path="url(#p63ac72b871)" d="M 479.531512 288.064 
L 479.531512 39.736 
" style="fill:none;stroke:#cccccc;stroke-linecap:round;stroke-width:1.6;"/>
     </g>
     <g id="line2d_28"/>
     <g id="text_15">
      <!-- −0.4 -->
      <g style="fill:#262626;" transform="translate(463.739012 310.859)scale(0.16 -0.16)">
       <use xlink:href="#LiberationSans-2212"/>
       <use x="58.398438" xlink:href="#LiberationSans-30"/>
       <use x="114.013672" xlink:href="#LiberationSans-2e"/>
       <use x="141.796875" xlink:href="#LiberationSans-34"/>
      </g>
     </g>
    </g>
    <g id="xtick_7">
     <g id="line2d_29">
      <path clip-path="url(#p63ac72b871)" d="M 559.257306 288.064 
L 559.257306 39.736 
" style="fill:none;stroke:#cccccc;stroke-linecap:round;stroke-width:1.6;"/>
     </g>
     <g id="line2d_30"/>
     <g id="text_16">
      <!-- −0.2 -->
      <g style="fill:#262626;" transform="translate(543.464806 310.859)scale(0.16 -0.16)">
       <use xlink:href="#LiberationSans-2212"/>
       <use x="58.398438" xlink:href="#LiberationSans-30"/>
       <use x="114.013672" xlink:href="#LiberationSans-2e"/>
       <use x="141.796875" xlink:href="#LiberationSans-32"/>
      </g>
     </g>
    </g>
    <g id="xtick_8">
     <g id="line2d_31">
      <path clip-path="url(#p63ac72b871)" d="M 638.9831 288.064 
L 638.9831 39.736 
" style="fill:none;stroke:#cccccc;stroke-linecap:round;stroke-width:1.6;"/>
     </g>
     <g id="line2d_32"/>
     <g id="text_17">
      <!-- 0.0 -->
      <g style="fill:#262626;" transform="translate(627.8631 310.859)scale(0.16 -0.16)">
       <use xlink:href="#LiberationSans-30"/>
       <use x="55.615234" xlink:href="#LiberationSans-2e"/>
       <use x="83.398438" xlink:href="#LiberationSans-30"/>
      </g>
     </g>
    </g>
    <g id="xtick_9">
     <g id="line2d_33">
      <path clip-path="url(#p63ac72b871)" d="M 718.708895 288.064 
L 718.708895 39.736 
" style="fill:none;stroke:#cccccc;stroke-linecap:round;stroke-width:1.6;"/>
     </g>
     <g id="line2d_34"/>
     <g id="text_18">
      <!-- 0.2 -->
      <g style="fill:#262626;" transform="translate(707.588895 310.859)scale(0.16 -0.16)">
       <use xlink:href="#LiberationSans-30"/>
       <use x="55.615234" xlink:href="#LiberationSans-2e"/>
       <use x="83.398438" xlink:href="#LiberationSans-32"/>
      </g>
     </g>
    </g>
    <g id="xtick_10">
     <g id="line2d_35">
      <path clip-path="url(#p63ac72b871)" d="M 798.434689 288.064 
L 798.434689 39.736 
" style="fill:none;stroke:#cccccc;stroke-linecap:round;stroke-width:1.6;"/>
     </g>
     <g id="line2d_36"/>
     <g id="text_19">
      <!-- 0.4 -->
      <g style="fill:#262626;" transform="translate(787.314689 310.859)scale(0.16 -0.16)">
       <use xlink:href="#LiberationSans-30"/>
       <use x="55.615234" xlink:href="#LiberationSans-2e"/>
       <use x="83.398438" xlink:href="#LiberationSans-34"/>
      </g>
     </g>
    </g>
    <g id="text_20">
     <!-- $\rho$(X, y) -->
     <g style="fill:#262626;" transform="translate(606.43325 331.027)scale(0.176 -0.176)">
      <use transform="translate(0 0.53125)" xlink:href="#DejaVuSans-Oblique-3c1"/>
      <use transform="translate(63.476562 0.53125)" xlink:href="#LiberationSans-28"/>
      <use transform="translate(96.777344 0.53125)" xlink:href="#LiberationSans-58"/>
      <use transform="translate(163.476562 0.53125)" xlink:href="#LiberationSans-2c"/>
      <use transform="translate(191.259766 0.53125)" xlink:href="#LiberationSans-20"/>
      <use transform="translate(219.042969 0.53125)" xlink:href="#LiberationSans-79"/>
      <use transform="translate(269.042969 0.53125)" xlink:href="#LiberationSans-29"/>
     </g>
    </g>
   </g>
   <g id="matplotlib.axis_4">
    <g id="ytick_8">
     <g id="line2d_37">
      <path clip-path="url(#p63ac72b871)" d="M 442.5805 288.064 
L 823.614 288.064 
" style="fill:none;stroke:#cccccc;stroke-linecap:round;stroke-width:1.6;"/>
     </g>
     <g id="line2d_38"/>
    </g>
    <g id="ytick_9">
     <g id="line2d_39">
      <path clip-path="url(#p63ac72b871)" d="M 442.5805 252.282086 
L 823.614 252.282086 
" style="fill:none;stroke:#cccccc;stroke-linecap:round;stroke-width:1.6;"/>
     </g>
     <g id="line2d_40"/>
    </g>
    <g id="ytick_10">
     <g id="line2d_41">
      <path clip-path="url(#p63ac72b871)" d="M 442.5805 216.500172 
L 823.614 216.500172 
" style="fill:none;stroke:#cccccc;stroke-linecap:round;stroke-width:1.6;"/>
     </g>
     <g id="line2d_42"/>
    </g>
    <g id="ytick_11">
     <g id="line2d_43">
      <path clip-path="url(#p63ac72b871)" d="M 442.5805 180.718258 
L 823.614 180.718258 
" style="fill:none;stroke:#cccccc;stroke-linecap:round;stroke-width:1.6;"/>
     </g>
     <g id="line2d_44"/>
    </g>
    <g id="ytick_12">
     <g id="line2d_45">
      <path clip-path="url(#p63ac72b871)" d="M 442.5805 144.936343 
L 823.614 144.936343 
" style="fill:none;stroke:#cccccc;stroke-linecap:round;stroke-width:1.6;"/>
     </g>
     <g id="line2d_46"/>
    </g>
    <g id="ytick_13">
     <g id="line2d_47">
      <path clip-path="url(#p63ac72b871)" d="M 442.5805 109.154429 
L 823.614 109.154429 
" style="fill:none;stroke:#cccccc;stroke-linecap:round;stroke-width:1.6;"/>
     </g>
     <g id="line2d_48"/>
    </g>
    <g id="ytick_14">
     <g id="line2d_49">
      <path clip-path="url(#p63ac72b871)" d="M 442.5805 73.372515 
L 823.614 73.372515 
" style="fill:none;stroke:#cccccc;stroke-linecap:round;stroke-width:1.6;"/>
     </g>
     <g id="line2d_50"/>
    </g>
   </g>
   <g id="patch_106">
    <path clip-path="url(#p63ac72b871)" d="M 470.673082 288.064 
L 477.157925 288.064 
L 477.157925 288.046862 
L 470.673082 288.046862 
z
" style="fill:#b22222;opacity:0.4;"/>
   </g>
   <g id="patch_107">
    <path clip-path="url(#p63ac72b871)" d="M 477.157925 288.064 
L 483.642768 288.064 
L 483.642768 288.029723 
L 477.157925 288.029723 
z
" style="fill:#b22222;opacity:0.4;"/>
   </g>
   <g id="patch_108">
    <path clip-path="url(#p63ac72b871)" d="M 483.642768 288.064 
L 490.12761 288.064 
L 490.12761 287.875477 
L 483.642768 287.875477 
z
" style="fill:#b22222;opacity:0.4;"/>
   </g>
   <g id="patch_109">
    <path clip-path="url(#p63ac72b871)" d="M 490.12761 288.064 
L 496.612453 288.064 
L 496.612453 287.858339 
L 490.12761 287.858339 
z
" style="fill:#b22222;opacity:0.4;"/>
   </g>
   <g id="patch_110">
    <path clip-path="url(#p63ac72b871)" d="M 496.612453 288.064 
L 503.097295 288.064 
L 503.097295 287.669816 
L 496.612453 287.669816 
z
" style="fill:#b22222;opacity:0.4;"/>
   </g>
   <g id="patch_111">
    <path clip-path="url(#p63ac72b871)" d="M 503.097295 288.064 
L 509.582138 288.064 
L 509.582138 287.292771 
L 503.097295 287.292771 
z
" style="fill:#b22222;opacity:0.4;"/>
   </g>
   <g id="patch_112">
    <path clip-path="url(#p63ac72b871)" d="M 509.582138 288.064 
L 516.066981 288.064 
L 516.066981 287.207079 
L 509.582138 287.207079 
z
" style="fill:#b22222;opacity:0.4;"/>
   </g>
   <g id="patch_113">
    <path clip-path="url(#p63ac72b871)" d="M 516.066981 288.064 
L 522.551823 288.064 
L 522.551823 286.435849 
L 516.066981 286.435849 
z
" style="fill:#b22222;opacity:0.4;"/>
   </g>
   <g id="patch_114">
    <path clip-path="url(#p63ac72b871)" d="M 522.551823 288.064 
L 529.036666 288.064 
L 529.036666 285.510374 
L 522.551823 285.510374 
z
" style="fill:#b22222;opacity:0.4;"/>
   </g>
   <g id="patch_115">
    <path clip-path="url(#p63ac72b871)" d="M 529.036666 288.064 
L 535.521508 288.064 
L 535.521508 283.779393 
L 529.036666 283.779393 
z
" style="fill:#b22222;opacity:0.4;"/>
   </g>
   <g id="patch_116">
    <path clip-path="url(#p63ac72b871)" d="M 535.521508 288.064 
L 542.006351 288.064 
L 542.006351 281.705644 
L 535.521508 281.705644 
z
" style="fill:#b22222;opacity:0.4;"/>
   </g>
   <g id="patch_117">
    <path clip-path="url(#p63ac72b871)" d="M 542.006351 288.064 
L 548.491194 288.064 
L 548.491194 278.415066 
L 542.006351 278.415066 
z
" style="fill:#b22222;opacity:0.4;"/>
   </g>
   <g id="patch_118">
    <path clip-path="url(#p63ac72b871)" d="M 548.491194 288.064 
L 554.976036 288.064 
L 554.976036 272.947908 
L 548.491194 272.947908 
z
" style="fill:#b22222;opacity:0.4;"/>
   </g>
   <g id="patch_119">
    <path clip-path="url(#p63ac72b871)" d="M 554.976036 288.064 
L 561.460879 288.064 
L 561.460879 268.680439 
L 554.976036 268.680439 
z
" style="fill:#b22222;opacity:0.4;"/>
   </g>
   <g id="patch_120">
    <path clip-path="url(#p63ac72b871)" d="M 561.460879 288.064 
L 567.945722 288.064 
L 567.945722 261.088116 
L 561.460879 261.088116 
z
" style="fill:#b22222;opacity:0.4;"/>
   </g>
   <g id="patch_121">
    <path clip-path="url(#p63ac72b871)" d="M 567.945722 288.064 
L 574.430564 288.064 
L 574.430564 251.67912 
L 567.945722 251.67912 
z
" style="fill:#b22222;opacity:0.4;"/>
   </g>
   <g id="patch_122">
    <path clip-path="url(#p63ac72b871)" d="M 574.430564 288.064 
L 580.915407 288.064 
L 580.915407 239.562252 
L 574.430564 239.562252 
z
" style="fill:#b22222;opacity:0.4;"/>
   </g>
   <g id="patch_123">
    <path clip-path="url(#p63ac72b871)" d="M 580.915407 288.064 
L 587.400249 288.064 
L 587.400249 225.508742 
L 580.915407 225.508742 
z
" style="fill:#b22222;opacity:0.4;"/>
   </g>
   <g id="patch_124">
    <path clip-path="url(#p63ac72b871)" d="M 587.400249 288.064 
L 593.885092 288.064 
L 593.885092 207.324872 
L 587.400249 207.324872 
z
" style="fill:#b22222;opacity:0.4;"/>
   </g>
   <g id="patch_125">
    <path clip-path="url(#p63ac72b871)" d="M 593.885092 288.064 
L 600.369935 288.064 
L 600.369935 187.392881 
L 593.885092 187.392881 
z
" style="fill:#b22222;opacity:0.4;"/>
   </g>
   <g id="patch_126">
    <path clip-path="url(#p63ac72b871)" d="M 600.369935 288.064 
L 606.854777 288.064 
L 606.854777 167.049569 
L 600.369935 167.049569 
z
" style="fill:#b22222;opacity:0.4;"/>
   </g>
   <g id="patch_127">
    <path clip-path="url(#p63ac72b871)" d="M 606.854777 288.064 
L 613.33962 288.064 
L 613.33962 150.065388 
L 606.854777 150.065388 
z
" style="fill:#b22222;opacity:0.4;"/>
   </g>
   <g id="patch_128">
    <path clip-path="url(#p63ac72b871)" d="M 613.33962 288.064 
L 619.824463 288.064 
L 619.824463 138.736888 
L 613.33962 138.736888 
z
" style="fill:#b22222;opacity:0.4;"/>
   </g>
   <g id="patch_129">
    <path clip-path="url(#p63ac72b871)" d="M 619.824463 288.064 
L 626.309305 288.064 
L 626.309305 133.475391 
L 619.824463 133.475391 
z
" style="fill:#b22222;opacity:0.4;"/>
   </g>
   <g id="patch_130">
    <path clip-path="url(#p63ac72b871)" d="M 626.309305 288.064 
L 632.794148 288.064 
L 632.794148 129.379307 
L 626.309305 129.379307 
z
" style="fill:#b22222;opacity:0.4;"/>
   </g>
   <g id="patch_131">
    <path clip-path="url(#p63ac72b871)" d="M 632.794148 288.064 
L 639.27899 288.064 
L 639.27899 130.527581 
L 632.794148 130.527581 
z
" style="fill:#b22222;opacity:0.4;"/>
   </g>
   <g id="patch_132">
    <path clip-path="url(#p63ac72b871)" d="M 639.27899 288.064 
L 645.763833 288.064 
L 645.763833 137.640028 
L 639.27899 137.640028 
z
" style="fill:#b22222;opacity:0.4;"/>
   </g>
   <g id="patch_133">
    <path clip-path="url(#p63ac72b871)" d="M 645.763833 288.064 
L 652.248676 288.064 
L 652.248676 150.545264 
L 645.763833 150.545264 
z
" style="fill:#b22222;opacity:0.4;"/>
   </g>
   <g id="patch_134">
    <path clip-path="url(#p63ac72b871)" d="M 652.248676 288.064 
L 658.733518 288.064 
L 658.733518 164.136036 
L 652.248676 164.136036 
z
" style="fill:#b22222;opacity:0.4;"/>
   </g>
   <g id="patch_135">
    <path clip-path="url(#p63ac72b871)" d="M 658.733518 288.064 
L 665.218361 288.064 
L 665.218361 182.594122 
L 658.733518 182.594122 
z
" style="fill:#b22222;opacity:0.4;"/>
   </g>
   <g id="patch_136">
    <path clip-path="url(#p63ac72b871)" d="M 665.218361 288.064 
L 671.703203 288.064 
L 671.703203 198.669966 
L 665.218361 198.669966 
z
" style="fill:#b22222;opacity:0.4;"/>
   </g>
   <g id="patch_137">
    <path clip-path="url(#p63ac72b871)" d="M 671.703203 288.064 
L 678.188046 288.064 
L 678.188046 216.545345 
L 671.703203 216.545345 
z
" style="fill:#b22222;opacity:0.4;"/>
   </g>
   <g id="patch_138">
    <path clip-path="url(#p63ac72b871)" d="M 678.188046 288.064 
L 684.672889 288.064 
L 684.672889 229.827626 
L 678.188046 229.827626 
z
" style="fill:#b22222;opacity:0.4;"/>
   </g>
   <g id="patch_139">
    <path clip-path="url(#p63ac72b871)" d="M 684.672889 288.064 
L 691.157731 288.064 
L 691.157731 241.858801 
L 684.672889 241.858801 
z
" style="fill:#b22222;opacity:0.4;"/>
   </g>
   <g id="patch_140">
    <path clip-path="url(#p63ac72b871)" d="M 691.157731 288.064 
L 697.642574 288.064 
L 697.642574 253.461516 
L 691.157731 253.461516 
z
" style="fill:#b22222;opacity:0.4;"/>
   </g>
   <g id="patch_141">
    <path clip-path="url(#p63ac72b871)" d="M 697.642574 288.064 
L 704.127417 288.064 
L 704.127417 260.813901 
L 697.642574 260.813901 
z
" style="fill:#b22222;opacity:0.4;"/>
   </g>
   <g id="patch_142">
    <path clip-path="url(#p63ac72b871)" d="M 704.127417 288.064 
L 710.612259 288.064 
L 710.612259 268.851824 
L 704.127417 268.851824 
z
" style="fill:#b22222;opacity:0.4;"/>
   </g>
   <g id="patch_143">
    <path clip-path="url(#p63ac72b871)" d="M 710.612259 288.064 
L 717.097102 288.064 
L 717.097102 274.815996 
L 710.612259 274.815996 
z
" style="fill:#b22222;opacity:0.4;"/>
   </g>
   <g id="patch_144">
    <path clip-path="url(#p63ac72b871)" d="M 717.097102 288.064 
L 723.581944 288.064 
L 723.581944 279.169157 
L 717.097102 279.169157 
z
" style="fill:#b22222;opacity:0.4;"/>
   </g>
   <g id="patch_145">
    <path clip-path="url(#p63ac72b871)" d="M 723.581944 288.064 
L 730.066787 288.064 
L 730.066787 281.619952 
L 723.581944 281.619952 
z
" style="fill:#b22222;opacity:0.4;"/>
   </g>
   <g id="patch_146">
    <path clip-path="url(#p63ac72b871)" d="M 730.066787 288.064 
L 736.55163 288.064 
L 736.55163 283.676563 
L 730.066787 283.676563 
z
" style="fill:#b22222;opacity:0.4;"/>
   </g>
   <g id="patch_147">
    <path clip-path="url(#p63ac72b871)" d="M 736.55163 288.064 
L 743.036472 288.064 
L 743.036472 285.56179 
L 736.55163 285.56179 
z
" style="fill:#b22222;opacity:0.4;"/>
   </g>
   <g id="patch_148">
    <path clip-path="url(#p63ac72b871)" d="M 743.036472 288.064 
L 749.521315 288.064 
L 749.521315 286.607234 
L 743.036472 286.607234 
z
" style="fill:#b22222;opacity:0.4;"/>
   </g>
   <g id="patch_149">
    <path clip-path="url(#p63ac72b871)" d="M 749.521315 288.064 
L 756.006158 288.064 
L 756.006158 287.052833 
L 749.521315 287.052833 
z
" style="fill:#b22222;opacity:0.4;"/>
   </g>
   <g id="patch_150">
    <path clip-path="url(#p63ac72b871)" d="M 756.006158 288.064 
L 762.491 288.064 
L 762.491 287.584124 
L 756.006158 287.584124 
z
" style="fill:#b22222;opacity:0.4;"/>
   </g>
   <g id="patch_151">
    <path clip-path="url(#p63ac72b871)" d="M 762.491 288.064 
L 768.975843 288.064 
L 768.975843 287.51557 
L 762.491 287.51557 
z
" style="fill:#b22222;opacity:0.4;"/>
   </g>
   <g id="patch_152">
    <path clip-path="url(#p63ac72b871)" d="M 768.975843 288.064 
L 775.460685 288.064 
L 775.460685 287.961169 
L 768.975843 287.961169 
z
" style="fill:#b22222;opacity:0.4;"/>
   </g>
   <g id="patch_153">
    <path clip-path="url(#p63ac72b871)" d="M 775.460685 288.064 
L 781.945528 288.064 
L 781.945528 287.944031 
L 775.460685 287.944031 
z
" style="fill:#b22222;opacity:0.4;"/>
   </g>
   <g id="patch_154">
    <path clip-path="url(#p63ac72b871)" d="M 781.945528 288.064 
L 788.430371 288.064 
L 788.430371 287.995446 
L 781.945528 287.995446 
z
" style="fill:#b22222;opacity:0.4;"/>
   </g>
   <g id="patch_155">
    <path clip-path="url(#p63ac72b871)" d="M 788.430371 288.064 
L 794.915213 288.064 
L 794.915213 287.961169 
L 788.430371 287.961169 
z
" style="fill:#b22222;opacity:0.4;"/>
   </g>
   <g id="patch_156">
    <path clip-path="url(#p63ac72b871)" d="M 543.937852 288.064 
L 548.041289 288.064 
L 548.041289 288.009831 
L 543.937852 288.009831 
z
" style="fill:#ff8c00;opacity:0.4;"/>
   </g>
   <g id="patch_157">
    <path clip-path="url(#p63ac72b871)" d="M 548.041289 288.064 
L 552.144725 288.064 
L 552.144725 288.009831 
L 548.041289 288.009831 
z
" style="fill:#ff8c00;opacity:0.4;"/>
   </g>
   <g id="patch_158">
    <path clip-path="url(#p63ac72b871)" d="M 552.144725 288.064 
L 556.248162 288.064 
L 556.248162 287.874408 
L 552.144725 287.874408 
z
" style="fill:#ff8c00;opacity:0.4;"/>
   </g>
   <g id="patch_159">
    <path clip-path="url(#p63ac72b871)" d="M 556.248162 288.064 
L 560.351598 288.064 
L 560.351598 287.684815 
L 556.248162 287.684815 
z
" style="fill:#ff8c00;opacity:0.4;"/>
   </g>
   <g id="patch_160">
    <path clip-path="url(#p63ac72b871)" d="M 560.351598 288.064 
L 564.455035 288.064 
L 564.455035 287.088954 
L 560.351598 287.088954 
z
" style="fill:#ff8c00;opacity:0.4;"/>
   </g>
   <g id="patch_161">
    <path clip-path="url(#p63ac72b871)" d="M 564.455035 288.064 
L 568.558472 288.064 
L 568.558472 286.980615 
L 564.455035 286.980615 
z
" style="fill:#ff8c00;opacity:0.4;"/>
   </g>
   <g id="patch_162">
    <path clip-path="url(#p63ac72b871)" d="M 568.558472 288.064 
L 572.661908 288.064 
L 572.661908 285.707639 
L 568.558472 285.707639 
z
" style="fill:#ff8c00;opacity:0.4;"/>
   </g>
   <g id="patch_163">
    <path clip-path="url(#p63ac72b871)" d="M 572.661908 288.064 
L 576.765345 288.064 
L 576.765345 284.570085 
L 572.661908 284.570085 
z
" style="fill:#ff8c00;opacity:0.4;"/>
   </g>
   <g id="patch_164">
    <path clip-path="url(#p63ac72b871)" d="M 576.765345 288.064 
L 580.868781 288.064 
L 580.868781 281.428269 
L 576.765345 281.428269 
z
" style="fill:#ff8c00;opacity:0.4;"/>
   </g>
   <g id="patch_165">
    <path clip-path="url(#p63ac72b871)" d="M 580.868781 288.064 
L 584.972218 288.064 
L 584.972218 276.688462 
L 580.868781 276.688462 
z
" style="fill:#ff8c00;opacity:0.4;"/>
   </g>
   <g id="patch_166">
    <path clip-path="url(#p63ac72b871)" d="M 584.972218 288.064 
L 589.075655 288.064 
L 589.075655 271.542385 
L 584.972218 271.542385 
z
" style="fill:#ff8c00;opacity:0.4;"/>
   </g>
   <g id="patch_167">
    <path clip-path="url(#p63ac72b871)" d="M 589.075655 288.064 
L 593.179091 288.064 
L 593.179091 265.340008 
L 589.075655 265.340008 
z
" style="fill:#ff8c00;opacity:0.4;"/>
   </g>
   <g id="patch_168">
    <path clip-path="url(#p63ac72b871)" d="M 593.179091 288.064 
L 597.282528 288.064 
L 597.282528 252.664408 
L 593.179091 252.664408 
z
" style="fill:#ff8c00;opacity:0.4;"/>
   </g>
   <g id="patch_169">
    <path clip-path="url(#p63ac72b871)" d="M 597.282528 288.064 
L 601.385964 288.064 
L 601.385964 241.343039 
L 597.282528 241.343039 
z
" style="fill:#ff8c00;opacity:0.4;"/>
   </g>
   <g id="patch_170">
    <path clip-path="url(#p63ac72b871)" d="M 601.385964 288.064 
L 605.489401 288.064 
L 605.489401 222.952586 
L 601.385964 222.952586 
z
" style="fill:#ff8c00;opacity:0.4;"/>
   </g>
   <g id="patch_171">
    <path clip-path="url(#p63ac72b871)" d="M 605.489401 288.064 
L 609.592838 288.064 
L 609.592838 202.774548 
L 605.489401 202.774548 
z
" style="fill:#ff8c00;opacity:0.4;"/>
   </g>
   <g id="patch_172">
    <path clip-path="url(#p63ac72b871)" d="M 609.592838 288.064 
L 613.696274 288.064 
L 613.696274 178.208802 
L 609.592838 178.208802 
z
" style="fill:#ff8c00;opacity:0.4;"/>
   </g>
   <g id="patch_173">
    <path clip-path="url(#p63ac72b871)" d="M 613.696274 288.064 
L 617.799711 288.064 
L 617.799711 155.511895 
L 613.696274 155.511895 
z
" style="fill:#ff8c00;opacity:0.4;"/>
   </g>
   <g id="patch_174">
    <path clip-path="url(#p63ac72b871)" d="M 617.799711 288.064 
L 621.903148 288.064 
L 621.903148 128.42728 
L 617.799711 128.42728 
z
" style="fill:#ff8c00;opacity:0.4;"/>
   </g>
   <g id="patch_175">
    <path clip-path="url(#p63ac72b871)" d="M 621.903148 288.064 
L 626.006584 288.064 
L 626.006584 103.048996 
L 621.903148 103.048996 
z
" style="fill:#ff8c00;opacity:0.4;"/>
   </g>
   <g id="patch_176">
    <path clip-path="url(#p63ac72b871)" d="M 626.006584 288.064 
L 630.110021 288.064 
L 630.110021 83.873088 
L 626.006584 83.873088 
z
" style="fill:#ff8c00;opacity:0.4;"/>
   </g>
   <g id="patch_177">
    <path clip-path="url(#p63ac72b871)" d="M 630.110021 288.064 
L 634.213457 288.064 
L 634.213457 66.86395 
L 630.110021 66.86395 
z
" style="fill:#ff8c00;opacity:0.4;"/>
   </g>
   <g id="patch_178">
    <path clip-path="url(#p63ac72b871)" d="M 634.213457 288.064 
L 638.316894 288.064 
L 638.316894 59.442766 
L 634.213457 59.442766 
z
" style="fill:#ff8c00;opacity:0.4;"/>
   </g>
   <g id="patch_179">
    <path clip-path="url(#p63ac72b871)" d="M 638.316894 288.064 
L 642.420331 288.064 
L 642.420331 51.561143 
L 638.316894 51.561143 
z
" style="fill:#ff8c00;opacity:0.4;"/>
   </g>
   <g id="patch_180">
    <path clip-path="url(#p63ac72b871)" d="M 642.420331 288.064 
L 646.523767 288.064 
L 646.523767 58.11562 
L 642.420331 58.11562 
z
" style="fill:#ff8c00;opacity:0.4;"/>
   </g>
   <g id="patch_181">
    <path clip-path="url(#p63ac72b871)" d="M 646.523767 288.064 
L 650.627204 288.064 
L 650.627204 71.901689 
L 646.523767 71.901689 
z
" style="fill:#ff8c00;opacity:0.4;"/>
   </g>
   <g id="patch_182">
    <path clip-path="url(#p63ac72b871)" d="M 650.627204 288.064 
L 654.73064 288.064 
L 654.73064 81.65215 
L 650.627204 81.65215 
z
" style="fill:#ff8c00;opacity:0.4;"/>
   </g>
   <g id="patch_183">
    <path clip-path="url(#p63ac72b871)" d="M 654.73064 288.064 
L 658.834077 288.064 
L 658.834077 102.507303 
L 654.73064 102.507303 
z
" style="fill:#ff8c00;opacity:0.4;"/>
   </g>
   <g id="patch_184">
    <path clip-path="url(#p63ac72b871)" d="M 658.834077 288.064 
L 662.937514 288.064 
L 662.937514 121.060265 
L 658.834077 121.060265 
z
" style="fill:#ff8c00;opacity:0.4;"/>
   </g>
   <g id="patch_185">
    <path clip-path="url(#p63ac72b871)" d="M 662.937514 288.064 
L 667.04095 288.064 
L 667.04095 145.192657 
L 662.937514 145.192657 
z
" style="fill:#ff8c00;opacity:0.4;"/>
   </g>
   <g id="patch_186">
    <path clip-path="url(#p63ac72b871)" d="M 667.04095 288.064 
L 671.144387 288.064 
L 671.144387 167.293702 
L 667.04095 167.293702 
z
" style="fill:#ff8c00;opacity:0.4;"/>
   </g>
   <g id="patch_187">
    <path clip-path="url(#p63ac72b871)" d="M 671.144387 288.064 
L 675.247823 288.064 
L 675.247823 184.275756 
L 671.144387 184.275756 
z
" style="fill:#ff8c00;opacity:0.4;"/>
   </g>
   <g id="patch_188">
    <path clip-path="url(#p63ac72b871)" d="M 675.247823 288.064 
L 679.35126 288.064 
L 679.35126 210.114478 
L 675.247823 210.114478 
z
" style="fill:#ff8c00;opacity:0.4;"/>
   </g>
   <g id="patch_189">
    <path clip-path="url(#p63ac72b871)" d="M 679.35126 288.064 
L 683.454697 288.064 
L 683.454697 223.088009 
L 679.35126 223.088009 
z
" style="fill:#ff8c00;opacity:0.4;"/>
   </g>
   <g id="patch_190">
    <path clip-path="url(#p63ac72b871)" d="M 683.454697 288.064 
L 687.558133 288.064 
L 687.558133 239.122101 
L 683.454697 239.122101 
z
" style="fill:#ff8c00;opacity:0.4;"/>
   </g>
   <g id="patch_191">
    <path clip-path="url(#p63ac72b871)" d="M 687.558133 288.064 
L 691.66157 288.064 
L 691.66157 250.335131 
L 687.558133 250.335131 
z
" style="fill:#ff8c00;opacity:0.4;"/>
   </g>
   <g id="patch_192">
    <path clip-path="url(#p63ac72b871)" d="M 691.66157 288.064 
L 695.765006 288.064 
L 695.765006 259.029293 
L 691.66157 259.029293 
z
" style="fill:#ff8c00;opacity:0.4;"/>
   </g>
   <g id="patch_193">
    <path clip-path="url(#p63ac72b871)" d="M 695.765006 288.064 
L 699.868443 288.064 
L 699.868443 266.965085 
L 695.765006 266.965085 
z
" style="fill:#ff8c00;opacity:0.4;"/>
   </g>
   <g id="patch_194">
    <path clip-path="url(#p63ac72b871)" d="M 699.868443 288.064 
L 703.97188 288.064 
L 703.97188 273.573731 
L 699.868443 273.573731 
z
" style="fill:#ff8c00;opacity:0.4;"/>
   </g>
   <g id="patch_195">
    <path clip-path="url(#p63ac72b871)" d="M 703.97188 288.064 
L 708.075316 288.064 
L 708.075316 277.8531 
L 703.97188 277.8531 
z
" style="fill:#ff8c00;opacity:0.4;"/>
   </g>
   <g id="patch_196">
    <path clip-path="url(#p63ac72b871)" d="M 708.075316 288.064 
L 712.178753 288.064 
L 712.178753 280.751154 
L 708.075316 280.751154 
z
" style="fill:#ff8c00;opacity:0.4;"/>
   </g>
   <g id="patch_197">
    <path clip-path="url(#p63ac72b871)" d="M 712.178753 288.064 
L 716.282189 288.064 
L 716.282189 282.322062 
L 712.178753 282.322062 
z
" style="fill:#ff8c00;opacity:0.4;"/>
   </g>
   <g id="patch_198">
    <path clip-path="url(#p63ac72b871)" d="M 716.282189 288.064 
L 720.385626 288.064 
L 720.385626 284.976354 
L 716.282189 284.976354 
z
" style="fill:#ff8c00;opacity:0.4;"/>
   </g>
   <g id="patch_199">
    <path clip-path="url(#p63ac72b871)" d="M 720.385626 288.064 
L 724.489063 288.064 
L 724.489063 285.9514 
L 720.385626 285.9514 
z
" style="fill:#ff8c00;opacity:0.4;"/>
   </g>
   <g id="patch_200">
    <path clip-path="url(#p63ac72b871)" d="M 724.489063 288.064 
L 728.592499 288.064 
L 728.592499 286.466008 
L 724.489063 286.466008 
z
" style="fill:#ff8c00;opacity:0.4;"/>
   </g>
   <g id="patch_201">
    <path clip-path="url(#p63ac72b871)" d="M 728.592499 288.064 
L 732.695936 288.064 
L 732.695936 286.520177 
L 728.592499 286.520177 
z
" style="fill:#ff8c00;opacity:0.4;"/>
   </g>
   <g id="patch_202">
    <path clip-path="url(#p63ac72b871)" d="M 732.695936 288.064 
L 736.799373 288.064 
L 736.799373 286.980615 
L 732.695936 286.980615 
z
" style="fill:#ff8c00;opacity:0.4;"/>
   </g>
   <g id="patch_203">
    <path clip-path="url(#p63ac72b871)" d="M 736.799373 288.064 
L 740.902809 288.064 
L 740.902809 287.603562 
L 736.799373 287.603562 
z
" style="fill:#ff8c00;opacity:0.4;"/>
   </g>
   <g id="patch_204">
    <path clip-path="url(#p63ac72b871)" d="M 740.902809 288.064 
L 745.006246 288.064 
L 745.006246 287.928577 
L 740.902809 287.928577 
z
" style="fill:#ff8c00;opacity:0.4;"/>
   </g>
   <g id="patch_205">
    <path clip-path="url(#p63ac72b871)" d="M 745.006246 288.064 
L 749.109682 288.064 
L 749.109682 287.982746 
L 745.006246 287.982746 
z
" style="fill:#ff8c00;opacity:0.4;"/>
   </g>
   <g id="line2d_51">
    <path clip-path="url(#p63ac72b871)" d="M 459.900205 288.06387 
L 484.404858 287.955707 
L 500.741293 287.610825 
L 508.909511 287.217731 
L 514.35499 287.008766 
L 519.800468 286.405357 
L 525.245947 285.544722 
L 530.691425 284.202329 
L 536.136904 282.502165 
L 538.859643 281.477386 
L 541.582382 280.263249 
L 544.305122 278.7681 
L 547.027861 276.915503 
L 557.918818 268.387802 
L 560.641557 265.761158 
L 563.364297 262.636673 
L 566.087036 259.097622 
L 568.809775 255.261214 
L 571.532514 251.070955 
L 574.255254 246.241313 
L 576.977993 240.727581 
L 582.423471 228.84327 
L 585.146211 222.358004 
L 587.86895 215.202307 
L 590.591689 207.422908 
L 596.037168 190.780958 
L 604.205385 165.962714 
L 606.928125 158.020057 
L 609.650864 151.041657 
L 612.373603 145.227453 
L 615.096343 140.913131 
L 617.819082 138.242843 
L 620.541821 136.25311 
L 625.9873 131.544471 
L 628.710039 130.334242 
L 631.432778 130.103452 
L 634.155517 130.504237 
L 636.878257 131.699197 
L 639.600996 134.135538 
L 642.323735 137.804206 
L 645.046474 142.282774 
L 647.769214 147.534186 
L 650.491953 153.362161 
L 653.214692 159.569 
L 655.937431 166.464351 
L 661.38291 180.927374 
L 666.828389 194.856544 
L 672.273867 209.106969 
L 674.996606 215.591474 
L 680.442085 227.595593 
L 683.164824 233.067895 
L 688.610303 243.046008 
L 691.333042 247.875247 
L 694.055781 252.301247 
L 696.77852 256.090375 
L 702.223999 262.764095 
L 704.946738 265.985594 
L 707.669477 268.898754 
L 710.392217 271.501688 
L 713.114956 273.887712 
L 715.837695 276.043849 
L 718.560435 277.924809 
L 721.283174 279.459656 
L 724.005913 280.615496 
L 729.451392 282.5082 
L 734.89687 284.180074 
L 737.619609 284.930728 
L 740.342349 285.562048 
L 745.787827 286.448577 
L 753.956045 287.216857 
L 759.401523 287.525783 
L 767.569741 287.655524 
L 773.01522 287.901426 
L 783.906177 287.975391 
L 805.688091 288.063831 
L 805.688091 288.063831 
" style="fill:none;stroke:#b22222;stroke-linecap:round;stroke-width:2.8;"/>
   </g>
   <g id="line2d_52">
    <path clip-path="url(#p63ac72b871)" d="M 536.536322 288.063711 
L 552.125094 287.959584 
L 557.321351 287.701234 
L 564.249694 287.014577 
L 565.98178 286.845257 
L 567.713866 286.540446 
L 571.178037 285.546482 
L 572.910123 284.986452 
L 574.642209 284.282987 
L 576.374294 283.275264 
L 578.10638 281.9032 
L 579.838466 280.20465 
L 583.302637 276.14691 
L 586.766809 271.673452 
L 588.498895 269.096706 
L 590.23098 266.055773 
L 591.963066 262.382479 
L 593.695152 257.913886 
L 595.427238 252.753636 
L 598.891409 241.429333 
L 600.623495 235.015592 
L 602.355581 227.767554 
L 604.087666 219.822915 
L 607.551838 202.181191 
L 611.016009 182.647169 
L 614.480181 162.040814 
L 621.408524 118.482992 
L 623.14061 108.962798 
L 630.068953 75.279996 
L 631.801038 69.576674 
L 633.533124 65.229948 
L 635.26521 61.460984 
L 636.997296 58.001722 
L 638.729381 55.111254 
L 640.461467 53.536337 
L 642.193553 54.164429 
L 643.925639 57.269769 
L 645.657724 62.12166 
L 649.121896 73.027425 
L 650.853982 78.177841 
L 652.586067 83.68702 
L 654.318153 90.512846 
L 657.782325 106.624563 
L 659.51441 115.129942 
L 671.63901 178.87624 
L 675.103182 196.531081 
L 676.835268 205.377831 
L 678.567353 213.034462 
L 682.031525 225.838699 
L 685.495696 238.081196 
L 687.227782 243.504837 
L 688.959868 248.290328 
L 690.691954 252.483605 
L 694.156125 259.97245 
L 695.888211 263.524815 
L 697.620297 266.684384 
L 701.084468 271.955324 
L 702.816554 274.322656 
L 704.54864 276.330916 
L 706.280725 277.90802 
L 708.012811 279.179796 
L 709.744897 280.265952 
L 716.67324 283.882803 
L 718.405326 284.70603 
L 720.137411 285.322827 
L 721.869497 285.76531 
L 725.333669 286.310044 
L 733.994097 286.906543 
L 737.458269 287.428501 
L 742.654526 287.878843 
L 746.118698 287.996804 
L 756.511212 288.063736 
L 756.511212 288.063736 
" style="fill:none;stroke:#ff8c00;stroke-linecap:round;stroke-width:2.8;"/>
   </g>
   <g id="patch_206">
    <path d="M 442.5805 288.064 
L 442.5805 39.736 
" style="fill:none;stroke:#cccccc;stroke-linecap:square;stroke-linejoin:miter;"/>
   </g>
   <g id="patch_207">
    <path d="M 442.5805 288.064 
L 823.614 288.064 
" style="fill:none;stroke:#cccccc;stroke-linecap:square;stroke-linejoin:miter;"/>
   </g>
   <g id="text_21">
    <!-- modality = TBSS -->
    <defs>
     <path d="M 35.15625 61.1875 
L 35.15625 0 
L 25.875 0 
L 25.875 61.1875 
L 2.25 61.1875 
L 2.25 68.796875 
L 58.796875 68.796875 
L 58.796875 61.1875 
z
" id="LiberationSans-54"/>
     <path d="M 62.109375 19 
Q 62.109375 14.65625 60.421875 10.984375 
Q 58.734375 7.328125 55.21875 4.65625 
Q 51.703125 2 46.359375 0.5 
Q 41.015625 -0.984375 33.6875 -0.984375 
Q 20.84375 -0.984375 13.671875 3.515625 
Q 6.5 8.015625 4.546875 16.5 
L 13.578125 18.3125 
Q 14.265625 15.625 15.671875 13.421875 
Q 17.09375 11.234375 19.5 9.640625 
Q 21.921875 8.0625 25.484375 7.171875 
Q 29.046875 6.296875 34.03125 6.296875 
Q 38.1875 6.296875 41.65625 7 
Q 45.125 7.71875 47.609375 9.171875 
Q 50.09375 10.640625 51.484375 12.953125 
Q 52.875 15.28125 52.875 18.5 
Q 52.875 21.875 51.34375 23.96875 
Q 49.8125 26.078125 47.015625 27.4375 
Q 44.234375 28.8125 40.375 29.734375 
Q 36.53125 30.671875 31.84375 31.734375 
Q 28.953125 32.375 26.046875 33.125 
Q 23.140625 33.890625 20.484375 34.9375 
Q 17.828125 35.984375 15.484375 37.390625 
Q 13.140625 38.8125 11.421875 40.796875 
Q 9.71875 42.78125 8.734375 45.390625 
Q 7.765625 48 7.765625 51.421875 
Q 7.765625 56.296875 9.734375 59.78125 
Q 11.71875 63.28125 15.234375 65.53125 
Q 18.75 67.78125 23.53125 68.796875 
Q 28.328125 69.828125 33.890625 69.828125 
Q 40.28125 69.828125 44.8125 68.828125 
Q 49.359375 67.828125 52.484375 65.8125 
Q 55.609375 63.8125 57.484375 60.859375 
Q 59.375 57.90625 60.5 54 
L 51.3125 52.390625 
Q 50.640625 54.890625 49.34375 56.84375 
Q 48.046875 58.796875 45.9375 60.109375 
Q 43.84375 61.421875 40.84375 62.109375 
Q 37.84375 62.796875 33.796875 62.796875 
Q 29 62.796875 25.75 61.9375 
Q 22.515625 61.078125 20.53125 59.609375 
Q 18.5625 58.15625 17.703125 56.171875 
Q 16.84375 54.203125 16.84375 51.90625 
Q 16.84375 48.828125 18.375 46.84375 
Q 19.921875 44.875 22.5625 43.546875 
Q 25.203125 42.234375 28.65625 41.359375 
Q 32.125 40.484375 36.03125 39.59375 
Q 39.203125 38.875 42.359375 38.109375 
Q 45.515625 37.359375 48.390625 36.296875 
Q 51.265625 35.25 53.78125 33.828125 
Q 56.296875 32.421875 58.15625 30.375 
Q 60.015625 28.328125 61.0625 25.53125 
Q 62.109375 22.75 62.109375 19 
z
" id="LiberationSans-53"/>
    </defs>
    <g style="fill:#262626;" transform="translate(567.318625 33.736)scale(0.176 -0.176)">
     <use xlink:href="#LiberationSans-6d"/>
     <use x="83.300781" xlink:href="#LiberationSans-6f"/>
     <use x="138.916016" xlink:href="#LiberationSans-64"/>
     <use x="194.53125" xlink:href="#LiberationSans-61"/>
     <use x="250.146484" xlink:href="#LiberationSans-6c"/>
     <use x="272.363281" xlink:href="#LiberationSans-69"/>
     <use x="294.580078" xlink:href="#LiberationSans-74"/>
     <use x="322.363281" xlink:href="#LiberationSans-79"/>
     <use x="372.363281" xlink:href="#LiberationSans-20"/>
     <use x="400.146484" xlink:href="#LiberationSans-3d"/>
     <use x="458.544922" xlink:href="#LiberationSans-20"/>
     <use x="486.3125" xlink:href="#LiberationSans-54"/>
     <use x="547.396484" xlink:href="#LiberationSans-42"/>
     <use x="614.095703" xlink:href="#LiberationSans-53"/>
     <use x="680.794922" xlink:href="#LiberationSans-53"/>
    </g>
   </g>
  </g>
  <g id="legend_1">
   <g id="patch_208">
    <path d="M 718.46 172.68 
L 750.46 172.68 
L 750.46 161.48 
L 718.46 161.48 
z
" style="fill:#b22222;opacity:0.4;"/>
   </g>
   <g id="text_22">
    <!-- original -->
    <defs>
     <path d="M 6.9375 0 
L 6.9375 40.53125 
Q 6.9375 42.1875 6.90625 43.921875 
Q 6.890625 45.65625 6.828125 47.265625 
Q 6.78125 48.875 6.734375 50.28125 
Q 6.6875 51.703125 6.640625 52.828125 
L 14.9375 52.828125 
Q 14.984375 51.703125 15.0625 50.265625 
Q 15.140625 48.828125 15.203125 47.3125 
Q 15.28125 45.796875 15.296875 44.40625 
Q 15.328125 43.015625 15.328125 42.046875 
L 15.53125 42.046875 
Q 16.453125 45.0625 17.5 47.28125 
Q 18.5625 49.515625 19.96875 50.953125 
Q 21.390625 52.390625 23.34375 53.09375 
Q 25.296875 53.8125 28.078125 53.8125 
Q 29.15625 53.8125 30.125 53.640625 
Q 31.109375 53.46875 31.640625 53.328125 
L 31.640625 45.265625 
Q 30.765625 45.515625 29.59375 45.625 
Q 28.421875 45.75 26.953125 45.75 
Q 23.921875 45.75 21.796875 44.375 
Q 19.671875 43.015625 18.328125 40.59375 
Q 17 38.1875 16.359375 34.84375 
Q 15.71875 31.5 15.71875 27.546875 
L 15.71875 0 
z
" id="LiberationSans-72"/>
     <path d="M 26.765625 -20.75 
Q 22.21875 -20.75 18.703125 -19.8125 
Q 15.1875 -18.890625 12.6875 -17.15625 
Q 10.203125 -15.4375 8.640625 -13.03125 
Q 7.078125 -10.640625 6.390625 -7.71875 
L 15.234375 -6.453125 
Q 16.109375 -10.109375 19.109375 -12.078125 
Q 22.125 -14.0625 27 -14.0625 
Q 29.984375 -14.0625 32.421875 -13.234375 
Q 34.859375 -12.40625 36.5625 -10.5625 
Q 38.28125 -8.734375 39.203125 -5.796875 
Q 40.140625 -2.875 40.140625 1.3125 
L 40.140625 9.8125 
L 40.046875 9.8125 
Q 39.0625 7.8125 37.625 5.984375 
Q 36.1875 4.15625 34.109375 2.734375 
Q 32.03125 1.3125 29.296875 0.453125 
Q 26.5625 -0.390625 23.046875 -0.390625 
Q 18.015625 -0.390625 14.421875 1.296875 
Q 10.84375 2.984375 8.5625 6.34375 
Q 6.296875 9.71875 5.25 14.71875 
Q 4.203125 19.734375 4.203125 26.3125 
Q 4.203125 32.671875 5.25 37.75 
Q 6.296875 42.828125 8.65625 46.359375 
Q 11.03125 49.90625 14.8125 51.78125 
Q 18.609375 53.65625 24.03125 53.65625 
Q 29.640625 53.65625 33.765625 51.09375 
Q 37.890625 48.53125 40.140625 43.796875 
L 40.234375 43.796875 
Q 40.234375 45.015625 40.296875 46.53125 
Q 40.375 48.046875 40.453125 49.390625 
Q 40.53125 50.734375 40.625 51.703125 
Q 40.71875 52.6875 40.828125 52.828125 
L 49.171875 52.828125 
Q 49.125 52.390625 49.078125 51.34375 
Q 49.03125 50.296875 48.96875 48.828125 
Q 48.921875 47.359375 48.890625 45.578125 
Q 48.875 43.796875 48.875 41.890625 
L 48.875 1.515625 
Q 48.875 -9.578125 43.421875 -15.15625 
Q 37.984375 -20.75 26.765625 -20.75 
z
M 40.140625 26.421875 
Q 40.140625 31.9375 38.9375 35.859375 
Q 37.75 39.796875 35.796875 42.28125 
Q 33.84375 44.78125 31.328125 45.953125 
Q 28.8125 47.125 26.171875 47.125 
Q 22.796875 47.125 20.375 45.953125 
Q 17.96875 44.78125 16.375 42.265625 
Q 14.796875 39.75 14.03125 35.8125 
Q 13.28125 31.890625 13.28125 26.421875 
Q 13.28125 20.703125 14.03125 16.8125 
Q 14.796875 12.9375 16.359375 10.546875 
Q 17.921875 8.15625 20.3125 7.125 
Q 22.703125 6.109375 26.03125 6.109375 
Q 28.65625 6.109375 31.171875 7.21875 
Q 33.6875 8.34375 35.6875 10.78125 
Q 37.703125 13.234375 38.921875 17.09375 
Q 40.140625 20.953125 40.140625 26.421875 
z
" id="LiberationSans-67"/>
     <path d="M 40.28125 0 
L 40.28125 33.5 
Q 40.28125 37.359375 39.71875 39.9375 
Q 39.15625 42.53125 37.890625 44.109375 
Q 36.625 45.703125 34.546875 46.359375 
Q 32.46875 47.015625 29.390625 47.015625 
Q 26.265625 47.015625 23.75 45.921875 
Q 21.234375 44.828125 19.453125 42.75 
Q 17.671875 40.671875 16.6875 37.625 
Q 15.71875 34.578125 15.71875 30.609375 
L 15.71875 0 
L 6.9375 0 
L 6.9375 41.546875 
Q 6.9375 43.21875 6.90625 45.046875 
Q 6.890625 46.875 6.828125 48.5 
Q 6.78125 50.140625 6.734375 51.3125 
Q 6.6875 52.484375 6.640625 52.828125 
L 14.9375 52.828125 
Q 14.984375 52.59375 15.03125 51.515625 
Q 15.09375 50.4375 15.15625 49.046875 
Q 15.234375 47.65625 15.28125 46.21875 
Q 15.328125 44.78125 15.328125 43.796875 
L 15.484375 43.796875 
Q 16.75 46.09375 18.265625 47.953125 
Q 19.78125 49.8125 21.78125 51.09375 
Q 23.78125 52.390625 26.359375 53.09375 
Q 28.953125 53.8125 32.375 53.8125 
Q 36.765625 53.8125 39.9375 52.734375 
Q 43.109375 51.65625 45.15625 49.40625 
Q 47.21875 47.171875 48.171875 43.625 
Q 49.125 40.09375 49.125 35.203125 
L 49.125 0 
z
" id="LiberationSans-6e"/>
    </defs>
    <g style="fill:#262626;" transform="translate(763.26 172.68)scale(0.16 -0.16)">
     <use xlink:href="#LiberationSans-6f"/>
     <use x="55.615234" xlink:href="#LiberationSans-72"/>
     <use x="88.916016" xlink:href="#LiberationSans-69"/>
     <use x="111.132812" xlink:href="#LiberationSans-67"/>
     <use x="166.748047" xlink:href="#LiberationSans-69"/>
     <use x="188.964844" xlink:href="#LiberationSans-6e"/>
     <use x="244.580078" xlink:href="#LiberationSans-61"/>
     <use x="300.195312" xlink:href="#LiberationSans-6c"/>
    </g>
   </g>
   <g id="patch_209">
    <path d="M 718.46 195.595 
L 750.46 195.595 
L 750.46 184.395 
L 718.46 184.395 
z
" style="fill:#ff8c00;opacity:0.4;"/>
   </g>
   <g id="text_23">
    <!-- corrected -->
    <defs>
     <path d="M 13.421875 26.65625 
Q 13.421875 22.125 14.078125 18.3125 
Q 14.75 14.5 16.3125 11.734375 
Q 17.875 8.984375 20.4375 7.46875 
Q 23 5.953125 26.765625 5.953125 
Q 31.453125 5.953125 34.59375 8.484375 
Q 37.75 11.03125 38.484375 16.3125 
L 47.359375 15.71875 
Q 46.921875 12.453125 45.453125 9.421875 
Q 44 6.390625 41.484375 4.09375 
Q 38.96875 1.8125 35.34375 0.40625 
Q 31.734375 -0.984375 27 -0.984375 
Q 20.796875 -0.984375 16.453125 1.109375 
Q 12.109375 3.21875 9.390625 6.90625 
Q 6.6875 10.59375 5.46875 15.59375 
Q 4.25 20.609375 4.25 26.46875 
Q 4.25 31.78125 5.125 35.859375 
Q 6 39.9375 7.59375 42.984375 
Q 9.1875 46.046875 11.328125 48.125 
Q 13.484375 50.203125 15.984375 51.4375 
Q 18.5 52.6875 21.28125 53.25 
Q 24.078125 53.8125 26.90625 53.8125 
Q 31.34375 53.8125 34.8125 52.59375 
Q 38.28125 51.375 40.796875 49.25 
Q 43.3125 47.125 44.875 44.234375 
Q 46.4375 41.359375 47.078125 38.03125 
L 38.03125 37.359375 
Q 37.359375 41.75 34.5625 44.328125 
Q 31.78125 46.921875 26.65625 46.921875 
Q 22.90625 46.921875 20.390625 45.671875 
Q 17.875 44.4375 16.3125 41.921875 
Q 14.75 39.40625 14.078125 35.59375 
Q 13.421875 31.78125 13.421875 26.65625 
z
" id="LiberationSans-63"/>
     <path d="M 13.484375 24.5625 
Q 13.484375 20.40625 14.328125 16.90625 
Q 15.1875 13.421875 16.96875 10.90625 
Q 18.75 8.40625 21.53125 7 
Q 24.3125 5.609375 28.21875 5.609375 
Q 33.9375 5.609375 37.375 7.90625 
Q 40.828125 10.203125 42.046875 13.71875 
L 49.75 11.53125 
Q 48.921875 9.328125 47.4375 7.109375 
Q 45.953125 4.890625 43.453125 3.09375 
Q 40.96875 1.3125 37.234375 0.15625 
Q 33.5 -0.984375 28.21875 -0.984375 
Q 16.5 -0.984375 10.375 6 
Q 4.25 12.984375 4.25 26.765625 
Q 4.25 34.1875 6.09375 39.328125 
Q 7.953125 44.484375 11.171875 47.703125 
Q 14.40625 50.921875 18.703125 52.359375 
Q 23 53.8125 27.875 53.8125 
Q 34.515625 53.8125 38.984375 51.65625 
Q 43.453125 49.515625 46.15625 45.71875 
Q 48.875 41.9375 50.015625 36.8125 
Q 51.171875 31.6875 51.171875 25.734375 
L 51.171875 24.5625 
z
M 42.09375 31.296875 
Q 41.359375 39.65625 37.84375 43.484375 
Q 34.328125 47.3125 27.734375 47.3125 
Q 25.53125 47.3125 23.109375 46.609375 
Q 20.703125 45.90625 18.65625 44.09375 
Q 16.609375 42.28125 15.1875 39.171875 
Q 13.765625 36.078125 13.578125 31.296875 
z
" id="LiberationSans-65"/>
    </defs>
    <g style="fill:#262626;" transform="translate(763.26 195.595)scale(0.16 -0.16)">
     <use xlink:href="#LiberationSans-63"/>
     <use x="50" xlink:href="#LiberationSans-6f"/>
     <use x="105.615234" xlink:href="#LiberationSans-72"/>
     <use x="138.916016" xlink:href="#LiberationSans-72"/>
     <use x="172.216797" xlink:href="#LiberationSans-65"/>
     <use x="227.832031" xlink:href="#LiberationSans-63"/>
     <use x="277.832031" xlink:href="#LiberationSans-74"/>
     <use x="305.615234" xlink:href="#LiberationSans-65"/>
     <use x="361.230469" xlink:href="#LiberationSans-64"/>
    </g>
   </g>
  </g>
 </g>
 <defs>
  <clipPath id="pd852bc44d5">
   <rect height="248.328" width="381.0335" x="40.811" y="39.736"/>
  </clipPath>
  <clipPath id="p63ac72b871">
   <rect height="248.328" width="381.0335" x="442.5805" y="39.736"/>
  </clipPath>
 </defs>
</svg>
